<svg width="325" height="175" viewBox="0 0 325 175" fill="none" xmlns="http://www.w3.org/2000/svg">
<path d="M7.91278 47.1508C11.2297 39.0412 24.5365 32.0394 31.5281 27.4975C35.5918 24.8577 48.2423 17.7146 44.0113 20.0656C34.5497 25.3231 25.4253 31.7167 16.6132 38.0123C12.1103 41.2293 -0.191276 52.4338 3.69768 48.4721C12.8875 39.1102 25.0861 29.7035 36.6619 23.5889C42.7476 20.3743 33.0702 21.7594 29.4206 19.9004C27.916 19.1341 25.5866 18.4141 28.4479 18.4141C33.8518 18.4141 39.2558 18.4141 44.6598 18.4141C53.0104 18.4141 35.3973 24.809 32.771 25.2955C26.5675 26.4445 45.1635 22.3778 51.4688 22.3778C55.4684 22.3778 43.2036 24.9331 40.9851 28.3233" stroke="#4CA4DA" stroke-width="4" stroke-linecap="round"/>
<path d="M3.9559 55.5902C3.51014 55.1391 3.06439 54.688 2.61863 54.2368C-0.24646 51.3373 7.63143 60.6808 10.1073 63.9268C18.6782 75.1635 26.6675 86.988 36.9596 96.7319C39.3009 98.9484 42.7127 101.891 38.2969 96.9484C30.2947 87.9926 22.6569 78.7148 14.761 69.665C10.9195 65.2621 7.51655 60.7092 4.4908 55.6985C2.48031 52.369 2.47915 54.1987 4.27684 56.9977C15.5999 74.6272 32.7229 89.129 49.1555 101.82C50.8031 103.093 54.5572 107.383 56.9116 107.234C57.4832 107.198 55.2777 98.3998 55.1999 97.4898C54.2237 86.0739 58.6152 70.3148 51.616 60.0833C50.8508 58.9646 49.1229 57.7591 48.4601 59.7044C45.9364 67.111 48.2038 77.203 49.4229 84.6059C49.5363 85.2941 51.346 99.9799 52.3114 99.9799C53.8902 99.9799 52.9553 84.4962 52.8463 83.0902C52.2235 75.0536 52.9247 66.7163 50.1718 59.0547C49.6793 57.684 48.3382 52.8999 47.2833 52.4504C42.6432 50.4732 30.6728 63.5666 34.0176 59.7585C36.6357 56.7778 41.3371 53.0676 44.9832 51.5301C48.6739 49.9738 39.7547 57.6894 36.7456 60.354C33.198 63.4955 47.45 50.9331 44.9297 52.8835C42.9117 54.4452 40.7597 57.0871 38.2969 57.9179C36.3816 58.5641 40.6136 54.5448 42.0412 53.1C43.1686 51.9591 47.662 47.6987 48.4601 49.9603C53.4481 64.0948 52.9242 79.4682 56.9116 93.5921" stroke="#4CA4DA" stroke-width="4" stroke-linecap="round"/>
<path d="M66.4897 34.2622C69.5486 31.2929 68.473 38.5124 68.4918 39.9844C68.6726 54.1155 69.5748 68.1592 71.2724 82.199C71.6617 85.4187 72.0684 88.6461 72.4959 91.8619C72.6213 92.8058 72.4431 95.1194 73.2744 94.6151C74.9568 93.5944 73.4873 90.7621 73.3857 88.8389C72.946 80.5174 71.8181 72.2527 71.1056 63.9528C70.4334 56.1228 70.0427 48.0765 71.05 40.2543C71.4159 37.4125 73.2893 32.9363 72.4403 30.0515C70.9431 24.9651 69.4614 40.3168 69.1591 45.5986C68.4327 58.2913 68.8937 70.9312 73.4969 82.8468" stroke="#4CA4DA" stroke-width="4" stroke-linecap="round"/>
<path d="M73.0938 25.1719C83.5579 39.8664 90.1609 55.613 98.1424 71.6783C98.9988 73.402 100.953 76.3721 98.4663 72.5476C93.3153 64.6248 88.6649 56.3831 83.5667 48.4251C79.6948 42.3812 75.5099 36.6603 71.3663 30.8222C67.6568 25.5956 69.619 27.8313 72.554 31.6915C81.6819 43.6964 93.0052 56.4366 97.3866 71.135" stroke="#4CA4DA" stroke-width="4" stroke-linecap="round"/>
<path d="M78.0636 74.4106C77.3433 69.5272 82.4479 61.3888 85.1869 57.2437C88.0364 52.9314 90.1073 50.8851 85.9721 57.0264C83.0361 61.3869 73.444 73.9487 76.6053 69.7386C80.0981 65.087 83.7066 60.5004 87.15 55.8313" stroke="#4CA4DA" stroke-width="4" stroke-linecap="round"/>
<path d="M94.0824 17.1928C94.3819 15.4912 95.7325 20.2369 96.2005 21.8976C98.8651 31.3529 101.705 40.6908 104.779 50.0166C108.726 61.9904 111.675 75.2572 120.347 84.7003C124.823 89.5742 119.257 79.2235 118.653 78.0261C112.904 66.6425 107.466 54.7686 102.714 42.9047C99.297 34.3742 92.9681 24.9254 94.1353 15.2781C94.8317 9.52263 102.414 19.3413 103.19 20.3111C107.637 25.867 112.703 31.5991 116.534 37.653C120.851 44.4736 104.534 26.8852 99.8013 20.3658C93.8144 12.119 106.959 22.9368 108.803 25.0705C111.3 27.9589 115.163 31.0058 116.005 34.9176C116.811 38.6632 117.805 39.3478 117.17 34.9176C116.442 29.8449 116.89 24.4009 117.699 19.3811C118.038 17.2794 116.958 10.9045 116.958 13.0352C116.958 20.446 120.363 42.2105 117.911 35.2459C114.61 25.8659 119.327 16.4726 119.818 7.34572C119.997 4.01187 126.863 17.7993 127.443 18.9434C132.874 29.6547 139.175 41.202 142.481 52.8613C142.619 53.3472 144.922 63.208 144.176 63.0366C142.169 62.5758 140.936 57.8888 140.363 56.4719C137.888 50.3448 135.319 44.286 132.632 38.2547C128.832 29.7266 125.461 21.0531 121.777 12.4881C120.864 10.3653 117.887 4.63052 122.518 8.76808C132.945 18.0842 138.284 32.2165 143.117 45.1477C145.319 51.0398 151.505 62.3796 150.848 69.1637C150.693 70.7679 148.736 66.7496 147.989 65.3343C145.202 60.0566 142.814 54.5294 140.469 49.0318C136.651 40.0783 133.406 30.9361 130.355 21.6787C130.019 20.6575 126.566 9.45978 128.714 13.0899C137.459 27.875 139.766 45.6654 141.74 62.4896" stroke="#4CA4DA" stroke-width="4" stroke-linecap="round"/>
<path d="M139.516 2.54578C139.87 0.158669 144.758 12.4885 145.084 13.2182C148.742 21.4198 152.894 29.4528 158.215 36.6322C160.058 39.1188 162.304 42.8954 165.044 44.4731C165.539 44.7586 161.171 37.4774 160.684 36.6866C154.1 25.9873 146.363 15.9577 142.562 3.74371C139.899 -4.81577 149.169 20.5328 154.118 27.92C155.676 30.246 159.579 39.575 162.838 36.1966C168.859 29.9545 183.808 8.51888 179.541 16.1586C176.375 21.8277 166.094 28.994 166.094 36.1966C166.094 38.6991 168.891 32.1164 170.244 30.0436C171.928 27.4634 173.768 25.1786 174.499 22.1482" stroke="#4CA4DA" stroke-width="4" stroke-linecap="round"/>
<path d="M86.4058 121.101C90.6748 131.205 94.676 141.57 99.6918 151.318C101.213 154.274 103.207 157.448 105.885 159.449C110.364 162.796 111.764 156.671 112.025 153.076C112.722 143.486 110.815 132.536 105.938 124.287C103.5 120.163 99.0252 113.336 94.081 112.31C79.0783 109.196 100.863 152.22 106.785 156.867C112.404 161.276 115.546 157.874 116.26 151.318C117.53 139.635 114.491 125.212 108.267 115.332C100.091 102.353 85.5007 105.126 90.3228 122.309C94.0673 135.653 100.967 150.026 111.39 159.229C118.26 165.296 120.273 156.711 120.494 150.768C120.988 137.511 118.079 124.501 110.225 113.848C107.497 110.147 99.3978 100.484 93.8163 102.75C85.3221 106.2 93.2259 126.516 94.9808 131.429C98.5799 141.507 103.419 150.544 113.084 154.724" stroke="#4CA4DA" stroke-width="4" stroke-linecap="round"/>
<path d="M115.612 107.682C111.558 103.285 125.132 116.005 125.717 116.654C132.265 123.903 137.663 132.004 143.843 139.546C149.024 145.869 140.61 132.703 140.261 132.205C133.657 122.782 127.153 112.697 119.141 104.42C114.189 99.3045 115.046 102.601 118.82 107.03C125.843 115.271 133.227 123.102 140.421 131.172C142.607 133.624 145.882 135.804 147.746 138.458C148.041 138.878 147.132 135.004 146.944 133.782C145.329 123.248 143.535 112.653 142.613 102.027C142.496 100.672 140.998 86.4426 141.063 93.9799C141.207 110.635 149.213 160.064 147.907 143.461C147.171 134.108 144.286 124.606 143.095 115.24C142.258 108.668 142.347 100.996 140.421 94.6324C136.478 81.5986 145.196 121.506 146.41 135.087" stroke="#4CA4DA" stroke-width="4" stroke-linecap="round"/>
<path d="M160.158 112.388C164.785 105.011 167.978 97.3861 171.381 89.4255C172.544 86.7051 174.791 83.357 174.939 80.2947C174.997 79.0908 173.973 79.4511 173.351 79.9705C168.968 83.6309 166.882 90.1326 164.702 95.1526C162.777 99.5867 161.373 103.946 160.158 108.606C159.488 111.179 158.836 112.84 160.377 109.254C164.296 100.138 169.588 91.1622 172.914 81.8615C174.066 78.6379 174.945 78.4412 173.735 75.216C172.837 72.8243 170.536 66.7787 167.056 67.7601C164.22 68.5597 164.294 74.4067 164.1 76.4046C162.976 87.9864 163.635 99.7066 166.071 111.091C166.916 115.042 167.934 119.297 169.41 123.085C171.422 128.247 168.711 112.037 167.987 106.553C166.733 97.0679 165.619 87.2961 163.114 78.0255C161.697 72.7781 159.75 89.7956 159.83 91.1004C160.55 102.86 162.593 118.088 168.479 128.65C171.05 133.264 180.156 116.333 181.18 114.765C183.605 111.052 186.065 107.234 188.132 103.311C190.661 98.5113 185.536 106.227 185.176 106.823C182.252 111.663 179.186 116.375 176.143 121.14C175.038 122.872 171.22 127.19 173.187 126.543C175.299 125.849 177.629 118.739 178.388 117.196C180.319 113.27 181.86 109.054 184.136 105.31C189.081 97.1762 174.296 121.719 168.041 128.92" stroke="#4CA4DA" stroke-width="4" stroke-linecap="round"/>
<path d="M186.278 64.1992C180.105 50.8172 195.801 92.1488 199.936 106.324C200.416 107.968 202.703 116.118 200.47 109.535C195.709 95.5046 192.31 81.0435 187.825 66.9205C186.612 63.0983 182.461 52.0297 184.784 55.2735C186.559 57.7502 187.493 61.7351 188.412 64.4713C191.436 73.4692 194.317 82.5169 197.162 91.5749C199.037 97.5466 205.886 114.981 203.137 109.372C198.373 99.652 195.413 89.036 191.08 79.1116C185.312 65.9005 185.584 57.2377 201.217 54.4027C219.274 51.1279 205.318 79.0397 200.79 85.9692C199.682 87.6643 206.019 76.3121 207.192 74.4311C208.943 71.6244 214.874 64.9732 214.874 61.3691C214.874 56.2551 191.451 66.3372 189.373 63.9815C187.429 61.7781 199.756 54.2516 202.924 57.124C203.451 57.602 201.714 57.8718 201.163 58.3213C199.792 59.4404 201.206 60.1743 202.23 60.335C205.065 60.7799 211.216 60.3467 209.699 64.4713C205.94 74.6989 197.749 106.322 199.509 95.548C199.773 93.9317 203.42 86.3403 202.39 84.9895C202.14 84.6607 210.411 85.2199 211.353 85.3161C218.647 86.0602 225.91 87.3531 233.121 88.6904C242.924 90.5088 213.642 84.3045 203.777 82.867C199.622 82.2614 212.07 84.3166 216.262 84.5541C223.855 84.9845 231.493 84.7718 239.096 84.7718" stroke="#4CA4DA" stroke-width="4" stroke-linecap="round"/>
<path d="M231.731 22.8523C232.263 12.5018 232.372 28.3338 232.222 30.9083C231.932 35.9034 230.942 41.8049 231.95 46.7965C232.908 51.5468 238.264 43.9389 239.152 42.8804C243.088 38.1881 247.765 28.9543 253.339 26.097C254.738 25.3801 254.409 28.3456 253.339 28.8943" stroke="#4CA4DA" stroke-width="4" stroke-linecap="round"/>
<path d="M251.364 29.9534C251.509 29.0441 251.628 28.1304 251.799 27.2256C252.083 25.7187 252.202 25.2718 252.288 27.1711C252.545 32.8385 252.361 38.5788 252.342 44.2468C252.3 56.8987 252.078 69.593 251.146 82.217C250.874 85.9024 251.084 96.2968 249.189 93.128C248.216 91.4998 248.563 87.2465 248.592 85.8722C248.793 76.1656 249.85 66.4473 250.82 56.7944C251.789 47.1591 253.321 37.906 253.321 28.2076C253.321 21.9321 251.722 23.1388 247.722 28.4258C243.005 34.6602 239.927 41.6705 235.871 48.2838C233.656 51.8961 233.881 45.7691 233.806 44.1377C233.531 38.2105 233.751 32.2303 233.751 26.2982C233.751 24.0703 232.842 19.3234 233.969 17.1875C236.077 13.1916 234.883 27.1121 237.285 18.0059C237.783 16.1163 242.404 0.955613 239.622 9.33162" stroke="#4CA4DA" stroke-width="4" stroke-linecap="round"/>
<path d="M130.98 172.89C155.809 154.624 180.389 136.272 207.395 121.435C226.166 111.121 245.334 101.348 264.679 92.2035C281.17 84.4077 298.437 78.9129 315.084 71.6212C317.405 70.6046 323.949 67.2758 322.285 69.2126C319.595 72.3443 317.575 77.3965 315.192 80.927C302.286 100.05 287.833 116.655 270.267 131.507C269.914 131.805 253.768 143.68 258.338 137.966C262.451 132.824 266.894 127.606 271.45 122.858C276.22 117.886 271.791 123.523 270.053 125.595C266.514 129.814 261.924 133.436 257.908 137.2C253.395 141.43 265.272 127.152 269.623 122.748C282.922 109.286 296.855 96.6119 309.496 82.4597C310.587 81.238 320.402 70.9272 314.762 69.6505C312.534 69.1462 309.741 70.958 307.884 71.8401C300.673 75.2638 293.781 79.2295 286.926 83.3356C257.003 101.26 226.861 118.695 196.647 136.105C181.961 144.567 138.26 170.415 153.55 163.147C156.468 161.759 159.636 160.45 161.933 158.111" stroke="#4CA4DA" stroke-width="4" stroke-linecap="round"/>
</svg>
