<svg width="43" height="43" viewBox="0 0 43 43" fill="none" xmlns="http://www.w3.org/2000/svg">
<path d="M26.3109 10.0526C26.3771 9.93969 27.2413 8.28313 26.9218 8.38359C22.9791 9.62321 18.9266 16.1315 16.5232 19.1921C14.6727 21.5486 13.1193 24.0497 11.606 26.6281C10.888 27.8515 8.26039 30.8681 9.5907 30.376C11.236 29.7673 12.9636 27.0035 13.9224 25.8219C17.5599 21.3386 21.0282 16.7174 24.6003 12.1821C24.6576 12.1093 27.6415 7.66254 26.5388 8.25098C23.005 10.1369 19.9009 14.5486 17.4344 17.5611C14.9181 20.6341 7.72343 30.1261 10.3088 27.111C15.7063 20.8165 20.411 13.8843 25.6655 7.46198C27.3607 5.39013 24.8705 6.7535 24.0696 7.35476C18.883 11.2486 14.5164 16.8564 11.1625 22.3589C10.0105 24.2489 3.60785 36.8919 8.95736 29.7278" stroke="white" stroke-width="3" stroke-linecap="round"/>
<path d="M12.4676 9.4845C12.3995 9.32816 11.2163 7.44256 10.9432 8.3133C10.2234 10.6079 14.8023 15.8532 15.8387 17.6377C17.8391 21.0823 25.9984 29.8181 22.9791 27.2199C18.2197 23.1242 15.3953 17.2659 12.1921 11.9954C7.16178 3.71897 24.9188 26.5987 31.3518 33.8388" stroke="white" stroke-width="3" stroke-linecap="round"/>
</svg>
