<svg width="43" height="43" viewBox="0 0 43 43" fill="none" xmlns="http://www.w3.org/2000/svg">
<path d="M26.3114 10.0526C26.3776 9.93969 27.2418 8.28313 26.9223 8.38359C22.9796 9.62321 18.9271 16.1315 16.5237 19.1921C14.6732 21.5486 13.1198 24.0497 11.6065 26.6281C10.8885 27.8515 8.26087 30.8681 9.59119 30.376C11.2365 29.7673 12.9641 27.0035 13.9229 25.8219C17.5604 21.3386 21.0287 16.7174 24.6008 12.1821C24.6581 12.1093 27.642 7.66254 26.5393 8.25098C23.0054 10.1369 19.9014 14.5486 17.4348 17.5611C14.9186 20.6341 7.72392 30.1261 10.3093 27.111C15.7068 20.8165 20.4114 13.8843 25.666 7.46198C27.3612 5.39013 24.871 6.7535 24.0701 7.35476C18.8835 11.2486 14.5169 16.8564 11.163 22.3589C10.011 24.2489 3.60834 36.8919 8.95785 29.7278" stroke="#FF3D3D" stroke-width="3" stroke-linecap="round"/>
<path d="M12.4671 9.4845C12.399 9.32816 11.2158 7.44256 10.9427 8.3133C10.223 10.6079 14.8018 15.8532 15.8382 17.6377C17.8386 21.0823 25.9979 29.8181 22.9787 27.2199C18.2192 23.1242 15.3948 17.2659 12.1916 11.9954C7.1613 3.71897 24.9183 26.5987 31.3513 33.8388" stroke="#FF3D3D" stroke-width="3" stroke-linecap="round"/>
</svg>
