<svg width="482" height="107" viewBox="0 0 482 107" fill="none" xmlns="http://www.w3.org/2000/svg">
<path d="M30.4423 35.8867C30.3372 37.811 29.4111 39.1836 28.5193 40.8933C23.2373 51.0194 19.023 61.5386 14.8659 72.1844C11.621 80.4944 8.44866 88.829 5.40473 97.2173C4.75284 99.0137 3.60503 101.153 4.13554 102.771" stroke="#4CA4DA" stroke-width="7" stroke-linecap="round"/>
<path d="M27.3315 39.7759C37.3396 28.8136 53.0995 27.686 66.9957 29.7112" stroke="#4CA4DA" stroke-width="7" stroke-linecap="round"/>
<path d="M70.1063 28.1574C68.511 26.9482 56.4843 48.956 55.751 50.4298C48.2058 65.5929 40.9516 81.1161 35.8862 97.3273" stroke="#4CA4DA" stroke-width="7" stroke-linecap="round"/>
<path d="M52.9966 87.2166C63.213 63.4298 79.6053 41.0958 101.216 26.5537" stroke="#4CA4DA" stroke-width="7" stroke-linecap="round"/>
<path d="M108.606 24.2963C108.634 24.0241 109.305 21.8932 109.587 22.9637C110.213 25.3437 109.072 29.4659 108.685 31.5868C107.374 38.768 105.753 45.8988 104.019 52.9879C101.576 62.9732 98.8659 72.9281 95.1962 82.5419C93.7762 86.2617 92.4374 90.5519 89.5498 93.4384" stroke="#4CA4DA" stroke-width="7" stroke-linecap="round"/>
<path d="M64.6626 67.7739C78.6424 57.3453 96.9927 56.7131 113.66 52.9971" stroke="#4CA4DA" stroke-width="7" stroke-linecap="round"/>
<path d="M143.213 16.4434C143.046 19.5533 142.164 22.2829 141.135 25.2338C137.751 34.931 134.186 44.5751 130.584 54.1953C125.635 67.4116 120.853 80.8394 114.437 93.4385" stroke="#4CA4DA" stroke-width="7" stroke-linecap="round"/>
<path d="M127.659 43.7737C138.282 32.7584 153.729 26.1449 169.065 27.5094C189.056 29.2881 163.951 48.1129 157.659 51.5353C152.848 54.1518 147.766 55.9134 142.502 57.3468C141.229 57.6936 137.741 59.293 138.674 58.3609C140.769 56.269 145.083 58.315 147.346 59.2189" stroke="#4CA4DA" stroke-width="7" stroke-linecap="round"/>
<path d="M143.354 86.3213C142.328 88.3539 147.178 83.771 148.848 82.2121C159.288 72.4667 169.056 62.0379 179.562 52.3518C188.902 43.7402 198.701 35.6055 208.457 27.4617C211.098 25.257 215.074 20.5951 218.615 19.5564C219.1 19.4142 214.72 28.1719 214.662 28.2836C209.134 39.0377 203.861 49.9259 198.93 60.9616C194.269 71.3938 190.575 82.1953 186.044 92.6612" stroke="#4CA4DA" stroke-width="7" stroke-linecap="round"/>
<path d="M172.767 66.2183C176.903 62.677 184.691 63.3965 189.573 63.246C197.704 62.9955 205.853 63.1611 213.986 63.1611" stroke="#4CA4DA" stroke-width="7" stroke-linecap="round"/>
<path d="M271.538 38.2197C265.303 52.2971 258.994 66.226 252.322 80.1002C249.599 85.7616 246.153 91.8472 245.095 98.1049" stroke="#4CA4DA" stroke-width="7" stroke-linecap="round"/>
<path d="M257.539 49.1087C270.036 32.6019 292.413 32.7764 311.203 32.7764" stroke="#4CA4DA" stroke-width="7" stroke-linecap="round"/>
<path d="M327.262 23.4434C328.533 25.7334 324.997 32.995 324.182 35.1379C318.955 48.8755 313.143 62.5064 307.124 75.9107C303.705 83.5255 300.365 91.4352 296.305 98.7467C295.212 100.715 295.761 99.0273 295.989 98.1146" stroke="#4CA4DA" stroke-width="7" stroke-linecap="round"/>
<path d="M323.365 36.4365C331.163 29.5279 341.066 27.6227 351.247 29.6597C360.487 31.5083 364.129 36.8067 357.826 44.9469C350.38 54.5632 336.928 59.4905 325.402 61.81C324.734 61.9443 316.763 62.8067 318.431 61.9676" stroke="#4CA4DA" stroke-width="7" stroke-linecap="round"/>
<path d="M376.131 35.1938C376.852 34.4861 377.714 33.5017 376.805 35.5828C372.8 44.7496 367.579 53.4864 362.651 62.189C356.88 72.3814 351.004 82.5022 345.009 92.5683C344.017 94.2344 340.537 98.749 340.767 101.009C340.866 101.977 347.331 99.2305 347.467 99.181C354.081 96.7808 360.669 94.7494 367.647 93.6186C374.57 92.4965 382.262 90.8373 388.976 93.3074" stroke="#4CA4DA" stroke-width="7" stroke-linecap="round"/>
<path d="M354.755 71.6621C367.383 66.107 378.2 62.6482 392.086 64.2981" stroke="#4CA4DA" stroke-width="7" stroke-linecap="round"/>
<path d="M374.199 38.2199C380.325 33.8415 390.711 31.6041 398.308 32.0551C401.944 32.271 405.549 32.9671 409.197 32.9671" stroke="#4CA4DA" stroke-width="7" stroke-linecap="round"/>
<path d="M392.086 6.33301C389.054 10.8359 386.462 15.3594 384.309 20.3321" stroke="#4CA4DA" stroke-width="7" stroke-linecap="round"/>
<path d="M408.419 4C405.935 9.01545 403.76 14.1215 400.641 18.7769" stroke="#4CA4DA" stroke-width="7" stroke-linecap="round"/>
<path d="M424.854 28.6204C433.06 26.7882 441.694 27.1347 449.961 28.2673C451.23 28.4412 457.028 28.7463 457.028 31.0919C457.028 33.3593 450.675 36.3133 449.336 37.1726C440.465 42.867 433.808 49.994 425.986 56.8272C425.77 57.0165 423.31 59.2026 423.956 58.5533C426.339 56.1589 430.618 55.2224 433.718 54.4733C446.699 51.3366 463.508 55.3735 473.037 64.9479C486.085 78.0568 473.056 93.2235 458.746 97.1955C447.901 100.206 435.655 98.749 424.854 96.2539C418.618 94.8133 411.191 92.154 406.736 87.2309C406.163 86.5975 404.175 84.1462 406.19 83.8571C408.169 83.573 409.705 85.9138 410.797 87.2309" stroke="#4CA4DA" stroke-width="7" stroke-linecap="round"/>
</svg>
