<svg width="436" height="1191" viewBox="0 0 436 1191" fill="none" xmlns="http://www.w3.org/2000/svg">
<path d="M232.669 743.772C239.014 741.02 250.391 744.402 256.844 745.691C260.595 746.441 271.678 749.381 267.992 748.376C259.749 746.129 251.071 744.71 242.622 743.407C238.305 742.742 225.179 742.288 229.56 742.194C239.912 741.973 251.989 743.386 261.899 746.314C267.108 747.854 260.879 743.301 259.842 740.238C259.415 738.976 258.496 737.285 260.112 738.863C263.164 741.842 266.217 744.821 269.269 747.801C273.986 752.405 260.512 746.306 258.76 745.133C254.623 742.362 267.368 750.317 270.93 753.794C273.189 755.999 264.852 750.68 261.73 751.372" stroke="#4CA4DA" stroke-width="4" stroke-linecap="round"/>
<path d="M225.781 746.359C225.778 745.858 225.775 745.358 225.772 744.857C225.752 741.64 225.05 751.261 224.659 754.459C223.305 765.532 221.298 776.615 221.739 787.793C221.839 790.336 222.144 793.879 222.375 788.653C222.793 779.183 223.594 769.731 224.124 760.266C224.382 755.661 224.97 751.213 226.023 746.715C226.723 743.726 225.714 744.759 225.186 747.331C221.862 763.531 223.538 781.163 225.822 797.392C226.051 799.019 225.806 803.512 227.218 804.726C227.561 805.02 231.166 798.835 231.624 798.278C237.367 791.292 248.536 784.812 250.223 775.174C250.408 774.12 250.097 772.487 248.65 773.22C243.141 776.012 238.857 782.962 235.464 787.816C235.149 788.267 228.074 797.56 228.619 798.092C229.511 798.963 237.52 789.701 238.234 788.847C242.313 783.965 247.306 779.642 249.975 773.797C250.452 772.751 252.333 769.309 251.985 768.474C250.454 764.799 236.474 765.594 240.462 765.288C243.585 765.047 248.286 765.544 251.193 766.686C254.136 767.842 244.844 767.282 241.675 767.128C237.939 766.947 252.915 767.709 250.416 767.421C248.416 767.19 245.743 767.496 243.894 766.607C242.456 765.916 247.063 765.979 248.666 765.951C249.931 765.928 254.818 765.999 254.022 767.716C249.047 778.45 240.275 786.844 234.74 797.02" stroke="#4CA4DA" stroke-width="4" stroke-linecap="round"/>
<path d="M272.861 768.789C276.226 768.799 271.638 772.284 270.837 773.125C263.148 781.207 255.915 789.636 249.133 798.503C247.577 800.536 246.028 802.583 244.496 804.635C244.047 805.237 242.67 806.446 243.418 806.619C244.931 806.97 245.663 804.56 246.666 803.418C251.005 798.475 254.925 793.185 259.099 788.105C263.036 783.311 267.251 778.551 272.133 774.688C273.907 773.285 277.433 771.789 278.544 769.692C280.502 765.993 271.201 773.848 268.119 776.664C260.71 783.433 254.002 790.827 250.032 800.095" stroke="#4CA4DA" stroke-width="4" stroke-linecap="round"/>
<path d="M281.604 767.296C279.412 781.365 274.46 793.9 270.111 807.374C269.644 808.82 269.11 811.575 269.814 808.044C271.273 800.729 273.19 793.51 274.698 786.204C275.844 780.656 276.634 775.117 277.513 769.535C278.299 764.537 278.175 766.882 277.704 770.681C276.241 782.494 275.612 795.933 269.983 806.651" stroke="#4CA4DA" stroke-width="4" stroke-linecap="round"/>
<path d="M257.262 797.849C259.548 794.693 266.918 792.911 270.751 792.08C274.738 791.215 277.036 791.201 271.314 792.39C267.251 793.234 254.908 795.041 259.014 794.406C263.552 793.704 268.119 793.103 272.638 792.364" stroke="#4CA4DA" stroke-width="4" stroke-linecap="round"/>
<path d="M297.857 774.362C298.965 773.566 297.111 776.991 296.46 778.187C292.752 784.997 289.207 791.837 285.802 798.799C281.43 807.739 275.781 816.858 275.473 826.973C275.313 832.194 277.877 823.279 278.195 822.269C281.224 812.67 284.699 802.965 288.557 793.644C291.33 786.941 292.965 778.115 298.943 773.309C302.51 770.443 301.379 780.169 301.283 781.145C300.731 786.735 300.432 792.765 299.258 798.297C297.936 804.53 298.417 785.599 299.338 779.307C300.504 771.348 301.964 784.706 301.829 786.928C301.646 789.935 302.149 793.787 300.468 796.46C298.857 799.02 299.042 799.955 301.126 797.103C303.511 793.836 306.766 791.008 309.991 788.619C311.341 787.619 314.245 783.422 313.071 784.626C308.985 788.812 298.908 802.982 301.363 797.697C304.67 790.578 312.513 787.873 317.823 782.989C319.762 781.205 316.038 792.778 315.735 793.744C312.897 802.788 310.09 812.785 305.529 821.193C305.339 821.543 301.203 828.383 300.876 827.875C299.996 826.508 301.884 823.18 302.342 822.065C304.322 817.239 306.212 812.401 308.019 807.512C310.575 800.601 313.453 793.843 316.094 786.974C316.749 785.271 318.229 780.391 318.564 785.281C319.317 796.292 314.54 807.218 310.141 817.187C308.136 821.729 305.378 831.544 301.266 835.014C300.294 835.835 301.404 832.486 301.763 831.275C303.099 826.757 304.797 822.318 306.504 817.921C309.284 810.758 312.491 803.805 315.872 796.894C316.245 796.132 320.469 787.904 319.68 791.138C316.469 804.311 307.963 815.632 299.802 826.223" stroke="#4CA4DA" stroke-width="4" stroke-linecap="round"/>
<path d="M331.595 791.137C333.111 789.984 329.074 799.644 328.856 800.235C326.4 806.885 324.316 813.712 323.364 820.7C323.034 823.121 322.22 826.492 322.897 828.894C323.02 829.329 324.567 822.807 324.728 822.092C326.908 812.419 328.068 802.488 332.655 793.494C335.87 787.191 327.131 806.62 325.853 813.521C325.451 815.693 322.511 823.114 326.215 823.003C333.057 822.797 353.319 818.932 346.697 820.894C341.783 822.351 332.025 820.73 328.054 824.798C326.674 826.212 331.884 824.036 333.79 823.611C336.164 823.082 338.463 822.806 340.547 821.497" stroke="#4CA4DA" stroke-width="4" stroke-linecap="round"/>
<path d="M236.232 828.821C233.073 836.882 229.618 844.942 227.077 853.213C226.306 855.722 225.682 858.614 226.092 861.221C226.776 865.581 230.944 862.893 233.074 861.006C238.755 855.974 243.714 848.738 245.508 841.389C246.404 837.716 247.641 831.393 245.414 828.087C238.657 818.056 227.241 854.369 228.024 860.258C228.766 865.847 232.417 865.658 236.435 862.348C243.594 856.45 249.829 846.627 251.761 837.615C254.299 825.777 244.529 819.298 237.778 831.663C232.536 841.265 228.509 853.187 229.322 864.132C229.858 871.346 235.728 867.607 239.129 864.373C246.718 857.156 252.248 848.204 253.685 837.857C254.184 834.262 254.938 824.339 250.535 822.542C243.836 819.807 237.099 835.639 235.381 839.382C231.858 847.059 229.608 854.832 232.763 862.521" stroke="#4CA4DA" stroke-width="4" stroke-linecap="round"/>
<path d="M260.127 837.344C260.262 832.625 260.915 847.293 260.888 847.983C260.59 855.687 259.173 863.239 258.505 870.906C257.946 877.334 260.451 865.259 260.529 864.785C261.995 855.822 263.881 846.539 263.919 837.447C263.943 831.827 262.609 834.161 262.299 838.744C261.722 847.271 261.575 855.765 261.189 864.29C261.072 866.88 261.72 869.917 261.309 872.444C261.245 872.843 262.867 870.154 263.435 869.361C268.33 862.52 273.159 855.547 278.496 849.037C279.177 848.206 286.176 839.343 282.057 843.636C272.956 853.123 250.226 885.456 258.642 875.358C263.383 869.67 266.993 862.712 271.483 856.765C274.634 852.592 278.914 848.307 281.335 843.651C286.294 834.115 269.215 861.463 262.413 869.803" stroke="#4CA4DA" stroke-width="4" stroke-linecap="round"/>
<path d="M282.695 864.561C289.375 862.946 295.382 860.399 301.693 857.779C303.85 856.883 306.966 856.232 308.738 854.583C309.434 853.935 308.657 853.574 308.02 853.525C303.526 853.176 298.763 855.698 294.764 857.331C291.231 858.774 288.035 860.462 284.78 862.425C282.982 863.509 281.698 864.087 284.546 862.912C291.786 859.923 299.723 857.771 306.73 854.352C309.158 853.166 309.763 853.54 310.857 851.051C311.669 849.205 313.703 844.522 311.196 843.157C309.153 842.045 305.971 845.388 304.76 846.41C297.739 852.332 291.65 859.315 286.749 867.088C285.048 869.786 283.277 872.75 282.022 875.704C280.312 879.729 287.719 869.079 290.333 865.581C294.855 859.533 299.613 853.4 303.31 846.782C305.402 843.037 294.92 851.575 294.246 852.356C288.169 859.395 280.927 869.123 278.428 878.335C277.337 882.358 291.815 877.815 293.257 877.494C296.674 876.734 300.169 875.934 303.5 874.858C307.574 873.541 300.425 875.073 299.894 875.211C295.573 876.333 291.244 877.304 286.898 878.318C285.319 878.687 280.781 879.021 282.249 879.74C283.825 880.512 289.061 877.781 290.34 877.328C293.595 876.175 296.79 874.643 300.14 873.783C307.418 871.915 285.536 877.626 278.032 878.246" stroke="#4CA4DA" stroke-width="4" stroke-linecap="round"/>
<path d="M324.016 851.743C327.907 840.781 313.985 872.78 308.505 883.066C307.87 884.259 304.668 890.124 307.036 885.174C312.083 874.624 318.136 864.583 323.39 854.133C324.811 851.305 328.569 842.764 328.093 845.878C327.73 848.255 326.061 851.02 325.071 853.073C321.819 859.823 318.457 866.521 315.07 873.206C312.837 877.613 307.093 891.236 308.633 886.553C311.301 878.436 315.482 870.808 318.506 862.813C322.532 852.171 327.462 847.428 337.855 854.446C349.86 862.552 326.588 870.623 320.21 872.04C318.649 872.387 328.488 869.468 330.187 869.053C332.724 868.433 339.741 867.946 341.728 865.911C344.548 863.022 325.759 855.802 325.884 853.326C326.001 851.009 337.113 853.555 337.319 856.924C337.353 857.485 336.223 856.679 335.664 856.629C334.273 856.506 334.667 857.7 335.157 858.355C336.513 860.169 340.225 863.316 337.095 864.81C329.332 868.514 307.271 881.86 314.205 876.744C315.246 875.977 321.491 873.7 321.654 872.369C321.694 872.045 326.057 876.921 326.536 877.495C330.246 881.937 333.636 886.672 336.971 891.402C341.506 897.835 328.387 878.186 323.608 871.935C321.594 869.302 327.493 877.326 329.729 879.771C333.781 884.201 338.212 888.292 342.506 892.484" stroke="#4CA4DA" stroke-width="4" stroke-linecap="round"/>
<path d="M372.486 853.45C378.493 847.897 369.826 856.9 368.322 858.271C365.404 860.933 361.591 863.72 359.408 867.095C357.33 870.307 364.55 868.963 365.635 868.854C370.445 868.374 378.178 865.737 382.902 867.196C384.087 867.563 382.267 869.057 381.36 868.776" stroke="#4CA4DA" stroke-width="4" stroke-linecap="round"/>
<path d="M379.659 868.286C380.242 867.853 380.814 867.402 381.409 866.985C382.4 866.291 382.714 866.104 381.715 867.224C378.735 870.567 375.467 873.708 372.331 876.899C365.332 884.022 358.207 891.07 350.721 897.687C348.535 899.618 342.923 905.605 343.6 902.77C343.948 901.314 346.489 899.103 347.263 898.342C352.728 892.971 358.683 888.064 364.553 883.147C370.413 878.239 376.38 873.857 381.727 868.379C385.187 864.835 383.618 864.635 378.444 865.415C372.343 866.336 366.739 868.599 360.802 870.098C357.559 870.917 361.065 867.581 361.921 866.617C365.034 863.118 368.456 859.862 371.726 856.511C372.955 855.253 375.058 852.07 376.872 851.485C380.266 850.39 371.917 857.595 378.294 853.776C379.617 852.983 390.586 846.968 384.397 850.165" stroke="#4CA4DA" stroke-width="4" stroke-linecap="round"/>
<path d="M232.855 882.647C256.95 886.019 280.952 889.206 304.386 895.714C320.675 900.238 336.89 905.286 352.859 910.787C366.472 915.476 379.254 921.893 392.677 926.953C394.549 927.658 400.08 929.386 398.073 929.562C394.827 929.848 390.9 931.588 387.607 932.268C369.774 935.953 352.456 937.364 334.346 936.068C333.982 936.042 318.315 933.847 324.046 933.139C329.204 932.502 334.591 932.005 339.782 931.835C345.218 931.656 339.608 932.398 337.484 932.61C333.159 933.042 328.569 932.558 324.226 932.469C319.344 932.37 333.925 930.854 338.81 930.766C353.744 930.494 368.603 931.018 383.545 929.993C384.835 929.905 396.064 929.492 393.582 925.662C392.602 924.149 390.025 923.632 388.489 923.106C382.529 921.064 376.45 919.504 370.314 918.044C343.53 911.67 316.892 904.9 290.227 898.075C277.267 894.758 238.332 885.263 250.975 889.587C253.389 890.413 255.9 891.42 258.487 891.365" stroke="#4CA4DA" stroke-width="4" stroke-linecap="round"/>
<path d="M96.9245 381.488C99.5402 380.771 122.696 374.595 109.133 380.859C92.1085 388.721 74.2898 395.624 56.629 401.915C55.3703 402.363 36.8962 408.661 39.3499 409.319C49.7355 412.105 61.4093 410.925 72.0688 412.89C74.5143 413.341 87.2989 414.958 77.0994 412.938C65.8183 410.704 54.0462 409.16 42.5444 408.63C31.5833 408.126 52.0144 411.984 53.5162 412.306C64.0274 414.555 75.1582 418.078 85.8354 419.186C95.1884 420.157 69.2678 422.025 68.7192 425.983C68.0736 430.641 107.245 417.207 93.6055 428.429C85.6032 435.013 61.8497 443.69 85.2105 441.226C90.5905 440.658 97.7536 437.514 103.145 438.96C104.804 439.405 89.9091 446.251 88.4866 446.904C87.2881 447.454 72.9142 454.808 74.8796 455.781C82.1844 459.395 92.103 457.334 99.688 456.091C114.656 453.638 85.2021 462.322 82.0351 463.069C80.4787 463.437 73.8566 463.721 76.912 463.973C91.1549 465.147 105.535 468.868 119.489 471.734C140.187 475.985 161.27 480.088 180.899 488.127C194.993 493.898 169.787 487.199 167.207 486.406C144.098 479.299 119.541 474.982 97.3563 465.39C94.6396 464.215 91.4017 462.149 96.7417 463.435C112.461 467.223 128.737 469.176 144.168 474.043C146.942 474.918 157.78 477.639 157.371 477.585C143.157 475.692 129.33 471.575 115.043 469.809C114.229 469.708 93.4064 466.727 99.222 469.958C112.065 477.092 128.602 479.683 142.502 484.496" stroke="#FF3D3D" stroke-width="3" stroke-linecap="round"/>
<path d="M38.9775 823.009C39.1245 813.9 40.5532 818.396 42.6998 825.009C49.5063 845.981 54.796 867.638 59.6998 889.121C61.9633 899.037 64.4023 908.954 66.5331 918.898C67.3413 922.67 66.1048 920.888 64.9775 919.009" stroke="#4CA4DA" stroke-width="3" stroke-linecap="round"/>
<path d="M55.9775 867.01C46.1901 827.544 35.3494 788.322 24.9775 749.01" stroke="#4CA4DA" stroke-width="3" stroke-linecap="round"/>
<path d="M10.9775 712.01C10.5786 711.123 8.40895 704.342 10.6441 707.788C18.9125 720.535 25.8183 734.301 32.533 747.899C41.1037 765.254 49.0189 783.412 58.9775 800.01" stroke="#4CA4DA" stroke-width="3" stroke-linecap="round"/>
<path d="M59.9775 920.01C41.0454 867.946 28.6307 815.25 20.6998 760.343C15.4707 724.142 8.4121 687.528 5.97754 651.01" stroke="#4CA4DA" stroke-width="3" stroke-linecap="round"/>
<path d="M3.97754 643.01C8.78768 691.913 18.7091 740.196 29.5331 788.065C35.4398 814.188 42.236 839.762 50.8664 865.121C54.4503 875.652 59.3808 886.42 61.7553 897.343C66.8409 920.737 45.5963 852.21 39.4775 829.065C27.8186 784.964 19.4728 739.981 11.9775 695.01" stroke="#4CA4DA" stroke-width="3" stroke-linecap="round"/>
<path d="M1.97754 636.01C7.03796 668.754 12.5263 700.459 22.9775 732.01C33.9202 765.044 47.7849 797.682 65.922 827.454C75.2035 842.69 61.0476 811.196 60.5886 810.176C52.3721 791.917 44.5298 773.547 36.9775 755.01" stroke="#4CA4DA" stroke-width="3" stroke-linecap="round"/>
<path d="M28.9777 719.01C26.0558 716.413 27.6938 725.099 27.6999 725.177C29.3467 746.219 32.0986 767.325 36.8666 787.899C42.8581 813.752 50.8672 839.444 60.0333 864.343C62.4553 870.922 64.8365 877.488 68.9777 883.01" stroke="#FF3D3D" stroke-width="3" stroke-linecap="round"/>
<path d="M46.9775 779.01C44.3312 773.938 43.2669 767.792 41.7553 762.343C37.7877 748.04 33.5912 733.81 29.422 719.565C24.2478 701.887 19.9062 684.332 17.9775 666.01" stroke="#FF3D3D" stroke-width="3" stroke-linecap="round"/>
<path d="M17.9775 663.01C24.4488 709.603 39.4896 754.199 55.9775 798.01" stroke="#FF3D3D" stroke-width="3" stroke-linecap="round"/>
<path d="M274.003 242.393C280.739 256.658 287.957 270.698 294.093 285.232C298.745 296.248 286.23 262.644 282.082 251.429C279.898 245.525 275.438 233.8 280.593 247.921C286.32 263.606 292.949 279.103 297.92 295.011" stroke="#4CA4DA" stroke-width="3" stroke-linecap="round"/>
<path d="M287.396 270.137C284.802 271.002 294.855 250.076 296.963 247.177" stroke="#4CA4DA" stroke-width="3" stroke-linecap="round"/>
<path d="M287.397 234.74C287.232 234.539 285.54 232.135 286.121 231.976C287.978 231.47 293.643 243.128 294.147 244.041C299.707 254.118 303.461 265.725 310.357 274.92" stroke="#4CA4DA" stroke-width="3" stroke-linecap="round"/>
<path d="M303.661 231.869C303.779 229.157 304.293 229.776 305.255 232.507C307.824 239.796 309.485 247.386 311.527 254.83C312.911 259.875 314.23 270.183 318.011 273.963" stroke="#4CA4DA" stroke-width="3" stroke-linecap="round"/>
<path d="M301.747 227.086C296.562 221.901 312.652 236.901 318.33 241.543C324.296 246.421 330.718 250.317 336.188 255.787" stroke="#4CA4DA" stroke-width="3" stroke-linecap="round"/>
<path d="M320.881 260.57C314.77 259.212 326.389 236.71 327.578 233.783" stroke="#4CA4DA" stroke-width="3" stroke-linecap="round"/>
<path d="M315.003 186.011C318.533 195.848 321.854 205.675 324.846 215.673C325.428 217.619 326.003 219.391 327.003 221.011" stroke="#4CA4DA" stroke-width="3" stroke-linecap="round"/>
<path d="M320.003 209.011C320.846 204.517 323.523 200.731 326.003 197.011" stroke="#4CA4DA" stroke-width="3" stroke-linecap="round"/>
<path d="M325.556 181.589C324.872 181.349 324.861 180.375 325.313 181.665C327.093 186.733 328.048 192.073 329.351 197.256C331.005 203.84 332.466 210.669 335.003 217.011" stroke="#4CA4DA" stroke-width="3" stroke-linecap="round"/>
<path d="M337.003 181.011C338.565 191.813 338.225 203.508 341.003 214.011" stroke="#4CA4DA" stroke-width="3" stroke-linecap="round"/>
<path d="M336.003 175.271C336.623 174.039 337.613 177.517 338.311 178.707C341.186 183.611 343.896 188.567 346.388 193.675C349.168 199.376 351.765 205.087 354.003 211.011" stroke="#4CA4DA" stroke-width="3" stroke-linecap="round"/>
<path d="M340.003 203.011C340.315 200.848 341.737 199.205 342.957 197.491C346.906 191.946 350.98 186.497 355.003 181.011" stroke="#4CA4DA" stroke-width="3" stroke-linecap="round"/>
<path d="M177.566 719.205C185.9 732.226 180.016 723.192 170.566 720.316C154.145 715.318 164.634 722.736 174.455 725.094C175.119 725.253 186.919 727.848 186.677 726.76C185.856 723.065 167.87 719.814 164.677 719.427C158.586 718.689 153.418 720.425 147.566 721.205C142.771 721.844 156.567 724.876 160.677 727.427C165.715 730.554 192.296 748.382 171.566 740.76C162.044 737.26 140.586 725.076 155.122 742.316C155.818 743.142 165.389 751.815 165.233 752.205C164.239 754.689 149.115 749.345 146.455 749.205C140.281 748.88 143.583 750.965 147.122 753.649C157.988 761.892 169.766 768.461 181.566 775.205" stroke="#FF3D3D" stroke-width="3" stroke-linecap="round"/>
<path d="M157.566 723.205C155.264 722.744 152.45 720.906 151.899 718.427C151.395 716.158 166.137 717.287 166.899 717.316C182.678 717.911 230.023 719.205 214.232 719.205C199.659 719.205 185.019 719.66 170.455 719.205C150.749 718.589 210.169 720.731 229.566 717.205" stroke="#FF3D3D" stroke-width="3" stroke-linecap="round"/>
<path d="M186.942 583.955C184.259 600.169 182.187 616.787 178.749 632.493C176.144 644.397 185.71 609.961 188.931 598.501C190.626 592.468 193.874 580.348 189.754 594.702C185.177 610.646 181.595 627.489 176.144 642.721" stroke="#FF3D3D" stroke-width="3" stroke-linecap="round"/>
<path d="M182.006 615.819C178.938 613.434 202.162 612.007 206.073 612.612" stroke="#FF3D3D" stroke-width="3" stroke-linecap="round"/>
<path d="M204.839 594.332C204.809 594.025 204.722 590.668 205.387 591.224C207.51 592.999 205.472 606.43 205.37 607.549C204.25 619.903 200.395 631.158 201.137 644.476" stroke="#FF3D3D" stroke-width="3" stroke-linecap="round"/>
<path d="M222.445 610.854C224.308 609.34 224.406 610.292 223.576 613.029C221.36 620.336 218.071 626.805 215.246 633.614C213.33 638.229 207.958 645.966 209.178 652.502" stroke="#FF3D3D" stroke-width="3" stroke-linecap="round"/>
<path d="M223.678 605.804C222.006 596.84 227.899 623.994 230.398 633.179C233.025 642.832 236.725 652.4 238.489 661.856" stroke="#FF3D3D" stroke-width="3" stroke-linecap="round"/>
<path d="M220.593 647.591C215.556 639.911 241.313 639.285 244.351 638.842" stroke="#FF3D3D" stroke-width="3" stroke-linecap="round"/>
<path d="M262.981 595.716C260.051 605.646 256.926 615.337 253.372 624.762C252.68 626.597 252.093 628.317 252.016 630.421" stroke="#FF3D3D" stroke-width="3" stroke-linecap="round"/>
<path d="M252.983 615.286C256.697 613.503 261.729 614.208 266.529 614.732" stroke="#FF3D3D" stroke-width="3" stroke-linecap="round"/>
<path d="M276.043 604.87C275.537 603.957 276.154 603.353 275.76 604.644C274.213 609.716 271.693 614.029 269.609 618.637C266.964 624.488 263.972 630.273 262.336 636.968" stroke="#FF3D3D" stroke-width="3" stroke-linecap="round"/>
<path d="M287.492 617.357C282.036 625.667 274.164 632.385 270.077 641.876" stroke="#FF3D3D" stroke-width="3" stroke-linecap="round"/>
<path d="M290.227 612.752C291.621 612.7 290.336 615.921 290.243 617.426C289.863 623.628 289.288 629.676 288.404 635.571C287.417 642.15 286.246 648.531 284.59 654.636" stroke="#FF3D3D" stroke-width="3" stroke-linecap="round"/>
<path d="M276.204 634.077C277.901 633.114 280.336 633.712 282.623 634.041C290.021 635.104 297.477 636.366 304.908 637.547" stroke="#FF3D3D" stroke-width="3" stroke-linecap="round"/>
<path d="M37.9772 807.01C37.365 806.551 37.6253 806.671 38.0883 808.344C40.2339 816.096 42.7563 823.759 45.0883 831.455C50.8069 850.326 55.6194 869.337 60.4216 888.455C64.5265 904.796 78.5589 953.164 71.9216 937.677C69.5591 932.165 68.5764 925.437 69.6438 919.566C72.0173 906.512 75.4266 893.632 78.9216 880.844C81.3559 871.936 85.2894 862.637 86.8105 853.51C90.7427 829.917 76.2539 900.168 71.0327 923.51C69.2291 931.574 69.4364 930.351 67.6994 937.677C67.3913 938.976 66.8406 944.641 65.7549 946.121C64.338 948.054 65.1055 941.349 65.1994 938.955C65.5432 930.188 66.9556 921.496 68.6438 912.899C71.3947 898.892 74.5612 884.665 79.3105 871.177C83.4298 859.478 78.2442 875.038 77.4216 877.733C72.6423 893.389 68.6664 908.875 65.9772 925.01" stroke="#4CA4DA" stroke-width="3" stroke-linecap="round"/>
<path d="M81.9775 855.01C100.625 899.36 119.115 943.849 139.089 987.621C139.7 988.962 146.131 1002.09 141.422 993.121C131.918 975.019 123.334 956.651 114.978 938.01" stroke="#4CA4DA" stroke-width="3" stroke-linecap="round"/>
<path d="M92.9776 864.009C92.9177 863.8 91.3725 859.363 91.2554 859.509C89.2782 861.981 97.3668 880.916 97.9221 882.565C108.517 914.032 122.332 944.028 134.422 974.898C137.141 981.84 139.606 988.875 142.255 995.843C143.09 998.038 145.916 1004 143.978 1002.68C136.515 997.57 132.348 985.013 128.978 977.009" stroke="#4CA4DA" stroke-width="3" stroke-linecap="round"/>
<path d="M149.977 1015.01C149.977 1022.1 150.648 1000.83 151.422 993.786C153.908 971.121 156.647 948.268 162.199 926.119C163.296 921.746 164.929 910.361 168.422 906.619C172.082 902.697 166.799 917.239 165.533 922.452C158.962 949.507 153.705 976.742 147.644 1003.9C147.262 1005.61 146.855 1007.31 146.422 1009.01C146.085 1010.32 146.313 1013.68 145.199 1012.9C144.774 1012.6 145.088 1011.86 145.088 1011.34C145.088 1007.47 145.463 1000.34 145.644 997.23C146.99 974.105 150.773 951.921 157.199 929.675C158.191 926.242 159.788 916.124 160.755 919.563C161.886 923.585 159.304 933.037 158.811 936.397C155.931 955.997 153.977 975.194 153.977 995.008" stroke="#4CA4DA" stroke-width="3" stroke-linecap="round"/>
<path d="M167.978 912.008C166.43 910.073 165.034 907.859 164.089 905.563C162.735 902.277 168.317 911.31 169.978 914.452C192.989 958.003 210.344 1004.3 232.755 1048.17C241.514 1065.32 272.525 1114.02 261.2 1098.45C235.692 1063.38 216.888 1025.32 198.978 986.008" stroke="#4CA4DA" stroke-width="3" stroke-linecap="round"/>
<path d="M171.977 911.009C174.874 911.588 174.174 916.496 175.144 919.287C181.212 936.747 188.003 953.941 194.533 971.231C212.316 1018.31 230.257 1065.24 249.422 1111.79C254.282 1123.59 259.042 1135.42 263.311 1147.45C263.319 1147.48 269.284 1165.92 266.977 1163.9C258.159 1156.17 251.839 1143.07 246.2 1133.12C239.898 1122 234.473 1110.52 228.977 1099.01" stroke="#4CA4DA" stroke-width="3" stroke-linecap="round"/>
<path d="M184.977 943.009C185.654 936.577 190.415 945.552 191.2 947.009C203.086 969.084 210.854 994.252 219.088 1017.79C236.155 1066.56 253.816 1116.69 260.977 1168.01" stroke="#4CA4DA" stroke-width="3" stroke-linecap="round"/>
<path d="M45.9774 855.009C45.9774 855.009 28.3051 777.32 18.644 738.676C16.3821 729.628 13.5864 720.477 12.1996 711.232C11.9651 709.668 12.8662 707.88 12.8662 709.454C12.8662 713.402 18.2384 721.138 19.9218 724.398C33.582 750.854 47.6843 777.023 62.4218 802.898C67.1637 811.224 83.0676 835.187 77.8107 827.176C65.5259 808.456 52.9889 789.928 40.9774 771.009" stroke="#4CA4DA" stroke-width="3" stroke-linecap="round"/>
<path d="M79.9774 817.01C77.2751 819.562 75.7498 820.117 76.4218 815.455C77.439 808.398 79.274 801.375 80.9774 794.455C84.2606 781.117 62.6819 845.863 69.8107 834.121C76.2829 823.461 79.1593 810.144 83.9774 798.677C86.8634 791.808 94.6749 770.922 92.7552 778.121C88.2926 794.856 78.4128 809.704 72.9774 826.01" stroke="#4CA4DA" stroke-width="3" stroke-linecap="round"/>
<path d="M88.9775 764.009C89.1007 763.722 92.8685 776.007 93.1442 777.12C99.1891 801.515 107.103 825.565 115.366 849.287C121.205 866.048 127.883 882.383 135.644 898.342C139.573 906.42 138.879 905.262 135.978 898.009" stroke="#4CA4DA" stroke-width="3" stroke-linecap="round"/>
<path d="M84.9775 769.01C98.082 802.59 113.154 835.255 128.033 868.065C128.947 870.08 134.217 880.981 129.033 872.51C117.838 854.216 109.701 832.888 102.978 812.621C98.7546 799.891 96.1572 786.98 93.9775 773.788C92.3884 764.169 97.4645 782.208 97.6442 782.788C107.128 813.385 118.987 842.781 131.978 872.01" stroke="#4CA4DA" stroke-width="3" stroke-linecap="round"/>
<path d="M144.977 871.01C143.482 873.477 140.448 881.434 140.755 878.565C141.821 868.616 148.16 856.942 151.977 847.843C155.146 840.291 158.602 832.751 162.755 825.676C164.822 822.155 159.064 832.962 157.144 836.565C152.227 845.794 146.933 854.771 141.644 863.788C138.777 868.675 131.388 883.813 132.866 878.343C138.338 858.096 151.468 839.274 162.977 822.01" stroke="#4CA4DA" stroke-width="3" stroke-linecap="round"/>
<path d="M152.977 806.01C186.927 855.511 218.998 906.206 255.644 953.788C275.697 979.825 296.167 1005.58 316.977 1031.01" stroke="#4CA4DA" stroke-width="3" stroke-linecap="round"/>
<path d="M312.977 1029.01C293.005 1004.88 273.382 980.568 253.977 956.009" stroke="#4CA4DA" stroke-width="3" stroke-linecap="round"/>
<path d="M158.977 812.009C180.703 848.148 202.017 884.524 223.533 920.787C251.235 967.476 282.152 1011.53 316.755 1053.34C322.07 1059.76 328.123 1066.01 332.866 1072.9C337.59 1079.76 320.451 1061.75 314.811 1055.62C273.715 1010.95 239.308 961.467 210.977 907.787C195.106 877.716 177.393 847.171 164.644 815.565C164.163 814.372 163.161 810.712 163.866 811.787C171.751 823.802 178.487 836.785 185.644 849.231C216.999 903.762 246.865 958.681 282.755 1010.45C296.525 1030.32 311.627 1049.39 324.533 1069.84C327.993 1075.33 329.977 1078.88 329.977 1085.01" stroke="#4CA4DA" stroke-width="3" stroke-linecap="round"/>
<path d="M270.978 1148C268.739 1142.96 272.897 1135.84 274.755 1131.45C283.261 1111.31 293.687 1091.98 304.589 1073.06C309.686 1064.21 312.474 1059.57 317.922 1051.11C317.971 1051.04 325.771 1037.26 327.866 1036.78C329.868 1036.32 326.154 1040.52 325.2 1042.33C320.202 1051.86 314.898 1061.22 309.644 1070.61C289.117 1107.29 270.401 1145.07 257.089 1185C250.916 1203.52 268.034 1147.47 275.255 1129.33C287.597 1098.34 303.036 1067.45 323.089 1040.67C326.054 1036.71 332.803 1028.69 336.755 1024.89C338.225 1023.48 341.647 1020.15 342.2 1022.11C342.734 1024.01 339.228 1032.6 339.2 1032.67C333.475 1046.6 326.418 1060.1 319.589 1073.5C305.919 1100.32 291.463 1126.85 275.422 1152.33C274.91 1153.15 268.37 1163.45 266.311 1165.33C263.127 1168.25 265.271 1156.59 266.255 1152.39C271.127 1131.61 279.745 1111.98 289.922 1093.28C297.314 1079.7 303.714 1069.25 312.478 1056.45C320.312 1045 330.102 1029.02 342.311 1021.22C355.518 1012.79 340.02 1061.06 339.7 1062.06C328.383 1097.33 314.483 1131.55 300.978 1166" stroke="#4CA4DA" stroke-width="3" stroke-linecap="round"/>
<path d="M13.9773 655.01C8.07646 638.619 22.0661 688.95 27.644 705.454C39.1595 739.527 53.5056 772.523 68.8662 805.01C69.8293 807.047 70.7474 809.106 71.7551 811.121C72.0596 811.73 71.2621 809.851 70.9773 809.232C64.9116 796.058 59.0722 782.814 53.4217 769.454C36.9176 730.432 21.4758 691.481 8.97729 651.01" stroke="#4CA4DA" stroke-width="3" stroke-linecap="round"/>
<path d="M5.9771 639.01C5.5348 638.125 10.1869 652.639 10.866 654.676C15.9366 669.888 21.1419 685.059 26.6438 700.121C40.4361 737.878 54.9066 775.593 73.9771 811.01" stroke="#4CA4DA" stroke-width="3" stroke-linecap="round"/>
<path d="M79.9775 819.009C84.2408 799.398 85.4029 779.78 91.3109 760.454C92.0881 757.911 94.7249 750.382 93.8664 752.898C89.1446 766.738 83.6662 780.321 78.5331 794.009C74.1447 805.712 70.0097 817.461 66.3109 829.398C66.0248 830.321 65.1692 833.077 65.3109 832.12C65.6893 829.566 66.9353 824.71 67.422 822.898C71.0229 809.495 76.1571 796.82 82.1998 784.342C85.0509 778.455 87.8379 771.977 91.9775 767.009" stroke="#4CA4DA" stroke-width="3" stroke-linecap="round"/>
<path d="M94.9773 764.009C94.5028 763.235 91.5161 756.676 91.0884 756.676C89.155 756.676 92.4104 760.31 93.0884 762.12C95.0497 767.358 98.5125 776.582 100.311 781.342C113.748 816.916 128.144 852.003 142.977 887.009" stroke="#4CA4DA" stroke-width="3" stroke-linecap="round"/>
<path d="M72.9775 944.01L82.9775 879.01" stroke="#4CA4DA" stroke-width="3" stroke-linecap="round"/>
<path d="M81.9775 864.011C102.527 910.063 124.676 954.03 150.978 997.011" stroke="#4CA4DA" stroke-width="3" stroke-linecap="round"/>
<path d="M162.978 1014.01C161.77 995.66 160.059 977.452 163.422 959.231C165.936 945.609 169.493 931.892 173.978 918.787C176.246 912.157 178.897 905.526 181.755 899.12C183.263 895.742 181.625 902.509 181.533 902.953C178.85 915.985 187.957 931.869 192.978 943.12C211.762 985.215 230.526 1027.35 247.978 1070.01" stroke="#4CA4DA" stroke-width="3" stroke-linecap="round"/>
<path d="M19.9773 696.01C27.6592 738.667 35.0288 781.49 45.3106 823.621C54.0981 859.628 65.9178 894.374 78.9773 929.01" stroke="#FF3D3D" stroke-width="3" stroke-linecap="round"/>
<path d="M33.9773 721.01C36.3189 725.693 36.0798 733.775 37.1995 738.788C40.8155 754.976 48.2388 770.274 55.1995 785.232C61.8568 799.538 68.9625 813.664 76.5329 827.51C79.5711 833.067 83.1288 841.4 88.5329 845.343C90.6417 846.882 89.976 840.624 89.9773 840.454C90.0586 829.722 90.2413 819.338 92.2551 808.732C95.5418 791.422 101.141 773.765 110.977 759.01" stroke="#FF3D3D" stroke-width="3" stroke-linecap="round"/>
<path d="M83.9775 841.01C84.8541 819.973 84.6805 793.455 96.9775 775.01" stroke="#FF3D3D" stroke-width="3" stroke-linecap="round"/>
<path d="M90.9775 824.01V833.01" stroke="#FF3D3D" stroke-width="3" stroke-linecap="round"/>
<path d="M99.9775 776.01C105.295 815.144 118.491 854.302 140.978 887.01" stroke="#FF3D3D" stroke-width="3" stroke-linecap="round"/>
<path d="M95.9775 784.01C102.079 810.26 106.598 838.177 117.866 862.899C122.76 873.636 129.156 883.763 134.978 894.01" stroke="#FF3D3D" stroke-width="3" stroke-linecap="round"/>
<path d="M143.977 905.01C147.41 887.53 148.671 865.847 157.2 849.566C158.214 847.629 157.144 853.941 156.977 856.121C156.211 866.144 156.773 875.985 156.977 886.01" stroke="#FF3D3D" stroke-width="3" stroke-linecap="round"/>
<path d="M180.977 918.009C193.445 953.959 205.137 990.003 220.2 1025.01C237.034 1064.13 257.595 1100.85 279.977 1137.01" stroke="#FF3D3D" stroke-width="3" stroke-linecap="round"/>
<path d="M269.978 1122C279.296 1104.85 285.392 1086.06 295.422 1069.28C296.867 1066.86 299.002 1062.4 301.533 1060.67C304.412 1058.7 301.833 1067.76 300.867 1071.11C296.202 1087.29 287.962 1103.1 279.811 1117.78C278.703 1119.77 275.709 1125.02 278.033 1118.22C281.221 1108.89 284.949 1099.68 288.811 1090.61C291.203 1084.99 298.635 1068.3 296.756 1074.11C292.882 1086.08 288.855 1098.08 286.2 1110.39C285.384 1114.17 281.82 1129.32 286.644 1117.22C293.706 1099.51 301.166 1082.35 310.978 1066" stroke="#FF3D3D" stroke-width="3" stroke-linecap="round"/>
<path d="M91.9775 869.011L146.978 979.011" stroke="#FF3D3D" stroke-width="3" stroke-linecap="round"/>
<path d="M13.5627 371.824C39.7487 362.501 65.0113 352.988 89.3657 339.41C114.865 325.193 139.578 308.631 161.257 288.999C172.351 278.953 148.627 295.575 147.859 296.113C134.106 305.758 120.202 315.112 106.115 324.253" stroke="#4CA4DA" stroke-width="3" stroke-linecap="round"/>
<path d="M15.4052 368.056C14.7459 368.56 25.9739 362.442 27.5458 361.562C39.2829 354.989 50.9651 348.312 62.5107 341.408C91.4536 324.099 120.255 306.239 146.438 284.95" stroke="#4CA4DA" stroke-width="3" stroke-linecap="round"/>
<path d="M19.0161 369.074C58.5574 357.413 96.7832 341.638 134.526 325.185C155.123 316.206 175.127 306.58 194.665 295.477C202.779 290.866 210.877 285.108 219.504 281.432C237.981 273.56 184.856 301.852 166.747 310.537C132.24 327.086 96.4862 341.043 60.6073 354.297" stroke="#4CA4DA" stroke-width="3" stroke-linecap="round"/>
<path d="M238.462 279.331C198.539 303.126 157.069 321.65 113.072 336.828C84.0631 346.835 55.0028 358.414 25.2932 366.168" stroke="#4CA4DA" stroke-width="3" stroke-linecap="round"/>
<path d="M27.3315 358.945C14.7532 366.387 54.0269 346.937 66.7489 339.743C93.0137 324.891 117.946 307.876 142.299 290.105C143.826 288.99 145.378 287.91 146.88 286.762C147.334 286.415 145.911 287.368 145.446 287.7C135.545 294.772 125.55 301.669 115.43 308.428C85.8719 328.17 56.2054 347.025 24.8223 363.694" stroke="#4CA4DA" stroke-width="3" stroke-linecap="round"/>
<path d="M33.2925 354.392C70.6685 341.726 105.05 322.312 138.558 301.83" stroke="#FF3D3D" stroke-width="3" stroke-linecap="round"/>
<path d="M124.319 312.234C120.556 315.213 115.659 317.058 111.407 319.161C100.245 324.682 89.1795 330.379 78.0972 336.057C64.3437 343.103 50.5613 349.444 35.7664 353.917" stroke="#FF3D3D" stroke-width="3" stroke-linecap="round"/>
<path d="M60.1721 347.547C94.1144 334.503 128.243 321.69 161.342 306.586C189.63 293.677 216.402 278.469 242.888 262.256" stroke="#FF3D3D" stroke-width="3" stroke-linecap="round"/>
<path d="M74.7731 352.445C74.1055 352.913 68.8585 355.769 71.3463 353.384C80.5491 344.565 90.8066 336.707 100.954 329.034C113.907 319.239 127.624 309.859 139.734 299.04" stroke="#4CA4DA" stroke-width="3" stroke-linecap="round"/>
<path d="M187.103 301.098C187.103 301.098 125.866 327.888 95.5414 341.932C88.4417 345.22 81.3406 348.964 73.9403 351.562C72.6891 352.001 71.0738 351.54 72.3704 351.292C75.6236 350.671 81.1531 345.026 83.5748 343.126C103.226 327.705 122.57 311.966 141.573 295.749C147.687 290.531 164.931 273.654 159.157 279.246C145.665 292.316 132.369 305.563 118.67 318.439" stroke="#4CA4DA" stroke-width="3" stroke-linecap="round"/>
<path d="M77.7086 336.513C76.0282 339.329 82.9281 336.612 82.9913 336.595C100.072 331.926 117.031 326.336 133.234 319.169C153.595 310.163 173.507 299.519 192.582 288.047C197.622 285.016 202.658 282.02 206.556 277.738" stroke="#FF3D3D" stroke-width="3" stroke-linecap="round"/>
<path d="M78.5706 332.078C82.0612 329.411 88.7584 328.336 92.7131 326.625C105.484 321.097 116.922 312.572 128.152 304.482C138.893 296.744 149.415 288.666 159.633 280.248C163.734 276.87 170.041 272.627 172.44 267.553C173.376 265.573 168.324 267.106 168.184 267.132C159.327 268.754 150.742 270.238 141.685 270.248C126.903 270.264 111.472 268.429 97.765 262.646" stroke="#FF3D3D" stroke-width="3" stroke-linecap="round"/>
<path d="M195.418 290.968C164.437 305.245 133.823 320.352 103.06 335.086" stroke="#4CA4DA" stroke-width="3" stroke-linecap="round"/>
<path d="M152.086 278.747C135.255 278.32 118.905 280.451 102.05 278.624C99.8325 278.384 93.2131 277.396 95.4217 277.707C107.569 279.42 119.625 281.796 131.712 283.872C142.046 285.646 152.379 287.204 162.798 288.374C163.604 288.464 166.009 288.735 165.199 288.769C163.034 288.859 158.836 288.597 157.267 288.481C145.655 287.623 134.403 285.387 123.17 282.372C117.869 280.949 112.092 279.672 107.347 277.043" stroke="#4CA4DA" stroke-width="3" stroke-linecap="round"/>
<path d="M104.402 275.042C103.839 275.554 98.9038 279.048 98.9711 279.4C99.2754 280.994 101.757 277.739 103.143 276.895C107.151 274.455 114.206 270.15 117.846 267.919C145.045 251.247 171.693 233.861 198.205 216.128" stroke="#4CA4DA" stroke-width="3" stroke-linecap="round"/>
<path d="M105.347 279.985C105.091 279.928 114.622 274.89 115.496 274.487C134.647 265.667 153.22 255.36 171.467 244.817C184.359 237.367 196.769 229.294 208.699 220.386C214.737 215.877 213.892 216.632 208.372 220.164" stroke="#4CA4DA" stroke-width="3" stroke-linecap="round"/>
<path d="M110.096 282.494C135.705 266.41 160.251 248.849 184.946 231.424C186.462 230.354 194.615 224.295 188.451 229.9C175.138 242.005 158.844 252.067 143.201 260.797C133.375 266.281 123.145 270.453 112.617 274.326C104.941 277.149 119.007 270.127 119.456 269.888C143.177 257.257 165.534 242.858 187.575 227.553" stroke="#4CA4DA" stroke-width="3" stroke-linecap="round"/>
<path d="M169.585 271.988C152.111 274.577 130.287 278.893 113.152 271.663" stroke="#FF3D3D" stroke-width="3" stroke-linecap="round"/>
<path d="M113.503 269.034C144.915 258.493 175.105 241.456 198.519 217.778" stroke="#FF3D3D" stroke-width="3" stroke-linecap="round"/>
<path d="M150.438 279.06C152.967 280.885 153.663 282.055 149.716 282.235C143.741 282.508 137.665 282.101 131.694 281.786C120.186 281.18 176.936 288.771 166.139 284.745C156.336 281.089 144.909 280.815 134.701 278.65C128.587 277.353 110.147 274.203 116.381 274.652C130.873 275.695 144.664 281.5 158.956 283.412" stroke="#4CA4DA" stroke-width="3" stroke-linecap="round"/>
<path d="M120.726 271.071C141.397 261.912 163.69 253.794 182.289 240.617C190.366 234.894 197.705 228.031 205.232 221.62" stroke="#FF3D3D" stroke-width="3" stroke-linecap="round"/>
<path d="M129.884 220.637C165.331 184.869 202.059 150.463 235.5 112.776C253.8 92.1527 271.798 71.2316 289.481 50.08" stroke="#4CA4DA" stroke-width="3" stroke-linecap="round"/>
<path d="M148.807 315.246C148.525 315.822 148.583 315.589 149.889 314.944C155.939 311.956 161.857 308.671 167.832 305.538C182.482 297.856 197.391 290.898 212.389 283.932C225.209 277.977 262.857 258.801 251.14 266.708C246.969 269.522 241.58 271.391 236.574 271.435C225.444 271.534 214.294 270.752 203.205 269.885C195.482 269.281 187.2 267.503 179.439 267.686C159.379 268.159 219.549 269.042 239.606 269.67C246.534 269.887 245.495 269.909 251.805 270.187C252.924 270.237 257.678 269.799 259.069 270.46C260.884 271.324 255.239 271.747 253.251 272.046C245.972 273.143 238.587 273.347 231.238 273.309C219.262 273.247 207.04 272.877 195.178 271.086C184.889 269.533 198.528 271.357 200.877 271.611C214.531 273.085 227.918 273.924 241.638 273.6" stroke="#4CA4DA" stroke-width="3" stroke-linecap="round"/>
<path d="M133.884 214.749C160.245 191.158 186.865 167.869 213.361 144.431C247.475 114.255 278.912 81.8439 307.92 46.7486C312.376 41.358 316.569 35.387 321.499 30.3945C326.409 25.4217 314.267 42.38 310.103 47.9924C279.762 88.8878 244.4 125.029 204.625 156.824C182.343 174.635 159.961 194.039 135.922 209.52C135.015 210.104 132.157 211.506 132.931 210.755C141.591 202.367 151.229 194.772 160.36 186.916C200.36 152.495 240.915 119.24 277.929 81.5166C292.13 67.0432 305.474 51.5958 320.293 37.7424C324.266 34.0277 326.887 31.8328 331.934 30.8688" stroke="#4CA4DA" stroke-width="3" stroke-linecap="round"/>
<path d="M161.835 311.903C154.305 313.216 157.785 311.331 162.897 308.521C179.107 299.612 196.121 291.844 213.052 284.422C220.867 280.996 228.655 277.425 236.514 274.104C239.495 272.845 238.221 274.144 236.851 275.369" stroke="#4CA4DA" stroke-width="3" stroke-linecap="round"/>
<path d="M184.705 216.999C186.974 217.843 194.008 219.091 191.596 219.289C183.229 219.976 172.612 216.591 164.513 214.877C157.792 213.454 151.034 211.793 144.551 209.484C141.324 208.335 151.135 211.379 154.407 212.394C162.786 214.994 171.016 217.943 179.279 220.882C183.757 222.475 197.394 226.182 192.655 225.825C175.109 224.502 157.532 216.645 141.494 209.878" stroke="#4CA4DA" stroke-width="3" stroke-linecap="round"/>
<path d="M154.475 268.894L161.891 267.477" stroke="#FF3D3D" stroke-width="3" stroke-linecap="round"/>
<path d="M212.881 212.471C197.936 212.394 179.87 214.767 165.111 210.302C163.356 209.771 168.726 209.659 170.548 209.453C178.928 208.507 186.949 206.495 195.178 204.749" stroke="#FF3D3D" stroke-width="3" stroke-linecap="round"/>
<path d="M181.437 271.431C215.048 249.084 248.799 226.845 281.725 203.496C282.734 202.781 292.541 195.415 285.89 200.708C272.469 211.389 258.684 221.353 244.638 231.174" stroke="#4CA4DA" stroke-width="3" stroke-linecap="round"/>
<path d="M187.122 260.95C186.958 261.032 183.546 263.004 183.685 263.078C186.033 264.318 200.363 254.672 201.634 253.955C225.897 240.272 248.441 224.166 271.976 209.345C277.269 206.012 282.678 202.873 288.002 199.593C289.68 198.56 294.15 195.292 293.362 197.099C290.329 204.052 280.638 209.462 274.573 213.499" stroke="#4CA4DA" stroke-width="3" stroke-linecap="round"/>
<path d="M188.854 270.015C223.569 245.832 256.313 220.661 287.592 192.222" stroke="#4CA4DA" stroke-width="3" stroke-linecap="round"/>
<path d="M191.4 260.988L273.388 198.353" stroke="#FF3D3D" stroke-width="3" stroke-linecap="round"/>
<path d="M256.193 264.84L201.056 266.83" stroke="#4CA4DA" stroke-width="3" stroke-linecap="round"/>
<path d="M299.71 179.658C284.78 183.541 270.045 187.816 254.501 187.913C242.88 187.985 231.017 187.213 219.512 185.58C213.691 184.754 207.81 183.614 202.081 182.267C199.06 181.556 204.894 181.841 205.275 181.846C216.436 182.006 228.092 172.002 236.573 166.094C268.304 143.989 300.072 121.895 332.478 100.8" stroke="#4CA4DA" stroke-width="3" stroke-linecap="round"/>
<path d="M214.871 191.593C213.521 193.173 211.916 194.671 210.173 195.811C207.678 197.444 214.243 191.423 216.571 189.56C248.837 163.743 284.256 142.154 316.883 116.781C329.635 106.864 364.887 73.6445 353.837 85.4282C328.95 111.968 300.55 133.453 270.971 154.4" stroke="#4CA4DA" stroke-width="3" stroke-linecap="round"/>
<path d="M302.582 190.212C308.424 189.096 290.796 191.89 284.866 192.362C265.798 193.88 246.535 195.22 227.409 194.131C223.633 193.916 213.995 194.362 210.361 192.073C206.553 189.674 219.368 191.738 223.863 191.961C247.192 193.117 270.462 193.163 293.793 193.884C295.262 193.929 296.73 193.996 298.197 194.086C299.335 194.156 302.061 193.442 301.594 194.481C301.415 194.879 300.758 194.736 300.33 194.818C297.143 195.427 291.206 196.241 288.614 196.581C269.346 199.112 250.47 199.486 231.126 197.692C228.142 197.415 219.553 197.691 222.235 196.353C225.371 194.788 233.566 195.428 236.412 195.306C253.017 194.593 269.144 193.182 285.471 190.064" stroke="#4CA4DA" stroke-width="3" stroke-linecap="round"/>
<path d="M213.418 188.454C213.44 185.976 217.594 185.78 219.741 184.542C233.174 176.794 246.274 168.491 259.494 160.389C295.494 138.324 331.342 116.154 366.679 93.0354C375.64 87.1728 384.64 81.3876 393.884 75.9766C393.902 75.9656 408.16 68.1482 406.857 70.3669C401.876 78.8498 392.076 86.1201 384.766 92.3329C376.597 99.2751 367.991 105.552 359.367 111.894" stroke="#4CA4DA" stroke-width="3" stroke-linecap="round"/>
<path d="M217.769 179.935C245.431 164.002 273.294 148.695 299.769 130.773C329.358 110.742 356.381 88.0203 382.653 63.8851" stroke="#FF3D3D" stroke-width="3" stroke-linecap="round"/>
<path d="M237.741 172.703C232.334 173.158 238.98 167.822 240.058 166.946C256.377 153.677 275.895 143.314 293.992 132.825C331.501 111.084 370.024 88.6413 411.189 74.6623" stroke="#4CA4DA" stroke-width="3" stroke-linecap="round"/>
<path d="M288.463 53.6915C271.721 73.9473 254.778 93.9435 237.594 113.8" stroke="#4CA4DA" stroke-width="3" stroke-linecap="round"/>
<path d="M393.134 69.5733C389.335 72.2111 382.814 69.9049 378.897 69.066C360.968 65.2254 343.394 59.6777 326.086 53.672C317.994 50.8638 313.727 49.2979 305.905 46.1387C305.834 46.1102 293.257 41.851 292.528 40.2C291.833 38.6233 295.877 41.0231 297.526 41.523C306.164 44.1416 314.713 47.039 323.276 49.8907C356.733 61.033 390.806 70.5108 425.81 75.1948C442.04 77.3666 393.158 72.0825 377.079 68.9862C349.597 63.6945 321.71 55.8343 296.485 43.525C292.755 41.705 285.082 37.406 281.332 34.7464C279.938 33.7575 276.657 31.461 278.186 30.6971C279.666 29.9577 287.295 31.4954 287.357 31.5079C299.737 34.0332 311.975 37.7226 324.092 41.2414C348.344 48.2845 372.477 56.0222 396.005 65.2288C396.756 65.5224 406.275 69.2901 408.152 70.6907C411.053 72.8556 401.111 72.924 397.494 72.7738C379.6 72.031 362.068 68.0186 345.059 62.5751C332.705 58.6214 323.086 54.9925 311.156 49.7857C300.493 45.1313 285.786 39.5787 277.436 30.7454C268.405 21.1905 310.622 26.3634 311.496 26.4702C342.34 30.2447 372.729 36.3125 403.245 42.0189" stroke="#4CA4DA" stroke-width="3" stroke-linecap="round"/>
<path d="M371.867 74.4885C356.272 69.5086 339.827 67.4426 324.417 61.8192C322.198 61.0093 318.185 59.9524 316.359 58.1388C314.283 56.0763 322.157 56.7753 325.071 57.0442C339.134 58.3421 353.467 62.6422 366.84 67.0499C368.658 67.6489 373.456 69.2898 367.486 68.4449C359.299 67.2861 351.116 65.6645 343.037 63.9094C338.033 62.8222 323.108 59.3255 328.19 59.9598C338.665 61.2673 349.183 62.6977 359.746 62.9482C362.992 63.0251 376.037 63.578 365.307 61.5064C349.604 58.4747 334.287 55.0281 319.268 49.5167" stroke="#FF3D3D" stroke-width="3" stroke-linecap="round"/>
<path d="M68.003 671.01C63.5532 659.607 72.1015 675.992 73.5586 678.565C78.8939 687.987 84.3943 697.216 89.003 707.01" stroke="#FF3D3D" stroke-width="4" stroke-linecap="round"/>
<path d="M61.0027 668.01C69.0838 685.281 78.2431 702.074 87.0027 719.01" stroke="#FF3D3D" stroke-width="4" stroke-linecap="round"/>
<path d="M62.0027 694.01C65.8261 702.53 69.9627 710.868 74.1138 719.232C75.0826 721.184 75.9956 725.006 78.0027 726.01" stroke="#FF3D3D" stroke-width="4" stroke-linecap="round"/>
<path d="M55.0027 703.01L75.0027 744.01" stroke="#FF3D3D" stroke-width="4" stroke-linecap="round"/>
</svg>
