<svg width="468" height="559" viewBox="0 0 468 559" fill="none" xmlns="http://www.w3.org/2000/svg">
<rect x="-0.000488281" y="166" width="105.283" height="392.653" rx="11" fill="#258D96"/>
<rect x="296" y="453.37" width="105.283" height="296" rx="12" transform="rotate(90 296 453.37)" fill="#258D96"/>
<rect x="10.3555" y="463.726" width="84.5714" height="84.5714" rx="10" fill="#55ABBC"/>
<rect x="105.282" y="463.726" width="84.5714" height="84.5714" rx="10" fill="#55ABBC"/>
<rect x="94.9263" y="273.872" width="84.5714" height="84.5714" rx="10" transform="rotate(90 94.9263 273.872)" fill="#55ABBC"/>
<rect x="94.9263" y="178.945" width="84.5714" height="84.5714" rx="10" transform="rotate(90 94.9263 178.945)" fill="#55ABBC"/>
<rect x="94.9263" y="368.799" width="84.5714" height="84.5714" rx="10" transform="rotate(90 94.9263 368.799)" fill="#55ABBC"/>
<rect x="200.21" y="463.726" width="84.5714" height="84.5714" rx="10" fill="#55ABBC"/>
<rect x="468" y="292.297" width="105" height="292.297" rx="15" transform="rotate(-180 468 292.297)" fill="#981A1A"/>
<rect x="456.778" y="10.9609" width="82.7955" height="83.8754" rx="10" transform="rotate(90 456.778 10.9609)" fill="#D05251"/>
<rect x="457.623" y="103.05" width="82.7955" height="83.8754" rx="10" transform="rotate(90 457.623 103.05)" fill="#D05251"/>
<rect x="456.778" y="195.14" width="82.7955" height="83.8754" rx="10" transform="rotate(90 456.778 195.14)" fill="#D05251"/>
<path d="M133.034 62.7273C133.034 64.2614 132.757 65.5871 132.203 66.7045C131.649 67.822 130.889 68.6837 129.923 69.2898C128.957 69.8958 127.854 70.1989 126.613 70.1989C125.373 70.1989 124.269 69.8958 123.303 69.2898C122.338 68.6837 121.578 67.822 121.024 66.7045C120.47 65.5871 120.193 64.2614 120.193 62.7273C120.193 61.1932 120.47 59.8674 121.024 58.75C121.578 57.6326 122.338 56.7708 123.303 56.1648C124.269 55.5587 125.373 55.2557 126.613 55.2557C127.854 55.2557 128.957 55.5587 129.923 56.1648C130.889 56.7708 131.649 57.6326 132.203 58.75C132.757 59.8674 133.034 61.1932 133.034 62.7273ZM131.329 62.7273C131.329 61.4678 131.118 60.4048 130.697 59.5384C130.28 58.6719 129.714 58.0161 129 57.571C128.289 57.1259 127.494 56.9034 126.613 56.9034C125.732 56.9034 124.935 57.1259 124.22 57.571C123.509 58.0161 122.944 58.6719 122.522 59.5384C122.106 60.4048 121.897 61.4678 121.897 62.7273C121.897 63.9867 122.106 65.0497 122.522 65.9162C122.944 66.7827 123.509 67.4384 124.22 67.8835C124.935 68.3286 125.732 68.5511 126.613 68.5511C127.494 68.5511 128.289 68.3286 129 67.8835C129.714 67.4384 130.28 66.7827 130.697 65.9162C131.118 65.0497 131.329 63.9867 131.329 62.7273ZM140.2 70.2273C139.177 70.2273 138.296 69.9858 137.558 69.5028C136.819 69.0199 136.251 68.3546 135.853 67.5071C135.455 66.6596 135.257 65.6913 135.257 64.6023C135.257 63.4943 135.46 62.5166 135.867 61.669C136.279 60.8168 136.852 60.1515 137.586 59.6733C138.325 59.1903 139.187 58.9489 140.171 58.9489C140.938 58.9489 141.63 59.0909 142.245 59.375C142.861 59.6591 143.365 60.0568 143.758 60.5682C144.151 61.0795 144.395 61.6761 144.49 62.358H142.813C142.686 61.8608 142.402 61.4205 141.961 61.0369C141.526 60.6487 140.938 60.4545 140.2 60.4545C139.546 60.4545 138.973 60.625 138.481 60.9659C137.993 61.3021 137.612 61.7779 137.338 62.3935C137.068 63.0043 136.933 63.7216 136.933 64.5455C136.933 65.3883 137.065 66.1222 137.33 66.7472C137.6 67.3722 137.979 67.8575 138.467 68.2031C138.959 68.5488 139.537 68.7216 140.2 68.7216C140.635 68.7216 141.031 68.6458 141.386 68.4943C141.741 68.3428 142.042 68.125 142.288 67.8409C142.534 67.5568 142.709 67.2159 142.813 66.8182H144.49C144.395 67.4621 144.16 68.0421 143.786 68.5582C143.417 69.0696 142.927 69.4768 142.316 69.7798C141.71 70.0781 141.005 70.2273 140.2 70.2273ZM146.08 60.6534V59.0909H154.944V60.6534H151.365V70H149.688V60.6534H146.08ZM160.033 70.2557C159.342 70.2557 158.714 70.1255 158.151 69.8651C157.587 69.5999 157.14 69.2188 156.808 68.7216C156.477 68.2197 156.311 67.6136 156.311 66.9034C156.311 66.2784 156.434 65.7718 156.681 65.3835C156.927 64.9905 157.256 64.6828 157.668 64.4602C158.08 64.2377 158.534 64.072 159.031 63.9631C159.533 63.8494 160.038 63.7595 160.544 63.6932C161.207 63.608 161.745 63.544 162.156 63.5014C162.573 63.4541 162.876 63.3759 163.066 63.267C163.26 63.1581 163.357 62.9687 163.357 62.6989V62.642C163.357 61.9413 163.165 61.3968 162.781 61.0085C162.403 60.6203 161.827 60.4261 161.056 60.4261C160.255 60.4261 159.628 60.6013 159.174 60.9517C158.719 61.3021 158.399 61.6761 158.215 62.0739L156.624 61.5057C156.908 60.8428 157.287 60.3267 157.76 59.9574C158.238 59.5833 158.759 59.3229 159.323 59.1761C159.891 59.0246 160.45 58.9489 160.999 58.9489C161.349 58.9489 161.752 58.9915 162.206 59.0767C162.665 59.1572 163.108 59.3253 163.534 59.581C163.965 59.8366 164.323 60.2225 164.607 60.7386C164.891 61.2547 165.033 61.946 165.033 62.8125V70H163.357V68.5227H163.272C163.158 68.7595 162.968 69.0128 162.703 69.2827C162.438 69.5526 162.085 69.7822 161.645 69.9716C161.205 70.161 160.667 70.2557 160.033 70.2557ZM160.289 68.75C160.951 68.75 161.51 68.6198 161.965 68.3594C162.424 68.099 162.77 67.7628 163.002 67.3509C163.238 66.9389 163.357 66.5057 163.357 66.0511V64.517C163.286 64.6023 163.129 64.6804 162.888 64.7514C162.651 64.8177 162.377 64.8769 162.064 64.929C161.756 64.9763 161.456 65.0189 161.162 65.0568C160.873 65.09 160.639 65.1184 160.459 65.142C160.023 65.1989 159.616 65.2912 159.237 65.419C158.863 65.5421 158.56 65.7292 158.328 65.9801C158.101 66.2263 157.987 66.5625 157.987 66.9886C157.987 67.571 158.203 68.0114 158.634 68.3097C159.069 68.6032 159.621 68.75 160.289 68.75ZM168.092 70V59.0909H172.552C173.727 59.0909 174.659 59.3561 175.351 59.8864C176.042 60.4167 176.388 61.1174 176.388 61.9886C176.388 62.6515 176.191 63.1652 175.798 63.5298C175.405 63.8897 174.901 64.1335 174.285 64.2614C174.688 64.3182 175.078 64.4602 175.457 64.6875C175.841 64.9148 176.158 65.2273 176.409 65.625C176.66 66.018 176.785 66.5009 176.785 67.0739C176.785 67.6326 176.643 68.1321 176.359 68.5724C176.075 69.0128 175.668 69.3608 175.138 69.6165C174.607 69.8722 173.973 70 173.234 70H168.092ZM169.683 68.4659H173.234C173.812 68.4659 174.264 68.3286 174.591 68.054C174.917 67.7794 175.081 67.4053 175.081 66.9318C175.081 66.3684 174.917 65.9257 174.591 65.6037C174.264 65.277 173.812 65.1136 173.234 65.1136H169.683V68.4659ZM169.683 63.6648H172.552C173.002 63.6648 173.388 63.6032 173.71 63.4801C174.032 63.3523 174.278 63.1723 174.449 62.9403C174.624 62.7036 174.712 62.4242 174.712 62.1023C174.712 61.643 174.52 61.2831 174.136 61.0227C173.753 60.7576 173.225 60.625 172.552 60.625H169.683V63.6648ZM180.999 67.5284L186.254 59.0909H188.186V70H186.51V61.5625L181.283 70H179.323V59.0909H180.999V67.5284ZM189.772 60.6534V59.0909H198.636V60.6534H195.056V70H193.38V60.6534H189.772ZM202.529 63.0398H205.654C206.933 63.0398 207.91 63.3641 208.588 64.0128C209.265 64.6615 209.603 65.483 209.603 66.4773C209.603 67.1307 209.452 67.7249 209.149 68.2599C208.846 68.7902 208.401 69.214 207.813 69.5312C207.226 69.8438 206.507 70 205.654 70H201.08V59.0909H202.757V68.4375H205.654C206.317 68.4375 206.862 68.2623 207.288 67.9119C207.714 67.5616 207.927 67.1117 207.927 66.5625C207.927 65.9848 207.714 65.5137 207.288 65.1491C206.862 64.7846 206.317 64.6023 205.654 64.6023H202.529V63.0398ZM222.212 70.2273C221.227 70.2273 220.363 69.9929 219.619 69.5241C218.881 69.0554 218.303 68.3996 217.886 67.5568C217.474 66.714 217.268 65.7292 217.268 64.6023C217.268 63.4659 217.474 62.474 217.886 61.6264C218.303 60.7789 218.881 60.1207 219.619 59.652C220.363 59.1832 221.227 58.9489 222.212 58.9489C223.196 58.9489 224.058 59.1832 224.797 59.652C225.54 60.1207 226.118 60.7789 226.53 61.6264C226.946 62.474 227.155 63.4659 227.155 64.6023C227.155 65.7292 226.946 66.714 226.53 67.5568C226.118 68.3996 225.54 69.0554 224.797 69.5241C224.058 69.9929 223.196 70.2273 222.212 70.2273ZM222.212 68.7216C222.96 68.7216 223.575 68.5298 224.058 68.1463C224.541 67.7628 224.899 67.2585 225.131 66.6335C225.363 66.0085 225.479 65.3314 225.479 64.6023C225.479 63.8731 225.363 63.1937 225.131 62.5639C224.899 61.9342 224.541 61.4252 224.058 61.0369C223.575 60.6487 222.96 60.4545 222.212 60.4545C221.463 60.4545 220.848 60.6487 220.365 61.0369C219.882 61.4252 219.524 61.9342 219.292 62.5639C219.06 63.1937 218.944 63.8731 218.944 64.6023C218.944 65.3314 219.06 66.0085 219.292 66.6335C219.524 67.2585 219.882 67.7628 220.365 68.1463C220.848 68.5298 221.463 68.7216 222.212 68.7216ZM228.288 60.6534V59.0909H237.151V60.6534H233.572V70H231.895V60.6534H228.288ZM238.914 67.2159H240.704C240.742 67.7083 240.964 68.0824 241.372 68.3381C241.784 68.5938 242.319 68.7216 242.977 68.7216C243.649 68.7216 244.224 68.5843 244.703 68.3097C245.181 68.0303 245.42 67.5805 245.42 66.9602C245.42 66.5956 245.33 66.2784 245.15 66.0085C244.97 65.7339 244.717 65.5208 244.39 65.3693C244.063 65.2178 243.678 65.142 243.232 65.142H241.357V63.6364H243.232C243.9 63.6364 244.393 63.4848 244.71 63.1818C245.032 62.8788 245.193 62.5 245.193 62.0455C245.193 61.5578 245.02 61.1671 244.674 60.8736C244.329 60.5753 243.839 60.4261 243.204 60.4261C242.565 60.4261 242.032 60.5705 241.606 60.8594C241.18 61.1435 240.955 61.5104 240.931 61.9602H239.17C239.189 61.3731 239.369 60.8546 239.71 60.4048C240.051 59.9503 240.515 59.5952 241.102 59.3395C241.689 59.0791 242.361 58.9489 243.119 58.9489C243.886 58.9489 244.551 59.0838 245.115 59.3537C245.683 59.6188 246.121 59.9811 246.428 60.4403C246.741 60.8949 246.897 61.411 246.897 61.9886C246.897 62.6042 246.724 63.1013 246.379 63.4801C246.033 63.8589 245.6 64.1288 245.079 64.2898V64.4034C245.491 64.4318 245.848 64.5644 246.152 64.8011C246.459 65.0331 246.698 65.3385 246.869 65.7173C247.039 66.0914 247.125 66.5057 247.125 66.9602C247.125 67.6231 246.947 68.2008 246.592 68.6932C246.237 69.1809 245.749 69.5597 245.129 69.8295C244.509 70.0947 243.801 70.2273 243.005 70.2273C242.233 70.2273 241.542 70.1018 240.931 69.8509C240.321 69.5952 239.835 69.2424 239.475 68.7926C239.12 68.3381 238.933 67.8125 238.914 67.2159ZM250.928 63.0398H254.053C255.331 63.0398 256.309 63.3641 256.986 64.0128C257.663 64.6615 258.002 65.483 258.002 66.4773C258.002 67.1307 257.85 67.7249 257.547 68.2599C257.244 68.7902 256.799 69.214 256.212 69.5312C255.625 69.8438 254.905 70 254.053 70H249.479V59.0909H251.155V68.4375H254.053C254.716 68.4375 255.26 68.2623 255.686 67.9119C256.112 67.5616 256.326 67.1117 256.326 66.5625C256.326 65.9848 256.112 65.5137 255.686 65.1491C255.26 64.7846 254.716 64.6023 254.053 64.6023H250.928V63.0398ZM259.735 70V59.0909H261.411V70H259.735ZM264.479 70V59.0909H268.939C270.113 59.0909 271.046 59.3561 271.737 59.8864C272.429 60.4167 272.774 61.1174 272.774 61.9886C272.774 62.6515 272.578 63.1652 272.185 63.5298C271.792 63.8897 271.288 64.1335 270.672 64.2614C271.075 64.3182 271.465 64.4602 271.844 64.6875C272.227 64.9148 272.545 65.2273 272.796 65.625C273.047 66.018 273.172 66.5009 273.172 67.0739C273.172 67.6326 273.03 68.1321 272.746 68.5724C272.462 69.0128 272.055 69.3608 271.524 69.6165C270.994 69.8722 270.36 70 269.621 70H264.479ZM266.07 68.4659H269.621C270.199 68.4659 270.651 68.3286 270.977 68.054C271.304 67.7794 271.468 67.4053 271.468 66.9318C271.468 66.3684 271.304 65.9257 270.977 65.6037C270.651 65.277 270.199 65.1136 269.621 65.1136H266.07V68.4659ZM266.07 63.6648H268.939C269.389 63.6648 269.775 63.6032 270.097 63.4801C270.419 63.3523 270.665 63.1723 270.835 62.9403C271.011 62.7036 271.098 62.4242 271.098 62.1023C271.098 61.643 270.906 61.2831 270.523 61.0227C270.139 60.7576 269.611 60.625 268.939 60.625H266.07V63.6648ZM276.931 70.1136C276.581 70.1136 276.28 69.9882 276.029 69.7372C275.778 69.4863 275.653 69.1856 275.653 68.8352C275.653 68.4848 275.778 68.1842 276.029 67.9332C276.28 67.6823 276.581 67.5568 276.931 67.5568C277.281 67.5568 277.582 67.6823 277.833 67.9332C278.084 68.1842 278.209 68.4848 278.209 68.8352C278.209 69.0672 278.15 69.2803 278.032 69.4744C277.918 69.6686 277.764 69.8248 277.57 69.9432C277.381 70.0568 277.168 70.1136 276.931 70.1136ZM282.439 70.1136C282.088 70.1136 281.788 69.9882 281.537 69.7372C281.286 69.4863 281.16 69.1856 281.16 68.8352C281.16 68.4848 281.286 68.1842 281.537 67.9332C281.788 67.6823 282.088 67.5568 282.439 67.5568C282.789 67.5568 283.09 67.6823 283.341 67.9332C283.592 68.1842 283.717 68.4848 283.717 68.8352C283.717 69.0672 283.658 69.2803 283.54 69.4744C283.426 69.6686 283.272 69.8248 283.078 69.9432C282.889 70.0568 282.676 70.1136 282.439 70.1136ZM287.947 70.1136C287.596 70.1136 287.296 69.9882 287.045 69.7372C286.794 69.4863 286.668 69.1856 286.668 68.8352C286.668 68.4848 286.794 68.1842 287.045 67.9332C287.296 67.6823 287.596 67.5568 287.947 67.5568C288.297 67.5568 288.598 67.6823 288.849 67.9332C289.1 68.1842 289.225 68.4848 289.225 68.8352C289.225 69.0672 289.166 69.2803 289.047 69.4744C288.934 69.6686 288.78 69.8248 288.586 69.9432C288.396 70.0568 288.183 70.1136 287.947 70.1136Z" fill="white"/>
</svg>
