<svg width="418" height="612" viewBox="0 0 418 612" fill="none" xmlns="http://www.w3.org/2000/svg">
<rect x="343.666" y="0.311523" width="96.0471" height="343.054" rx="11" transform="rotate(90 343.666 0.311523)" fill="#258D96"/>
<rect x="92.5967" y="270.346" width="91.9836" height="270.034" rx="12" transform="rotate(-180 92.5967 270.346)" fill="#258D96"/>
<rect x="83.5488" y="9.75977" width="77.1526" height="73.8885" rx="10" transform="rotate(90 83.5488 9.75977)" fill="#55ABBC"/>
<rect x="83.5488" y="96.3604" width="77.1526" height="73.8885" rx="10" transform="rotate(90 83.5488 96.3604)" fill="#55ABBC"/>
<rect x="249.421" y="86.9121" width="73.8885" height="77.1526" rx="10" transform="rotate(-180 249.421 86.9121)" fill="#55ABBC"/>
<rect x="332.356" y="86.9121" width="73.8885" height="77.1526" rx="10" transform="rotate(-180 332.356 86.9121)" fill="#55ABBC"/>
<rect x="166.484" y="86.9121" width="73.8885" height="77.1526" rx="10" transform="rotate(-180 166.484 86.9121)" fill="#55ABBC"/>
<rect x="83.5488" y="182.959" width="77.1526" height="73.8885" rx="10" transform="rotate(90 83.5488 182.959)" fill="#55ABBC"/>
<rect x="324.463" y="247.354" width="92.6574" height="269.333" rx="15" fill="#981A1A"/>
<rect x="334.365" y="506.587" width="76.2906" height="74.016" rx="10" transform="rotate(-90 334.365 506.587)" fill="#D05251"/>
<rect x="333.619" y="421.733" width="76.2906" height="74.016" rx="10" transform="rotate(-90 333.619 421.733)" fill="#D05251"/>
<rect x="334.365" y="336.879" width="76.2906" height="74.016" rx="10" transform="rotate(-90 334.365 336.879)" fill="#D05251"/>
<rect width="13.1502" height="28.1898" transform="matrix(0.681355 -0.731954 0.701847 0.712327 199.964 591.38)" fill="#FF1616"/>
<rect width="13.1457" height="27.5675" transform="matrix(0.687092 0.726571 -0.696212 0.717836 229.867 582.343)" fill="#FF1616"/>
<rect width="13.1502" height="28.1898" transform="matrix(0.681355 -0.731954 0.701847 0.712327 152.829 591.38)" fill="#FF1616"/>
<rect width="13.1457" height="27.5675" transform="matrix(0.687092 0.726571 -0.696212 0.717836 182.731 582.343)" fill="#FF1616"/>
<rect width="13.1502" height="28.1898" transform="matrix(0.681355 -0.731954 0.701847 0.712327 294.234 591.38)" fill="#FF1616"/>
<rect width="13.1457" height="27.5675" transform="matrix(0.687092 0.726571 -0.696212 0.717836 324.138 582.343)" fill="#FF1616"/>
<rect width="13.1502" height="28.1898" transform="matrix(0.681355 -0.731954 0.701847 0.712327 247.1 591.38)" fill="#FF1616"/>
<rect width="13.1457" height="27.5675" transform="matrix(0.687092 0.726571 -0.696212 0.717836 277.003 582.343)" fill="#FF1616"/>
<rect width="13.1502" height="28.1898" transform="matrix(0.681355 -0.731954 0.701847 0.712327 106.765 591.38)" fill="#FF1616"/>
<rect width="13.1457" height="27.5675" transform="matrix(0.687092 0.726571 -0.696212 0.717836 136.667 582.343)" fill="#FF1616"/>
<path d="M117.512 143.303H115.751V130.32H112.654C111.868 130.32 111.236 130.441 110.758 130.682C110.28 130.919 109.931 131.255 109.714 131.691C109.496 132.126 109.387 132.635 109.387 133.218C109.387 133.8 109.494 134.302 109.707 134.723C109.924 135.14 110.27 135.462 110.744 135.689C111.222 135.916 111.849 136.03 112.626 136.03H116.546V137.621H112.569C111.442 137.621 110.516 137.434 109.792 137.06C109.067 136.681 108.53 136.16 108.18 135.497C107.829 134.834 107.654 134.075 107.654 133.218C107.654 132.36 107.829 131.596 108.18 130.923C108.53 130.251 109.07 129.723 109.799 129.34C110.528 128.951 111.461 128.757 112.597 128.757H117.512V143.303ZM110.665 136.769H112.654L109.131 143.303H107.086L110.665 136.769ZM126.441 143.303V132.394H130.902C132.076 132.394 133.009 132.659 133.7 133.189C134.391 133.719 134.737 134.42 134.737 135.291C134.737 135.954 134.54 136.468 134.147 136.833C133.754 137.192 133.25 137.436 132.634 137.564C133.037 137.621 133.428 137.763 133.806 137.99C134.19 138.218 134.507 138.53 134.758 138.928C135.009 139.321 135.134 139.804 135.134 140.377C135.134 140.935 134.992 141.435 134.708 141.875C134.424 142.316 134.017 142.664 133.487 142.919C132.956 143.175 132.322 143.303 131.583 143.303H126.441ZM128.032 141.769H131.583C132.161 141.769 132.613 141.631 132.94 141.357C133.267 141.082 133.43 140.708 133.43 140.235C133.43 139.671 133.267 139.228 132.94 138.906C132.613 138.58 132.161 138.416 131.583 138.416H128.032V141.769ZM128.032 136.968H130.902C131.351 136.968 131.737 136.906 132.059 136.783C132.381 136.655 132.627 136.475 132.798 136.243C132.973 136.006 133.061 135.727 133.061 135.405C133.061 134.946 132.869 134.586 132.485 134.325C132.102 134.06 131.574 133.928 130.902 133.928H128.032V136.968ZM143.297 143.303V132.394H147.757C148.931 132.394 149.864 132.659 150.555 133.189C151.247 133.719 151.592 134.42 151.592 135.291C151.592 135.954 151.396 136.468 151.003 136.833C150.61 137.192 150.105 137.436 149.49 137.564C149.892 137.621 150.283 137.763 150.662 137.99C151.045 138.218 151.363 138.53 151.614 138.928C151.864 139.321 151.99 139.804 151.99 140.377C151.99 140.935 151.848 141.435 151.564 141.875C151.28 142.316 150.873 142.664 150.342 142.919C149.812 143.175 149.177 143.303 148.439 143.303H143.297ZM144.888 141.769H148.439C149.016 141.769 149.469 141.631 149.795 141.357C150.122 141.082 150.285 140.708 150.285 140.235C150.285 139.671 150.122 139.228 149.795 138.906C149.469 138.58 149.016 138.416 148.439 138.416H144.888V141.769ZM144.888 136.968H147.757C148.207 136.968 148.593 136.906 148.915 136.783C149.237 136.655 149.483 136.475 149.653 136.243C149.829 136.006 149.916 135.727 149.916 135.405C149.916 134.946 149.724 134.586 149.341 134.325C148.957 134.06 148.429 133.928 147.757 133.928H144.888V136.968ZM158.959 143.53C157.974 143.53 157.11 143.296 156.367 142.827C155.628 142.358 155.05 141.702 154.634 140.86C154.222 140.017 154.016 139.032 154.016 137.905C154.016 136.769 154.222 135.777 154.634 134.929C155.05 134.082 155.628 133.423 156.367 132.955C157.11 132.486 157.974 132.252 158.959 132.252C159.944 132.252 160.806 132.486 161.544 132.955C162.288 133.423 162.865 134.082 163.277 134.929C163.694 135.777 163.902 136.769 163.902 137.905C163.902 139.032 163.694 140.017 163.277 140.86C162.865 141.702 162.288 142.358 161.544 142.827C160.806 143.296 159.944 143.53 158.959 143.53ZM158.959 142.024C159.707 142.024 160.323 141.833 160.806 141.449C161.289 141.066 161.646 140.561 161.878 139.936C162.11 139.311 162.226 138.634 162.226 137.905C162.226 137.176 162.11 136.496 161.878 135.867C161.646 135.237 161.289 134.728 160.806 134.34C160.323 133.951 159.707 133.757 158.959 133.757C158.211 133.757 157.595 133.951 157.112 134.34C156.63 134.728 156.272 135.237 156.04 135.867C155.808 136.496 155.692 137.176 155.692 137.905C155.692 138.634 155.808 139.311 156.04 139.936C156.272 140.561 156.63 141.066 157.112 141.449C157.595 141.833 158.211 142.024 158.959 142.024ZM170.893 143.53C169.87 143.53 168.989 143.289 168.251 142.806C167.512 142.323 166.944 141.657 166.546 140.81C166.148 139.962 165.949 138.994 165.949 137.905C165.949 136.797 166.153 135.819 166.56 134.972C166.972 134.119 167.545 133.454 168.279 132.976C169.018 132.493 169.879 132.252 170.864 132.252C171.631 132.252 172.323 132.394 172.938 132.678C173.554 132.962 174.058 133.36 174.451 133.871C174.844 134.382 175.088 134.979 175.182 135.661H173.506C173.378 135.164 173.094 134.723 172.654 134.34C172.218 133.951 171.631 133.757 170.893 133.757C170.239 133.757 169.666 133.928 169.174 134.269C168.686 134.605 168.305 135.081 168.03 135.696C167.761 136.307 167.626 137.024 167.626 137.848C167.626 138.691 167.758 139.425 168.023 140.05C168.293 140.675 168.672 141.16 169.16 141.506C169.652 141.852 170.23 142.024 170.893 142.024C171.328 142.024 171.724 141.949 172.079 141.797C172.434 141.646 172.735 141.428 172.981 141.144C173.227 140.86 173.402 140.519 173.506 140.121H175.182C175.088 140.765 174.853 141.345 174.479 141.861C174.11 142.372 173.62 142.78 173.009 143.083C172.403 143.381 171.698 143.53 170.893 143.53ZM176.773 133.956V132.394H185.637V133.956H182.057V143.303H180.381V133.956H176.773ZM191.947 143.53C190.963 143.53 190.098 143.296 189.355 142.827C188.616 142.358 188.039 141.702 187.622 140.86C187.21 140.017 187.004 139.032 187.004 137.905C187.004 136.769 187.21 135.777 187.622 134.929C188.039 134.082 188.616 133.423 189.355 132.955C190.098 132.486 190.963 132.252 191.947 132.252C192.932 132.252 193.794 132.486 194.533 132.955C195.276 133.423 195.854 134.082 196.266 134.929C196.682 135.777 196.891 136.769 196.891 137.905C196.891 139.032 196.682 140.017 196.266 140.86C195.854 141.702 195.276 142.358 194.533 142.827C193.794 143.296 192.932 143.53 191.947 143.53ZM191.947 142.024C192.695 142.024 193.311 141.833 193.794 141.449C194.277 141.066 194.634 140.561 194.866 139.936C195.098 139.311 195.214 138.634 195.214 137.905C195.214 137.176 195.098 136.496 194.866 135.867C194.634 135.237 194.277 134.728 193.794 134.34C193.311 133.951 192.695 133.757 191.947 133.757C191.199 133.757 190.584 133.951 190.101 134.34C189.618 134.728 189.26 135.237 189.028 135.867C188.796 136.496 188.68 137.176 188.68 137.905C188.68 138.634 188.796 139.311 189.028 139.936C189.26 140.561 189.618 141.066 190.101 141.449C190.584 141.833 191.199 142.024 191.947 142.024ZM199.449 147.394V132.394H201.068V134.127H201.267C201.39 133.937 201.561 133.696 201.779 133.402C202.001 133.104 202.318 132.839 202.73 132.607C203.147 132.37 203.71 132.252 204.421 132.252C205.339 132.252 206.149 132.481 206.85 132.941C207.55 133.4 208.097 134.051 208.49 134.894C208.883 135.736 209.08 136.731 209.08 137.877C209.08 139.032 208.883 140.033 208.49 140.881C208.097 141.724 207.553 142.377 206.857 142.841C206.161 143.3 205.358 143.53 204.449 143.53C203.748 143.53 203.187 143.414 202.766 143.182C202.344 142.945 202.02 142.678 201.793 142.379C201.566 142.076 201.39 141.825 201.267 141.627H201.125V147.394H199.449ZM201.097 137.848C201.097 138.672 201.218 139.399 201.459 140.029C201.701 140.654 202.053 141.144 202.517 141.499C202.981 141.849 203.55 142.024 204.222 142.024C204.923 142.024 205.507 141.84 205.976 141.47C206.45 141.096 206.805 140.594 207.041 139.965C207.283 139.33 207.404 138.625 207.404 137.848C207.404 137.081 207.285 136.39 207.049 135.774C206.817 135.154 206.464 134.664 205.99 134.304C205.522 133.94 204.932 133.757 204.222 133.757C203.54 133.757 202.967 133.93 202.503 134.276C202.039 134.617 201.689 135.095 201.452 135.71C201.215 136.321 201.097 137.034 201.097 137.848ZM218.37 132.394V133.956H213.313V143.303H211.637V132.394H218.37ZM224.824 143.53C223.773 143.53 222.866 143.298 222.104 142.834C221.346 142.365 220.761 141.712 220.349 140.874C219.942 140.031 219.739 139.051 219.739 137.933C219.739 136.816 219.942 135.831 220.349 134.979C220.761 134.122 221.334 133.454 222.068 132.976C222.807 132.493 223.668 132.252 224.653 132.252C225.222 132.252 225.783 132.346 226.337 132.536C226.891 132.725 227.395 133.033 227.849 133.459C228.304 133.88 228.666 134.439 228.936 135.135C229.206 135.831 229.341 136.688 229.341 137.706V138.416H220.932V136.968H227.636C227.636 136.352 227.513 135.803 227.267 135.32C227.025 134.837 226.68 134.456 226.23 134.176C225.785 133.897 225.259 133.757 224.653 133.757C223.986 133.757 223.408 133.923 222.92 134.254C222.437 134.581 222.066 135.007 221.805 135.533C221.545 136.058 221.415 136.622 221.415 137.223V138.189C221.415 139.013 221.557 139.711 221.841 140.284C222.13 140.852 222.53 141.286 223.041 141.584C223.552 141.878 224.147 142.024 224.824 142.024C225.264 142.024 225.662 141.963 226.017 141.84C226.377 141.712 226.687 141.522 226.947 141.271C227.208 141.016 227.409 140.699 227.551 140.32L229.17 140.774C229 141.324 228.713 141.807 228.311 142.223C227.909 142.635 227.411 142.957 226.82 143.189C226.228 143.416 225.562 143.53 224.824 143.53ZM241.947 143.53C240.963 143.53 240.098 143.296 239.355 142.827C238.616 142.358 238.039 141.702 237.622 140.86C237.21 140.017 237.004 139.032 237.004 137.905C237.004 136.769 237.21 135.777 237.622 134.929C238.039 134.082 238.616 133.423 239.355 132.955C240.098 132.486 240.963 132.252 241.947 132.252C242.932 132.252 243.794 132.486 244.533 132.955C245.276 133.423 245.854 134.082 246.266 134.929C246.682 135.777 246.891 136.769 246.891 137.905C246.891 139.032 246.682 140.017 246.266 140.86C245.854 141.702 245.276 142.358 244.533 142.827C243.794 143.296 242.932 143.53 241.947 143.53ZM241.947 142.024C242.695 142.024 243.311 141.833 243.794 141.449C244.277 141.066 244.634 140.561 244.866 139.936C245.098 139.311 245.214 138.634 245.214 137.905C245.214 137.176 245.098 136.496 244.866 135.867C244.634 135.237 244.277 134.728 243.794 134.34C243.311 133.951 242.695 133.757 241.947 133.757C241.199 133.757 240.584 133.951 240.101 134.34C239.618 134.728 239.26 135.237 239.028 135.867C238.796 136.496 238.68 137.176 238.68 137.905C238.68 138.634 238.796 139.311 239.028 139.936C239.26 140.561 239.618 141.066 240.101 141.449C240.584 141.833 241.199 142.024 241.947 142.024ZM248.023 133.956V132.394H256.887V133.956H253.307V143.303H251.631V133.956H248.023ZM109.074 164.831L114.33 156.394H116.262V167.303H114.586V158.865L109.359 167.303H107.398V156.394H109.074V164.831ZM126.065 156.394V157.956H121.008V167.303H119.332V156.394H126.065ZM128.512 171.394V156.394H130.131V158.127H130.33C130.453 157.937 130.623 157.696 130.841 157.402C131.064 157.104 131.381 156.839 131.793 156.607C132.21 156.37 132.773 156.252 133.483 156.252C134.402 156.252 135.211 156.481 135.912 156.941C136.613 157.4 137.16 158.051 137.553 158.894C137.946 159.736 138.142 160.731 138.142 161.877C138.142 163.032 137.946 164.033 137.553 164.881C137.16 165.724 136.615 166.377 135.919 166.841C135.223 167.3 134.421 167.53 133.512 167.53C132.811 167.53 132.25 167.414 131.828 167.182C131.407 166.945 131.083 166.678 130.855 166.379C130.628 166.076 130.453 165.825 130.33 165.627H130.188V171.394H128.512ZM130.159 161.848C130.159 162.672 130.28 163.399 130.522 164.029C130.763 164.654 131.116 165.144 131.58 165.499C132.044 165.849 132.612 166.024 133.284 166.024C133.985 166.024 134.57 165.84 135.039 165.47C135.512 165.096 135.867 164.594 136.104 163.965C136.345 163.33 136.466 162.625 136.466 161.848C136.466 161.081 136.348 160.39 136.111 159.774C135.879 159.154 135.526 158.664 135.053 158.304C134.584 157.94 133.995 157.757 133.284 157.757C132.603 157.757 132.03 157.93 131.566 158.276C131.102 158.617 130.751 159.095 130.514 159.71C130.278 160.321 130.159 161.034 130.159 161.848ZM145.131 167.53C144.146 167.53 143.282 167.296 142.539 166.827C141.8 166.358 141.222 165.702 140.806 164.86C140.394 164.017 140.188 163.032 140.188 161.905C140.188 160.769 140.394 159.777 140.806 158.929C141.222 158.082 141.8 157.423 142.539 156.955C143.282 156.486 144.146 156.252 145.131 156.252C146.116 156.252 146.978 156.486 147.716 156.955C148.46 157.423 149.037 158.082 149.449 158.929C149.866 159.777 150.074 160.769 150.074 161.905C150.074 163.032 149.866 164.017 149.449 164.86C149.037 165.702 148.46 166.358 147.716 166.827C146.978 167.296 146.116 167.53 145.131 167.53ZM145.131 166.024C145.879 166.024 146.495 165.833 146.978 165.449C147.46 165.066 147.818 164.561 148.05 163.936C148.282 163.311 148.398 162.634 148.398 161.905C148.398 161.176 148.282 160.496 148.05 159.867C147.818 159.237 147.46 158.728 146.978 158.34C146.495 157.951 145.879 157.757 145.131 157.757C144.383 157.757 143.767 157.951 143.284 158.34C142.801 158.728 142.444 159.237 142.212 159.867C141.98 160.496 141.864 161.176 141.864 161.905C141.864 162.634 141.98 163.311 142.212 163.936C142.444 164.561 142.801 165.066 143.284 165.449C143.767 165.833 144.383 166.024 145.131 166.024ZM152.633 167.303V156.394H157.093C158.267 156.394 159.2 156.659 159.891 157.189C160.583 157.719 160.928 158.42 160.928 159.291C160.928 159.954 160.732 160.468 160.339 160.833C159.946 161.192 159.441 161.436 158.826 161.564C159.228 161.621 159.619 161.763 159.998 161.99C160.381 162.218 160.699 162.53 160.949 162.928C161.2 163.321 161.326 163.804 161.326 164.377C161.326 164.935 161.184 165.435 160.9 165.875C160.616 166.316 160.208 166.664 159.678 166.919C159.148 167.175 158.513 167.303 157.775 167.303H152.633ZM154.224 165.769H157.775C158.352 165.769 158.805 165.631 159.131 165.357C159.458 165.082 159.621 164.708 159.621 164.235C159.621 163.671 159.458 163.228 159.131 162.906C158.805 162.58 158.352 162.416 157.775 162.416H154.224V165.769ZM154.224 160.968H157.093C157.543 160.968 157.929 160.906 158.251 160.783C158.573 160.655 158.819 160.475 158.989 160.243C159.164 160.006 159.252 159.727 159.252 159.405C159.252 158.946 159.06 158.586 158.677 158.325C158.293 158.06 157.765 157.928 157.093 157.928H154.224V160.968ZM168.295 167.53C167.31 167.53 166.446 167.296 165.703 166.827C164.964 166.358 164.386 165.702 163.97 164.86C163.558 164.017 163.352 163.032 163.352 161.905C163.352 160.769 163.558 159.777 163.97 158.929C164.386 158.082 164.964 157.423 165.703 156.955C166.446 156.486 167.31 156.252 168.295 156.252C169.28 156.252 170.142 156.486 170.88 156.955C171.624 157.423 172.201 158.082 172.613 158.929C173.03 159.777 173.238 160.769 173.238 161.905C173.238 163.032 173.03 164.017 172.613 164.86C172.201 165.702 171.624 166.358 170.88 166.827C170.142 167.296 169.28 167.53 168.295 167.53ZM168.295 166.024C169.043 166.024 169.659 165.833 170.142 165.449C170.625 165.066 170.982 164.561 171.214 163.936C171.446 163.311 171.562 162.634 171.562 161.905C171.562 161.176 171.446 160.496 171.214 159.867C170.982 159.237 170.625 158.728 170.142 158.34C169.659 157.951 169.043 157.757 168.295 157.757C167.547 157.757 166.931 157.951 166.448 158.34C165.965 158.728 165.608 159.237 165.376 159.867C165.144 160.496 165.028 161.176 165.028 161.905C165.028 162.634 165.144 163.311 165.376 163.936C165.608 164.561 165.965 165.066 166.448 165.449C166.931 165.833 167.547 166.024 168.295 166.024ZM182.53 156.394V157.956H177.473V167.303H175.797V156.394H182.53ZM188.842 167.53C187.857 167.53 186.993 167.296 186.25 166.827C185.511 166.358 184.933 165.702 184.517 164.86C184.105 164.017 183.899 163.032 183.899 161.905C183.899 160.769 184.105 159.777 184.517 158.929C184.933 158.082 185.511 157.423 186.25 156.955C186.993 156.486 187.857 156.252 188.842 156.252C189.827 156.252 190.688 156.486 191.427 156.955C192.17 157.423 192.748 158.082 193.16 158.929C193.577 159.777 193.785 160.769 193.785 161.905C193.785 163.032 193.577 164.017 193.16 164.86C192.748 165.702 192.17 166.358 191.427 166.827C190.688 167.296 189.827 167.53 188.842 167.53ZM188.842 166.024C189.59 166.024 190.206 165.833 190.688 165.449C191.171 165.066 191.529 164.561 191.761 163.936C191.993 163.311 192.109 162.634 192.109 161.905C192.109 161.176 191.993 160.496 191.761 159.867C191.529 159.237 191.171 158.728 190.688 158.34C190.206 157.951 189.59 157.757 188.842 157.757C188.094 157.757 187.478 157.951 186.995 158.34C186.512 158.728 186.155 159.237 185.923 159.867C185.691 160.496 185.575 161.176 185.575 161.905C185.575 162.634 185.691 163.311 185.923 163.936C186.155 164.561 186.512 165.066 186.995 165.449C187.478 165.833 188.094 166.024 188.842 166.024ZM206.4 171.024V152.757H208.077V171.024H206.4ZM206.4 167.53C205.662 167.53 204.989 167.397 204.383 167.132C203.777 166.862 203.257 166.481 202.821 165.989C202.385 165.492 202.049 164.897 201.812 164.206C201.576 163.515 201.457 162.748 201.457 161.905C201.457 161.053 201.576 160.281 201.812 159.59C202.049 158.894 202.385 158.297 202.821 157.8C203.257 157.303 203.777 156.922 204.383 156.656C204.989 156.387 205.662 156.252 206.4 156.252H206.912V167.53H206.4ZM206.4 166.024H206.685V157.757H206.4C205.842 157.757 205.356 157.871 204.945 158.098C204.533 158.321 204.192 158.626 203.922 159.014C203.657 159.398 203.458 159.838 203.325 160.335C203.197 160.833 203.133 161.356 203.133 161.905C203.133 162.634 203.249 163.311 203.481 163.936C203.713 164.561 204.071 165.066 204.554 165.449C205.037 165.833 205.652 166.024 206.4 166.024ZM208.077 167.53H207.565V156.252H208.077C208.815 156.252 209.488 156.387 210.094 156.656C210.7 156.922 211.221 157.303 211.656 157.8C212.092 158.297 212.428 158.894 212.665 159.59C212.901 160.281 213.02 161.053 213.02 161.905C213.02 162.748 212.901 163.515 212.665 164.206C212.428 164.897 212.092 165.492 211.656 165.989C211.221 166.481 210.7 166.862 210.094 167.132C209.488 167.397 208.815 167.53 208.077 167.53ZM208.077 166.024C208.64 166.024 209.125 165.915 209.533 165.698C209.945 165.475 210.283 165.172 210.548 164.789C210.818 164.4 211.017 163.96 211.145 163.468C211.277 162.97 211.344 162.45 211.344 161.905C211.344 161.176 211.228 160.496 210.996 159.867C210.764 159.237 210.406 158.728 209.923 158.34C209.44 157.951 208.825 157.757 208.077 157.757H207.793V166.024H208.077ZM220.014 167.53C219.029 167.53 218.165 167.296 217.421 166.827C216.683 166.358 216.105 165.702 215.688 164.86C215.277 164.017 215.071 163.032 215.071 161.905C215.071 160.769 215.277 159.777 215.688 158.929C216.105 158.082 216.683 157.423 217.421 156.955C218.165 156.486 219.029 156.252 220.014 156.252C220.999 156.252 221.86 156.486 222.599 156.955C223.342 157.423 223.92 158.082 224.332 158.929C224.749 159.777 224.957 160.769 224.957 161.905C224.957 163.032 224.749 164.017 224.332 164.86C223.92 165.702 223.342 166.358 222.599 166.827C221.86 167.296 220.999 167.53 220.014 167.53ZM220.014 166.024C220.762 166.024 221.377 165.833 221.86 165.449C222.343 165.066 222.701 164.561 222.933 163.936C223.165 163.311 223.281 162.634 223.281 161.905C223.281 161.176 223.165 160.496 222.933 159.867C222.701 159.237 222.343 158.728 221.86 158.34C221.377 157.951 220.762 157.757 220.014 157.757C219.266 157.757 218.65 157.951 218.167 158.34C217.684 158.728 217.327 159.237 217.095 159.867C216.863 160.496 216.747 161.176 216.747 161.905C216.747 162.634 216.863 163.311 217.095 163.936C217.327 164.561 217.684 165.066 218.167 165.449C218.65 165.833 219.266 166.024 220.014 166.024ZM227.516 171.394V156.394H229.135V158.127H229.334C229.457 157.937 229.627 157.696 229.845 157.402C230.068 157.104 230.385 156.839 230.797 156.607C231.213 156.37 231.777 156.252 232.487 156.252C233.406 156.252 234.215 156.481 234.916 156.941C235.617 157.4 236.164 158.051 236.557 158.894C236.95 159.736 237.146 160.731 237.146 161.877C237.146 163.032 236.95 164.033 236.557 164.881C236.164 165.724 235.619 166.377 234.923 166.841C234.227 167.3 233.425 167.53 232.516 167.53C231.815 167.53 231.254 167.414 230.832 167.182C230.411 166.945 230.087 166.678 229.859 166.379C229.632 166.076 229.457 165.825 229.334 165.627H229.192V171.394H227.516ZM229.163 161.848C229.163 162.672 229.284 163.399 229.525 164.029C229.767 164.654 230.12 165.144 230.584 165.499C231.048 165.849 231.616 166.024 232.288 166.024C232.989 166.024 233.574 165.84 234.043 165.47C234.516 165.096 234.871 164.594 235.108 163.965C235.349 163.33 235.47 162.625 235.47 161.848C235.47 161.081 235.352 160.39 235.115 159.774C234.883 159.154 234.53 158.664 234.057 158.304C233.588 157.94 232.998 157.757 232.288 157.757C231.606 157.757 231.034 157.93 230.57 158.276C230.105 158.617 229.755 159.095 229.518 159.71C229.282 160.321 229.163 161.034 229.163 161.848ZM245.669 165.03L249.476 156.394H251.067L246.351 167.303H244.987L240.356 156.394H241.919L245.669 165.03ZM241.379 156.394V167.303H239.703V156.394H241.379ZM249.959 167.303V156.394H251.635V167.303H249.959ZM257.913 167.558C257.222 167.558 256.595 167.428 256.031 167.168C255.468 166.903 255.02 166.521 254.689 166.024C254.357 165.522 254.192 164.916 254.192 164.206C254.192 163.581 254.315 163.075 254.561 162.686C254.807 162.293 255.136 161.985 255.548 161.763C255.96 161.54 256.415 161.375 256.912 161.266C257.414 161.152 257.918 161.062 258.425 160.996C259.088 160.911 259.625 160.847 260.037 160.804C260.454 160.757 260.757 160.679 260.946 160.57C261.14 160.461 261.237 160.271 261.237 160.002V159.945C261.237 159.244 261.045 158.7 260.662 158.311C260.283 157.923 259.708 157.729 258.936 157.729C258.136 157.729 257.508 157.904 257.054 158.254C256.599 158.605 256.28 158.979 256.095 159.377L254.504 158.808C254.788 158.146 255.167 157.629 255.641 157.26C256.119 156.886 256.64 156.626 257.203 156.479C257.771 156.327 258.33 156.252 258.879 156.252C259.23 156.252 259.632 156.294 260.087 156.379C260.546 156.46 260.989 156.628 261.415 156.884C261.846 157.139 262.203 157.525 262.487 158.041C262.771 158.557 262.913 159.249 262.913 160.115V167.303H261.237V165.825H261.152C261.038 166.062 260.849 166.316 260.584 166.585C260.319 166.855 259.966 167.085 259.525 167.274C259.085 167.464 258.548 167.558 257.913 167.558ZM258.169 166.053C258.832 166.053 259.391 165.923 259.845 165.662C260.304 165.402 260.65 165.066 260.882 164.654C261.119 164.242 261.237 163.808 261.237 163.354V161.82C261.166 161.905 261.01 161.983 260.768 162.054C260.532 162.12 260.257 162.18 259.945 162.232C259.637 162.279 259.336 162.322 259.043 162.36C258.754 162.393 258.519 162.421 258.339 162.445C257.904 162.502 257.497 162.594 257.118 162.722C256.744 162.845 256.441 163.032 256.209 163.283C255.981 163.529 255.868 163.865 255.868 164.291C255.868 164.874 256.083 165.314 256.514 165.612C256.95 165.906 257.501 166.053 258.169 166.053ZM264.488 157.956V156.394H273.352V157.956H269.772V167.303H268.096V157.956H264.488ZM278.441 167.558C277.749 167.558 277.122 167.428 276.559 167.168C275.995 166.903 275.548 166.521 275.216 166.024C274.885 165.522 274.719 164.916 274.719 164.206C274.719 163.581 274.842 163.075 275.088 162.686C275.335 162.293 275.664 161.985 276.076 161.763C276.487 161.54 276.942 161.375 277.439 161.266C277.941 161.152 278.445 161.062 278.952 160.996C279.615 160.911 280.152 160.847 280.564 160.804C280.981 160.757 281.284 160.679 281.473 160.57C281.667 160.461 281.764 160.271 281.764 160.002V159.945C281.764 159.244 281.573 158.7 281.189 158.311C280.81 157.923 280.235 157.729 279.463 157.729C278.663 157.729 278.036 157.904 277.581 158.254C277.127 158.605 276.807 158.979 276.622 159.377L275.032 158.808C275.316 158.146 275.694 157.629 276.168 157.26C276.646 156.886 277.167 156.626 277.73 156.479C278.299 156.327 278.857 156.252 279.407 156.252C279.757 156.252 280.159 156.294 280.614 156.379C281.073 156.46 281.516 156.628 281.942 156.884C282.373 157.139 282.73 157.525 283.014 158.041C283.299 158.557 283.441 159.249 283.441 160.115V167.303H281.764V165.825H281.679C281.566 166.062 281.376 166.316 281.111 166.585C280.846 166.855 280.493 167.085 280.053 167.274C279.612 167.464 279.075 167.558 278.441 167.558ZM278.696 166.053C279.359 166.053 279.918 165.923 280.372 165.662C280.832 165.402 281.177 165.066 281.409 164.654C281.646 164.242 281.764 163.808 281.764 163.354V161.82C281.693 161.905 281.537 161.983 281.296 162.054C281.059 162.12 280.784 162.18 280.472 162.232C280.164 162.279 279.863 162.322 279.57 162.36C279.281 162.393 279.047 162.421 278.867 162.445C278.431 162.502 278.024 162.594 277.645 162.722C277.271 162.845 276.968 163.032 276.736 163.283C276.509 163.529 276.395 163.865 276.395 164.291C276.395 164.874 276.611 165.314 277.041 165.612C277.477 165.906 278.029 166.053 278.696 166.053ZM296.557 167.53C295.572 167.53 294.708 167.296 293.964 166.827C293.226 166.358 292.648 165.702 292.231 164.86C291.82 164.017 291.614 163.032 291.614 161.905C291.614 160.769 291.82 159.777 292.231 158.929C292.648 158.082 293.226 157.423 293.964 156.955C294.708 156.486 295.572 156.252 296.557 156.252C297.542 156.252 298.403 156.486 299.142 156.955C299.885 157.423 300.463 158.082 300.875 158.929C301.292 159.777 301.5 160.769 301.5 161.905C301.5 163.032 301.292 164.017 300.875 164.86C300.463 165.702 299.885 166.358 299.142 166.827C298.403 167.296 297.542 167.53 296.557 167.53ZM296.557 166.024C297.305 166.024 297.92 165.833 298.403 165.449C298.886 165.066 299.244 164.561 299.476 163.936C299.708 163.311 299.824 162.634 299.824 161.905C299.824 161.176 299.708 160.496 299.476 159.867C299.244 159.237 298.886 158.728 298.403 158.34C297.92 157.951 297.305 157.757 296.557 157.757C295.809 157.757 295.193 157.951 294.71 158.34C294.227 158.728 293.87 159.237 293.638 159.867C293.406 160.496 293.29 161.176 293.29 161.905C293.29 162.634 293.406 163.311 293.638 163.936C293.87 164.561 294.227 165.066 294.71 165.449C295.193 165.833 295.809 166.024 296.557 166.024ZM302.633 157.956V156.394H311.496V157.956H307.917V167.303H306.241V157.956H302.633ZM108.847 176.757V181.757H107.285V176.757H108.847ZM122.94 176.757V191.303H121.179V178.32H113.849V191.303H112.088V176.757H122.94ZM129.476 191.558C128.784 191.558 128.157 191.428 127.594 191.168C127.03 190.903 126.583 190.521 126.251 190.024C125.92 189.522 125.754 188.916 125.754 188.206C125.754 187.581 125.877 187.075 126.123 186.686C126.37 186.293 126.699 185.985 127.111 185.763C127.523 185.54 127.977 185.375 128.474 185.266C128.976 185.152 129.48 185.062 129.987 184.996C130.65 184.911 131.187 184.847 131.599 184.804C132.016 184.757 132.319 184.679 132.508 184.57C132.703 184.461 132.8 184.271 132.8 184.002V183.945C132.8 183.244 132.608 182.7 132.224 182.311C131.846 181.923 131.27 181.729 130.498 181.729C129.698 181.729 129.071 181.904 128.616 182.254C128.162 182.605 127.842 182.979 127.658 183.377L126.067 182.808C126.351 182.146 126.73 181.629 127.203 181.26C127.681 180.886 128.202 180.626 128.766 180.479C129.334 180.327 129.892 180.252 130.442 180.252C130.792 180.252 131.195 180.294 131.649 180.379C132.108 180.46 132.551 180.628 132.977 180.884C133.408 181.139 133.766 181.525 134.05 182.041C134.334 182.557 134.476 183.249 134.476 184.115V191.303H132.8V189.825H132.714C132.601 190.062 132.411 190.316 132.146 190.585C131.881 190.855 131.528 191.085 131.088 191.274C130.648 191.464 130.11 191.558 129.476 191.558ZM129.731 190.053C130.394 190.053 130.953 189.923 131.408 189.662C131.867 189.402 132.213 189.066 132.445 188.654C132.681 188.242 132.8 187.808 132.8 187.354V185.82C132.729 185.905 132.572 185.983 132.331 186.054C132.094 186.12 131.82 186.18 131.507 186.232C131.199 186.279 130.899 186.322 130.605 186.36C130.316 186.393 130.082 186.421 129.902 186.445C129.466 186.502 129.059 186.594 128.68 186.722C128.306 186.845 128.003 187.032 127.771 187.283C127.544 187.529 127.43 187.865 127.43 188.291C127.43 188.874 127.646 189.314 128.077 189.612C128.512 189.906 129.064 190.053 129.731 190.053ZM137.535 195.394V180.394H139.154V182.127H139.353C139.476 181.937 139.647 181.696 139.865 181.402C140.087 181.104 140.404 180.839 140.816 180.607C141.233 180.37 141.796 180.252 142.507 180.252C143.425 180.252 144.235 180.481 144.936 180.941C145.636 181.4 146.183 182.051 146.576 182.894C146.969 183.736 147.166 184.731 147.166 185.877C147.166 187.032 146.969 188.033 146.576 188.881C146.183 189.724 145.639 190.377 144.943 190.841C144.247 191.3 143.444 191.53 142.535 191.53C141.834 191.53 141.273 191.414 140.852 191.182C140.43 190.945 140.106 190.678 139.879 190.379C139.652 190.076 139.476 189.825 139.353 189.627H139.211V195.394H137.535ZM139.183 185.848C139.183 186.672 139.304 187.399 139.545 188.029C139.786 188.654 140.139 189.144 140.603 189.499C141.067 189.849 141.635 190.024 142.308 190.024C143.009 190.024 143.593 189.84 144.062 189.47C144.536 189.096 144.891 188.594 145.127 187.965C145.369 187.33 145.49 186.625 145.49 185.848C145.49 185.081 145.371 184.39 145.134 183.774C144.902 183.154 144.55 182.664 144.076 182.304C143.608 181.94 143.018 181.757 142.308 181.757C141.626 181.757 141.053 181.93 140.589 182.276C140.125 182.617 139.775 183.095 139.538 183.71C139.301 184.321 139.183 185.034 139.183 185.848ZM151.171 184.343H154.296C155.575 184.343 156.553 184.667 157.23 185.316C157.907 185.964 158.245 186.786 158.245 187.78C158.245 188.433 158.094 189.028 157.791 189.563C157.488 190.093 157.043 190.517 156.456 190.834C155.868 191.146 155.149 191.303 154.296 191.303H149.723V180.394H151.399V189.74H154.296C154.959 189.74 155.504 189.565 155.93 189.215C156.356 188.864 156.569 188.414 156.569 187.865C156.569 187.288 156.356 186.816 155.93 186.452C155.504 186.087 154.959 185.905 154.296 185.905H151.171V184.343ZM159.978 191.303V180.394H161.654V191.303H159.978ZM179.353 176.757V178.32H172.336V191.303H170.575V176.757H179.353ZM180.719 195.394V180.394H182.338V182.127H182.537C182.66 181.937 182.83 181.696 183.048 181.402C183.271 181.104 183.588 180.839 184 180.607C184.417 180.37 184.98 180.252 185.69 180.252C186.609 180.252 187.418 180.481 188.119 180.941C188.82 181.4 189.367 182.051 189.76 182.894C190.153 183.736 190.349 184.731 190.349 185.877C190.349 187.032 190.153 188.033 189.76 188.881C189.367 189.724 188.822 190.377 188.126 190.841C187.43 191.3 186.628 191.53 185.719 191.53C185.018 191.53 184.457 191.414 184.035 191.182C183.614 190.945 183.29 190.678 183.062 190.379C182.835 190.076 182.66 189.825 182.537 189.627H182.395V195.394H180.719ZM182.366 185.848C182.366 186.672 182.487 187.399 182.729 188.029C182.97 188.654 183.323 189.144 183.787 189.499C184.251 189.849 184.819 190.024 185.491 190.024C186.192 190.024 186.777 189.84 187.246 189.47C187.719 189.096 188.074 188.594 188.311 187.965C188.552 187.33 188.673 186.625 188.673 185.848C188.673 185.081 188.555 184.39 188.318 183.774C188.086 183.154 187.733 182.664 187.26 182.304C186.791 181.94 186.202 181.757 185.491 181.757C184.81 181.757 184.237 181.93 183.773 182.276C183.309 182.617 182.958 183.095 182.722 183.71C182.485 184.321 182.366 185.034 182.366 185.848ZM197.48 191.53C196.429 191.53 195.522 191.298 194.76 190.834C194.002 190.365 193.418 189.712 193.006 188.874C192.598 188.031 192.395 187.051 192.395 185.933C192.395 184.816 192.598 183.831 193.006 182.979C193.418 182.122 193.99 181.454 194.724 180.976C195.463 180.493 196.325 180.252 197.31 180.252C197.878 180.252 198.439 180.346 198.993 180.536C199.547 180.725 200.051 181.033 200.506 181.459C200.96 181.88 201.322 182.439 201.592 183.135C201.862 183.831 201.997 184.688 201.997 185.706V186.416H193.588V184.968H200.293C200.293 184.352 200.169 183.803 199.923 183.32C199.682 182.837 199.336 182.456 198.886 182.176C198.441 181.897 197.916 181.757 197.31 181.757C196.642 181.757 196.064 181.923 195.577 182.254C195.094 182.581 194.722 183.007 194.462 183.533C194.201 184.058 194.071 184.622 194.071 185.223V186.189C194.071 187.013 194.213 187.711 194.497 188.284C194.786 188.852 195.186 189.286 195.697 189.584C196.209 189.878 196.803 190.024 197.48 190.024C197.92 190.024 198.318 189.963 198.673 189.84C199.033 189.712 199.343 189.522 199.604 189.271C199.864 189.016 200.065 188.699 200.207 188.32L201.827 188.774C201.656 189.324 201.37 189.807 200.967 190.223C200.565 190.635 200.068 190.957 199.476 191.189C198.884 191.416 198.219 191.53 197.48 191.53ZM203.865 188.519H205.655C205.693 189.011 205.915 189.385 206.322 189.641C206.734 189.896 207.269 190.024 207.927 190.024C208.6 190.024 209.175 189.887 209.653 189.612C210.132 189.333 210.371 188.883 210.371 188.263C210.371 187.898 210.281 187.581 210.101 187.311C209.921 187.037 209.668 186.824 209.341 186.672C209.014 186.521 208.628 186.445 208.183 186.445H206.308V184.939H208.183C208.851 184.939 209.343 184.788 209.66 184.485C209.982 184.182 210.143 183.803 210.143 183.348C210.143 182.86 209.971 182.47 209.625 182.176C209.279 181.878 208.789 181.729 208.155 181.729C207.516 181.729 206.983 181.873 206.557 182.162C206.131 182.446 205.906 182.813 205.882 183.263H204.121C204.14 182.676 204.32 182.157 204.66 181.708C205.001 181.253 205.465 180.898 206.052 180.642C206.64 180.382 207.312 180.252 208.07 180.252C208.837 180.252 209.502 180.387 210.065 180.656C210.633 180.922 211.071 181.284 211.379 181.743C211.692 182.198 211.848 182.714 211.848 183.291C211.848 183.907 211.675 184.404 211.329 184.783C210.984 185.162 210.551 185.432 210.03 185.593V185.706C210.442 185.735 210.799 185.867 211.102 186.104C211.41 186.336 211.649 186.641 211.82 187.02C211.99 187.394 212.075 187.808 212.075 188.263C212.075 188.926 211.898 189.503 211.543 189.996C211.187 190.484 210.7 190.862 210.079 191.132C209.459 191.397 208.751 191.53 207.956 191.53C207.184 191.53 206.493 191.405 205.882 191.154C205.271 190.898 204.786 190.545 204.426 190.095C204.071 189.641 203.884 189.115 203.865 188.519ZM215.878 176.757V181.757H214.316V176.757H215.878ZM221.079 176.757L220.937 187.212H219.289L219.147 176.757H221.079ZM220.113 191.416C219.763 191.416 219.462 191.291 219.211 191.04C218.96 190.789 218.835 190.488 218.835 190.138C218.835 189.788 218.96 189.487 219.211 189.236C219.462 188.985 219.763 188.86 220.113 188.86C220.464 188.86 220.764 188.985 221.015 189.236C221.266 189.487 221.392 189.788 221.392 190.138C221.392 190.37 221.332 190.583 221.214 190.777C221.1 190.971 220.947 191.128 220.752 191.246C220.563 191.36 220.35 191.416 220.113 191.416ZM239.174 183.433V184.996H233.18V183.433H239.174ZM229.714 186.757H231.532C231.688 187.78 232.034 188.566 232.569 189.115C233.104 189.664 233.961 189.939 235.14 189.939C235.973 189.939 236.669 189.705 237.228 189.236C237.791 188.767 238.213 188.147 238.492 187.375C238.776 186.603 238.918 185.763 238.918 184.854V183.235C238.918 182.231 238.76 181.348 238.442 180.585C238.13 179.818 237.678 179.222 237.086 178.796C236.499 178.365 235.793 178.149 234.969 178.149C234.25 178.149 233.653 178.277 233.18 178.533C232.706 178.789 232.337 179.155 232.072 179.634C231.806 180.112 231.627 180.687 231.532 181.36H229.714C229.808 180.432 230.062 179.608 230.474 178.888C230.89 178.164 231.47 177.595 232.214 177.183C232.962 176.767 233.88 176.558 234.969 176.558C236.153 176.558 237.176 176.835 238.038 177.389C238.899 177.939 239.565 178.713 240.033 179.712C240.502 180.706 240.736 181.871 240.736 183.206V184.882C240.736 186.218 240.504 187.382 240.04 188.377C239.576 189.366 238.925 190.136 238.087 190.685C237.249 191.229 236.267 191.502 235.14 191.502C233.985 191.502 233.023 191.293 232.256 190.877C231.494 190.455 230.905 189.887 230.488 189.172C230.076 188.452 229.818 187.647 229.714 186.757ZM242.848 181.956V180.394H251.711V181.956H248.132V191.303H246.456V181.956H242.848ZM258.022 191.53C257.037 191.53 256.173 191.296 255.429 190.827C254.691 190.358 254.113 189.702 253.696 188.86C253.284 188.017 253.078 187.032 253.078 185.905C253.078 184.769 253.284 183.777 253.696 182.929C254.113 182.082 254.691 181.423 255.429 180.955C256.173 180.486 257.037 180.252 258.022 180.252C259.006 180.252 259.868 180.486 260.607 180.955C261.35 181.423 261.928 182.082 262.34 182.929C262.756 183.777 262.965 184.769 262.965 185.905C262.965 187.032 262.756 188.017 262.34 188.86C261.928 189.702 261.35 190.358 260.607 190.827C259.868 191.296 259.006 191.53 258.022 191.53ZM258.022 190.024C258.77 190.024 259.385 189.833 259.868 189.449C260.351 189.066 260.709 188.561 260.941 187.936C261.173 187.311 261.289 186.634 261.289 185.905C261.289 185.176 261.173 184.496 260.941 183.867C260.709 183.237 260.351 182.728 259.868 182.34C259.385 181.951 258.77 181.757 258.022 181.757C257.273 181.757 256.658 181.951 256.175 182.34C255.692 182.728 255.335 183.237 255.103 183.867C254.871 184.496 254.755 185.176 254.755 185.905C254.755 186.634 254.871 187.311 255.103 187.936C255.335 188.561 255.692 189.066 256.175 189.449C256.658 189.833 257.273 190.024 258.022 190.024ZM278.449 185.081V186.644H272.427V185.081H278.449ZM272.824 180.394V191.303H271.148V180.394H272.824ZM279.728 180.394V191.303H278.052V180.394H279.728ZM287.363 191.53C286.312 191.53 285.405 191.298 284.643 190.834C283.885 190.365 283.3 189.712 282.888 188.874C282.481 188.031 282.278 187.051 282.278 185.933C282.278 184.816 282.481 183.831 282.888 182.979C283.3 182.122 283.873 181.454 284.607 180.976C285.346 180.493 286.208 180.252 287.192 180.252C287.761 180.252 288.322 180.346 288.876 180.536C289.43 180.725 289.934 181.033 290.388 181.459C290.843 181.88 291.205 182.439 291.475 183.135C291.745 183.831 291.88 184.688 291.88 185.706V186.416H283.471V184.968H290.175C290.175 184.352 290.052 183.803 289.806 183.32C289.565 182.837 289.219 182.456 288.769 182.176C288.324 181.897 287.798 181.757 287.192 181.757C286.525 181.757 285.947 181.923 285.459 182.254C284.976 182.581 284.605 183.007 284.344 183.533C284.084 184.058 283.954 184.622 283.954 185.223V186.189C283.954 187.013 284.096 187.711 284.38 188.284C284.669 188.852 285.069 189.286 285.58 189.584C286.092 189.878 286.686 190.024 287.363 190.024C287.803 190.024 288.201 189.963 288.556 189.84C288.916 189.712 289.226 189.522 289.486 189.271C289.747 189.016 289.948 188.699 290.09 188.32L291.709 188.774C291.539 189.324 291.253 189.807 290.85 190.223C290.448 190.635 289.95 190.957 289.359 191.189C288.767 191.416 288.101 191.53 287.363 191.53ZM106.773 205.956V204.394H115.637V205.956H112.057V215.303H110.381V205.956H106.773ZM121.947 215.53C120.963 215.53 120.098 215.296 119.355 214.827C118.616 214.358 118.039 213.702 117.622 212.86C117.21 212.017 117.004 211.032 117.004 209.905C117.004 208.769 117.21 207.777 117.622 206.929C118.039 206.082 118.616 205.423 119.355 204.955C120.098 204.486 120.963 204.252 121.947 204.252C122.932 204.252 123.794 204.486 124.533 204.955C125.276 205.423 125.854 206.082 126.266 206.929C126.682 207.777 126.891 208.769 126.891 209.905C126.891 211.032 126.682 212.017 126.266 212.86C125.854 213.702 125.276 214.358 124.533 214.827C123.794 215.296 122.932 215.53 121.947 215.53ZM121.947 214.024C122.695 214.024 123.311 213.833 123.794 213.449C124.277 213.066 124.634 212.561 124.866 211.936C125.098 211.311 125.214 210.634 125.214 209.905C125.214 209.176 125.098 208.496 124.866 207.867C124.634 207.237 124.277 206.728 123.794 206.34C123.311 205.951 122.695 205.757 121.947 205.757C121.199 205.757 120.584 205.951 120.101 206.34C119.618 206.728 119.26 207.237 119.028 207.867C118.796 208.496 118.68 209.176 118.68 209.905C118.68 210.634 118.796 211.311 119.028 211.936C119.26 212.561 119.618 213.066 120.101 213.449C120.584 213.833 121.199 214.024 121.947 214.024ZM128.483 215.303V213.74H128.881C129.208 213.74 129.48 213.676 129.698 213.548C129.916 213.416 130.091 213.186 130.223 212.86C130.361 212.528 130.465 212.069 130.536 211.482C130.612 210.89 130.666 210.137 130.699 209.223L130.898 204.394H138.171V215.303H136.495V205.956H132.489L132.318 209.848C132.281 210.743 132.2 211.531 132.077 212.213C131.959 212.89 131.776 213.459 131.53 213.918C131.289 214.377 130.967 214.723 130.564 214.955C130.162 215.187 129.657 215.303 129.051 215.303H128.483ZM142.695 208.343H145.82C147.098 208.343 148.076 208.667 148.753 209.316C149.43 209.964 149.769 210.786 149.769 211.78C149.769 212.433 149.617 213.028 149.314 213.563C149.011 214.093 148.566 214.517 147.979 214.834C147.392 215.146 146.672 215.303 145.82 215.303H141.246V204.394H142.922V213.74H145.82C146.483 213.74 147.027 213.565 147.453 213.215C147.88 212.864 148.093 212.414 148.093 211.865C148.093 211.288 147.88 210.816 147.453 210.452C147.027 210.087 146.483 209.905 145.82 209.905H142.695V208.343ZM152.32 215.303V204.394H153.996V209.138H155.104L159.025 204.394H161.184L156.78 209.649L161.241 215.303H159.082L155.502 210.7H153.996V215.303H152.32ZM167.045 215.53C166.06 215.53 165.196 215.296 164.453 214.827C163.714 214.358 163.136 213.702 162.72 212.86C162.308 212.017 162.102 211.032 162.102 209.905C162.102 208.769 162.308 207.777 162.72 206.929C163.136 206.082 163.714 205.423 164.453 204.955C165.196 204.486 166.06 204.252 167.045 204.252C168.03 204.252 168.892 204.486 169.63 204.955C170.374 205.423 170.951 206.082 171.363 206.929C171.78 207.777 171.988 208.769 171.988 209.905C171.988 211.032 171.78 212.017 171.363 212.86C170.951 213.702 170.374 214.358 169.63 214.827C168.892 215.296 168.03 215.53 167.045 215.53ZM167.045 214.024C167.793 214.024 168.409 213.833 168.892 213.449C169.375 213.066 169.732 212.561 169.964 211.936C170.196 211.311 170.312 210.634 170.312 209.905C170.312 209.176 170.196 208.496 169.964 207.867C169.732 207.237 169.375 206.728 168.892 206.34C168.409 205.951 167.793 205.757 167.045 205.757C166.297 205.757 165.681 205.951 165.198 206.34C164.715 206.728 164.358 207.237 164.126 207.867C163.894 208.496 163.778 209.176 163.778 209.905C163.778 210.634 163.894 211.311 164.126 211.936C164.358 212.561 164.715 213.066 165.198 213.449C165.681 213.833 166.297 214.024 167.045 214.024ZM183.78 205.814C183.401 205.819 183.02 205.916 182.636 206.105C182.257 206.295 181.94 206.546 181.685 206.858C181.434 207.166 181.308 207.509 181.308 207.888H179.66C179.66 207.414 179.774 206.96 180.001 206.524C180.229 206.089 180.534 205.7 180.918 205.36C181.306 205.019 181.746 204.749 182.239 204.55C182.736 204.351 183.249 204.252 183.78 204.252C184.774 204.252 185.617 204.503 186.308 205.004C187.004 205.506 187.532 206.169 187.892 206.993C188.257 207.817 188.439 208.712 188.439 209.678V210.075C188.439 211.037 188.257 211.932 187.892 212.76C187.532 213.584 187.004 214.247 186.308 214.749C185.617 215.251 184.774 215.502 183.78 215.502C182.984 215.502 182.276 215.326 181.656 214.976C181.036 214.621 180.548 214.147 180.193 213.556C179.838 212.964 179.66 212.306 179.66 211.581H181.308C181.308 211.993 181.424 212.379 181.656 212.739C181.893 213.094 182.198 213.383 182.572 213.605C182.951 213.823 183.354 213.934 183.78 213.939C184.414 213.934 184.954 213.735 185.399 213.343C185.844 212.95 186.183 212.457 186.415 211.865C186.647 211.273 186.763 210.677 186.763 210.075V209.678C186.763 209.062 186.647 208.461 186.415 207.874C186.187 207.282 185.851 206.792 185.406 206.404C184.966 206.015 184.424 205.819 183.78 205.814ZM187.445 209.024V210.587H182.672V209.024H187.445ZM195.424 219.024V200.757H197.1V219.024H195.424ZM195.424 215.53C194.685 215.53 194.013 215.397 193.407 215.132C192.801 214.862 192.28 214.481 191.844 213.989C191.409 213.492 191.073 212.897 190.836 212.206C190.599 211.515 190.481 210.748 190.481 209.905C190.481 209.053 190.599 208.281 190.836 207.59C191.073 206.894 191.409 206.297 191.844 205.8C192.28 205.303 192.801 204.922 193.407 204.656C194.013 204.387 194.685 204.252 195.424 204.252H195.935V215.53H195.424ZM195.424 214.024H195.708V205.757H195.424C194.865 205.757 194.38 205.871 193.968 206.098C193.556 206.321 193.215 206.626 192.945 207.014C192.68 207.398 192.481 207.838 192.349 208.335C192.221 208.833 192.157 209.356 192.157 209.905C192.157 210.634 192.273 211.311 192.505 211.936C192.737 212.561 193.094 213.066 193.577 213.449C194.06 213.833 194.676 214.024 195.424 214.024ZM197.1 215.53H196.589V204.252H197.1C197.839 204.252 198.511 204.387 199.117 204.656C199.723 204.922 200.244 205.303 200.68 205.8C201.115 206.297 201.451 206.894 201.688 207.59C201.925 208.281 202.043 209.053 202.043 209.905C202.043 210.748 201.925 211.515 201.688 212.206C201.451 212.897 201.115 213.492 200.68 213.989C200.244 214.481 199.723 214.862 199.117 215.132C198.511 215.397 197.839 215.53 197.1 215.53ZM197.1 214.024C197.664 214.024 198.149 213.915 198.556 213.698C198.968 213.475 199.306 213.172 199.572 212.789C199.842 212.4 200.04 211.96 200.168 211.468C200.301 210.97 200.367 210.45 200.367 209.905C200.367 209.176 200.251 208.496 200.019 207.867C199.787 207.237 199.43 206.728 198.947 206.34C198.464 205.951 197.848 205.757 197.1 205.757H196.816V214.024H197.1ZM209.037 219.024V200.757H210.713V219.024H209.037ZM209.037 215.53C208.299 215.53 207.626 215.397 207.02 215.132C206.414 214.862 205.893 214.481 205.458 213.989C205.022 213.492 204.686 212.897 204.449 212.206C204.212 211.515 204.094 210.748 204.094 209.905C204.094 209.053 204.212 208.281 204.449 207.59C204.686 206.894 205.022 206.297 205.458 205.8C205.893 205.303 206.414 204.922 207.02 204.656C207.626 204.387 208.299 204.252 209.037 204.252H209.549V215.53H209.037ZM209.037 214.024H209.321V205.757H209.037C208.478 205.757 207.993 205.871 207.581 206.098C207.169 206.321 206.828 206.626 206.559 207.014C206.293 207.398 206.094 207.838 205.962 208.335C205.834 208.833 205.77 209.356 205.77 209.905C205.77 210.634 205.886 211.311 206.118 211.936C206.35 212.561 206.708 213.066 207.191 213.449C207.674 213.833 208.289 214.024 209.037 214.024ZM210.713 215.53H210.202V204.252H210.713C211.452 204.252 212.124 204.387 212.73 204.656C213.336 204.922 213.857 205.303 214.293 205.8C214.728 206.297 215.065 206.894 215.301 207.59C215.538 208.281 215.657 209.053 215.657 209.905C215.657 210.748 215.538 211.515 215.301 212.206C215.065 212.897 214.728 213.492 214.293 213.989C213.857 214.481 213.336 214.862 212.73 215.132C212.124 215.397 211.452 215.53 210.713 215.53ZM210.713 214.024C211.277 214.024 211.762 213.915 212.169 213.698C212.581 213.475 212.92 213.172 213.185 212.789C213.455 212.4 213.654 211.96 213.782 211.468C213.914 210.97 213.98 210.45 213.98 209.905C213.98 209.176 213.864 208.496 213.632 207.867C213.4 207.237 213.043 206.728 212.56 206.34C212.077 205.951 211.461 205.757 210.713 205.757H210.429V214.024H210.713ZM222.793 215.53C221.741 215.53 220.835 215.298 220.072 214.834C219.315 214.365 218.73 213.712 218.318 212.874C217.911 212.031 217.707 211.051 217.707 209.933C217.707 208.816 217.911 207.831 218.318 206.979C218.73 206.122 219.303 205.454 220.037 204.976C220.775 204.493 221.637 204.252 222.622 204.252C223.19 204.252 223.751 204.346 224.305 204.536C224.859 204.725 225.364 205.033 225.818 205.459C226.273 205.88 226.635 206.439 226.905 207.135C227.175 207.831 227.31 208.688 227.31 209.706V210.416H218.9V208.968H225.605C225.605 208.352 225.482 207.803 225.236 207.32C224.994 206.837 224.649 206.456 224.199 206.176C223.754 205.897 223.228 205.757 222.622 205.757C221.954 205.757 221.377 205.923 220.889 206.254C220.406 206.581 220.034 207.007 219.774 207.533C219.514 208.058 219.383 208.622 219.383 209.223V210.189C219.383 211.013 219.525 211.711 219.81 212.284C220.098 212.852 220.498 213.286 221.01 213.584C221.521 213.878 222.115 214.024 222.793 214.024C223.233 214.024 223.631 213.963 223.986 213.84C224.346 213.712 224.656 213.522 224.916 213.271C225.177 213.016 225.378 212.699 225.52 212.32L227.139 212.774C226.969 213.324 226.682 213.807 226.28 214.223C225.877 214.635 225.38 214.957 224.788 215.189C224.196 215.416 223.531 215.53 222.793 215.53ZM229.859 215.303V204.394H231.535V209.138H232.643L236.564 204.394H238.723L234.32 209.649L238.78 215.303H236.621L233.041 210.7H231.535V215.303H229.859ZM239.976 205.956V204.394H248.84V205.956H245.261V215.303H243.584V205.956H239.976ZM252.961 212.831L258.217 204.394H260.149V215.303H258.473V206.865L253.245 215.303H251.285V204.394H252.961V212.831ZM263.219 215.303V204.394H267.679C268.853 204.394 269.786 204.659 270.477 205.189C271.168 205.719 271.514 206.42 271.514 207.291C271.514 207.954 271.318 208.468 270.925 208.833C270.532 209.192 270.027 209.436 269.412 209.564C269.814 209.621 270.205 209.763 270.584 209.99C270.967 210.218 271.284 210.53 271.535 210.928C271.786 211.321 271.912 211.804 271.912 212.377C271.912 212.935 271.77 213.435 271.486 213.875C271.202 214.316 270.794 214.664 270.264 214.919C269.734 215.175 269.099 215.303 268.361 215.303H263.219ZM264.81 213.769H268.361C268.938 213.769 269.391 213.631 269.717 213.357C270.044 213.082 270.207 212.708 270.207 212.235C270.207 211.671 270.044 211.228 269.717 210.906C269.391 210.58 268.938 210.416 268.361 210.416H264.81V213.769ZM264.81 208.968H267.679C268.129 208.968 268.515 208.906 268.837 208.783C269.159 208.655 269.405 208.475 269.575 208.243C269.75 208.006 269.838 207.727 269.838 207.405C269.838 206.946 269.646 206.586 269.263 206.325C268.879 206.06 268.351 205.928 267.679 205.928H264.81V208.968ZM281.75 209.081V210.644H275.728V209.081H281.75ZM276.125 204.394V215.303H274.449V204.394H276.125ZM283.029 204.394V215.303H281.353V204.394H283.029ZM290.522 215.53C289.537 215.53 288.673 215.296 287.929 214.827C287.191 214.358 286.613 213.702 286.196 212.86C285.784 212.017 285.578 211.032 285.578 209.905C285.578 208.769 285.784 207.777 286.196 206.929C286.613 206.082 287.191 205.423 287.929 204.955C288.673 204.486 289.537 204.252 290.522 204.252C291.506 204.252 292.368 204.486 293.107 204.955C293.85 205.423 294.428 206.082 294.84 206.929C295.256 207.777 295.465 208.769 295.465 209.905C295.465 211.032 295.256 212.017 294.84 212.86C294.428 213.702 293.85 214.358 293.107 214.827C292.368 215.296 291.506 215.53 290.522 215.53ZM290.522 214.024C291.27 214.024 291.885 213.833 292.368 213.449C292.851 213.066 293.209 212.561 293.441 211.936C293.673 211.311 293.789 210.634 293.789 209.905C293.789 209.176 293.673 208.496 293.441 207.867C293.209 207.237 292.851 206.728 292.368 206.34C291.885 205.951 291.27 205.757 290.522 205.757C289.773 205.757 289.158 205.951 288.675 206.34C288.192 206.728 287.835 207.237 287.603 207.867C287.371 208.496 287.255 209.176 287.255 209.905C287.255 210.634 287.371 211.311 287.603 211.936C287.835 212.561 288.192 213.066 288.675 213.449C289.158 213.833 289.773 214.024 290.522 214.024ZM300.523 213.314L300.41 214.081C300.329 214.621 300.206 215.199 300.04 215.814C299.879 216.43 299.711 217.01 299.536 217.554C299.361 218.099 299.217 218.532 299.103 218.854H297.824C297.886 218.551 297.967 218.151 298.066 217.654C298.165 217.156 298.265 216.6 298.364 215.985C298.468 215.374 298.554 214.749 298.62 214.11L298.705 213.314H300.523ZM114.699 233.081V234.644H108.677V233.081H114.699ZM109.074 228.394V239.303H107.398V228.394H109.074ZM115.978 228.394V239.303H114.302V228.394H115.978ZM123.471 239.53C122.486 239.53 121.622 239.296 120.878 238.827C120.14 238.358 119.562 237.702 119.146 236.86C118.734 236.017 118.528 235.032 118.528 233.905C118.528 232.769 118.734 231.777 119.146 230.929C119.562 230.082 120.14 229.423 120.878 228.955C121.622 228.486 122.486 228.252 123.471 228.252C124.456 228.252 125.317 228.486 126.056 228.955C126.799 229.423 127.377 230.082 127.789 230.929C128.206 231.777 128.414 232.769 128.414 233.905C128.414 235.032 128.206 236.017 127.789 236.86C127.377 237.702 126.799 238.358 126.056 238.827C125.317 239.296 124.456 239.53 123.471 239.53ZM123.471 238.024C124.219 238.024 124.834 237.833 125.317 237.449C125.8 237.066 126.158 236.561 126.39 235.936C126.622 235.311 126.738 234.634 126.738 233.905C126.738 233.176 126.622 232.496 126.39 231.867C126.158 231.237 125.8 230.728 125.317 230.34C124.834 229.951 124.219 229.757 123.471 229.757C122.723 229.757 122.107 229.951 121.624 230.34C121.141 230.728 120.784 231.237 120.552 231.867C120.32 232.496 120.204 233.176 120.204 233.905C120.204 234.634 120.32 235.311 120.552 235.936C120.784 236.561 121.141 237.066 121.624 237.449C122.107 237.833 122.723 238.024 123.471 238.024ZM138.274 236.831L143.529 228.394H145.461V239.303H143.785V230.865L138.558 239.303H136.598V228.394H138.274V236.831ZM158.588 239.53C157.603 239.53 156.739 239.296 155.996 238.827C155.257 238.358 154.679 237.702 154.263 236.86C153.851 236.017 153.645 235.032 153.645 233.905C153.645 232.769 153.851 231.777 154.263 230.929C154.679 230.082 155.257 229.423 155.996 228.955C156.739 228.486 157.603 228.252 158.588 228.252C159.573 228.252 160.435 228.486 161.173 228.955C161.917 229.423 162.494 230.082 162.906 230.929C163.323 231.777 163.531 232.769 163.531 233.905C163.531 235.032 163.323 236.017 162.906 236.86C162.494 237.702 161.917 238.358 161.173 238.827C160.435 239.296 159.573 239.53 158.588 239.53ZM158.588 238.024C159.336 238.024 159.952 237.833 160.435 237.449C160.918 237.066 161.275 236.561 161.507 235.936C161.739 235.311 161.855 234.634 161.855 233.905C161.855 233.176 161.739 232.496 161.507 231.867C161.275 231.237 160.918 230.728 160.435 230.34C159.952 229.951 159.336 229.757 158.588 229.757C157.84 229.757 157.224 229.951 156.741 230.34C156.258 230.728 155.901 231.237 155.669 231.867C155.437 232.496 155.321 233.176 155.321 233.905C155.321 234.634 155.437 235.311 155.669 235.936C155.901 236.561 156.258 237.066 156.741 237.449C157.224 237.833 157.84 238.024 158.588 238.024ZM174.499 228.394V239.303H172.823V228.394H174.499ZM173.845 233.593V235.155C173.467 235.297 173.09 235.423 172.716 235.531C172.342 235.636 171.949 235.718 171.537 235.78C171.125 235.837 170.673 235.865 170.181 235.865C168.945 235.865 167.953 235.531 167.205 234.864C166.461 234.196 166.09 233.195 166.09 231.86V228.365H167.766V231.86C167.766 232.418 167.872 232.878 168.085 233.237C168.299 233.597 168.587 233.865 168.952 234.04C169.317 234.215 169.726 234.303 170.181 234.303C170.891 234.303 171.532 234.239 172.105 234.111C172.683 233.978 173.263 233.806 173.845 233.593ZM182.148 239.53C181.097 239.53 180.19 239.298 179.428 238.834C178.67 238.365 178.085 237.712 177.674 236.874C177.266 236.031 177.063 235.051 177.063 233.933C177.063 232.816 177.266 231.831 177.674 230.979C178.085 230.122 178.658 229.454 179.392 228.976C180.131 228.493 180.993 228.252 181.978 228.252C182.546 228.252 183.107 228.346 183.661 228.536C184.215 228.725 184.719 229.033 185.174 229.459C185.628 229.88 185.99 230.439 186.26 231.135C186.53 231.831 186.665 232.688 186.665 233.706V234.416H178.256V232.968H184.96C184.96 232.352 184.837 231.803 184.591 231.32C184.35 230.837 184.004 230.456 183.554 230.176C183.109 229.897 182.584 229.757 181.978 229.757C181.31 229.757 180.732 229.923 180.245 230.254C179.762 230.581 179.39 231.007 179.13 231.533C178.869 232.058 178.739 232.622 178.739 233.223V234.189C178.739 235.013 178.881 235.711 179.165 236.284C179.454 236.852 179.854 237.286 180.365 237.584C180.877 237.878 181.471 238.024 182.148 238.024C182.588 238.024 182.986 237.963 183.341 237.84C183.701 237.712 184.011 237.522 184.272 237.271C184.532 237.016 184.733 236.699 184.875 236.32L186.495 236.774C186.324 237.324 186.038 237.807 185.635 238.223C185.233 238.635 184.736 238.957 184.144 239.189C183.552 239.416 182.887 239.53 182.148 239.53ZM196.516 233.081V234.644H190.493V233.081H196.516ZM190.891 228.394V239.303H189.215V228.394H190.891ZM197.794 228.394V239.303H196.118V228.394H197.794ZM202.304 232.343H205.429C206.708 232.343 207.685 232.667 208.362 233.316C209.04 233.964 209.378 234.786 209.378 235.78C209.378 236.433 209.227 237.028 208.924 237.563C208.621 238.093 208.175 238.517 207.588 238.834C207.001 239.146 206.282 239.303 205.429 239.303H200.855V228.394H202.532V237.74H205.429C206.092 237.74 206.637 237.565 207.063 237.215C207.489 236.864 207.702 236.414 207.702 235.865C207.702 235.288 207.489 234.816 207.063 234.452C206.637 234.087 206.092 233.905 205.429 233.905H202.304V232.343ZM108.478 267.394C108.194 267.394 107.94 267.37 107.718 267.323C107.495 267.28 107.342 267.237 107.256 267.195L107.682 265.718C108.09 265.822 108.449 265.86 108.762 265.831C109.074 265.803 109.351 265.663 109.593 265.412C109.839 265.166 110.064 264.766 110.268 264.212L110.58 263.36L106.546 252.394H108.364L111.376 261.087H111.489L114.501 252.394H116.319L111.688 264.894C111.48 265.457 111.222 265.923 110.914 266.293C110.606 266.667 110.249 266.944 109.842 267.124C109.439 267.304 108.985 267.394 108.478 267.394ZM118.531 263.303V252.394H122.991C124.166 252.394 125.098 252.659 125.79 253.189C126.481 253.719 126.827 254.42 126.827 255.291C126.827 255.954 126.63 256.468 126.237 256.833C125.844 257.192 125.34 257.436 124.724 257.564C125.127 257.621 125.517 257.763 125.896 257.99C126.28 258.218 126.597 258.53 126.848 258.928C127.099 259.321 127.224 259.804 127.224 260.377C127.224 260.935 127.082 261.435 126.798 261.875C126.514 262.316 126.107 262.664 125.577 262.919C125.046 263.175 124.412 263.303 123.673 263.303H118.531ZM120.122 261.769H123.673C124.251 261.769 124.703 261.631 125.03 261.357C125.356 261.082 125.52 260.708 125.52 260.235C125.52 259.671 125.356 259.228 125.03 258.906C124.703 258.58 124.251 258.416 123.673 258.416H120.122V261.769ZM120.122 256.968H122.991C123.441 256.968 123.827 256.906 124.149 256.783C124.471 256.655 124.717 256.475 124.888 256.243C125.063 256.006 125.15 255.727 125.15 255.405C125.15 254.946 124.959 254.586 124.575 254.325C124.192 254.06 123.664 253.928 122.991 253.928H120.122V256.968ZM128.796 263.303V261.74H129.193C129.52 261.74 129.792 261.676 130.01 261.548C130.228 261.416 130.403 261.186 130.536 260.86C130.673 260.528 130.777 260.069 130.848 259.482C130.924 258.89 130.978 258.137 131.012 257.223L131.21 252.394H138.483V263.303H136.807V253.956H132.801L132.631 257.848C132.593 258.743 132.513 259.531 132.389 260.213C132.271 260.89 132.089 261.459 131.843 261.918C131.601 262.377 131.279 262.723 130.877 262.955C130.474 263.187 129.97 263.303 129.364 263.303H128.796ZM146.132 263.53C145.081 263.53 144.175 263.298 143.412 262.834C142.655 262.365 142.07 261.712 141.658 260.874C141.251 260.031 141.047 259.051 141.047 257.933C141.047 256.816 141.251 255.831 141.658 254.979C142.07 254.122 142.643 253.454 143.377 252.976C144.115 252.493 144.977 252.252 145.962 252.252C146.53 252.252 147.091 252.346 147.645 252.536C148.199 252.725 148.703 253.033 149.158 253.459C149.612 253.88 149.975 254.439 150.245 255.135C150.514 255.831 150.649 256.688 150.649 257.706V258.416H142.24V256.968H148.945C148.945 256.352 148.822 255.803 148.576 255.32C148.334 254.837 147.988 254.456 147.539 254.176C147.094 253.897 146.568 253.757 145.962 253.757C145.294 253.757 144.717 253.923 144.229 254.254C143.746 254.581 143.374 255.007 143.114 255.533C142.853 256.058 142.723 256.622 142.723 257.223V258.189C142.723 259.013 142.865 259.711 143.149 260.284C143.438 260.852 143.838 261.286 144.35 261.584C144.861 261.878 145.455 262.024 146.132 262.024C146.573 262.024 146.97 261.963 147.326 261.84C147.685 261.712 147.996 261.522 148.256 261.271C148.516 261.016 148.718 260.699 148.86 260.32L150.479 260.774C150.309 261.324 150.022 261.807 149.62 262.223C149.217 262.635 148.72 262.957 148.128 263.189C147.536 263.416 146.871 263.53 146.132 263.53ZM153.199 263.303V252.394H154.875V257.138H155.983L159.904 252.394H162.063L157.659 257.649L162.12 263.303H159.96L156.381 258.7H154.875V263.303H153.199ZM167.152 263.558C166.46 263.558 165.833 263.428 165.269 263.168C164.706 262.903 164.259 262.521 163.927 262.024C163.596 261.522 163.43 260.916 163.43 260.206C163.43 259.581 163.553 259.075 163.799 258.686C164.045 258.293 164.375 257.985 164.786 257.763C165.198 257.54 165.653 257.375 166.15 257.266C166.652 257.152 167.156 257.062 167.663 256.996C168.326 256.911 168.863 256.847 169.275 256.804C169.692 256.757 169.995 256.679 170.184 256.57C170.378 256.461 170.475 256.271 170.475 256.002V255.945C170.475 255.244 170.284 254.7 169.9 254.311C169.521 253.923 168.946 253.729 168.174 253.729C167.374 253.729 166.747 253.904 166.292 254.254C165.838 254.605 165.518 254.979 165.333 255.377L163.742 254.808C164.027 254.146 164.405 253.629 164.879 253.26C165.357 252.886 165.878 252.626 166.441 252.479C167.009 252.327 167.568 252.252 168.117 252.252C168.468 252.252 168.87 252.294 169.325 252.379C169.784 252.46 170.227 252.628 170.653 252.884C171.084 253.139 171.441 253.525 171.725 254.041C172.009 254.557 172.152 255.249 172.152 256.115V263.303H170.475V261.825H170.39C170.277 262.062 170.087 262.316 169.822 262.585C169.557 262.855 169.204 263.085 168.764 263.274C168.323 263.464 167.786 263.558 167.152 263.558ZM167.407 262.053C168.07 262.053 168.629 261.923 169.083 261.662C169.543 261.402 169.888 261.066 170.12 260.654C170.357 260.242 170.475 259.808 170.475 259.354V257.82C170.404 257.905 170.248 257.983 170.007 258.054C169.77 258.12 169.495 258.18 169.183 258.232C168.875 258.279 168.574 258.322 168.281 258.36C167.992 258.393 167.758 258.421 167.578 258.445C167.142 258.502 166.735 258.594 166.356 258.722C165.982 258.845 165.679 259.032 165.447 259.283C165.22 259.529 165.106 259.865 165.106 260.291C165.106 260.874 165.322 261.314 165.752 261.612C166.188 261.906 166.74 262.053 167.407 262.053ZM173.726 253.956V252.394H182.59V253.956H179.011V263.303H177.334V253.956H173.726ZM189.043 263.53C187.991 263.53 187.085 263.298 186.322 262.834C185.565 262.365 184.98 261.712 184.568 260.874C184.161 260.031 183.957 259.051 183.957 257.933C183.957 256.816 184.161 255.831 184.568 254.979C184.98 254.122 185.553 253.454 186.287 252.976C187.025 252.493 187.887 252.252 188.872 252.252C189.44 252.252 190.001 252.346 190.555 252.536C191.109 252.725 191.614 253.033 192.068 253.459C192.523 253.88 192.885 254.439 193.155 255.135C193.425 255.831 193.56 256.688 193.56 257.706V258.416H185.15V256.968H191.855C191.855 256.352 191.732 255.803 191.486 255.32C191.244 254.837 190.899 254.456 190.449 254.176C190.004 253.897 189.478 253.757 188.872 253.757C188.204 253.757 187.627 253.923 187.139 254.254C186.656 254.581 186.284 255.007 186.024 255.533C185.764 256.058 185.633 256.622 185.633 257.223V258.189C185.633 259.013 185.775 259.711 186.06 260.284C186.348 260.852 186.748 261.286 187.26 261.584C187.771 261.878 188.365 262.024 189.043 262.024C189.483 262.024 189.881 261.963 190.236 261.84C190.596 261.712 190.906 261.522 191.166 261.271C191.427 261.016 191.628 260.699 191.77 260.32L193.389 260.774C193.219 261.324 192.932 261.807 192.53 262.223C192.127 262.635 191.63 262.957 191.038 263.189C190.446 263.416 189.781 263.53 189.043 263.53ZM195.143 263.303V261.74H195.541C195.868 261.74 196.14 261.676 196.358 261.548C196.576 261.416 196.751 261.186 196.883 260.86C197.021 260.528 197.125 260.069 197.196 259.482C197.272 258.89 197.326 258.137 197.359 257.223L197.558 252.394H204.831V263.303H203.155V253.956H199.149L198.979 257.848C198.941 258.743 198.86 259.531 198.737 260.213C198.619 260.89 198.436 261.459 198.19 261.918C197.949 262.377 197.627 262.723 197.224 262.955C196.822 263.187 196.318 263.303 195.712 263.303H195.143ZM209.355 256.343H212.48C213.758 256.343 214.736 256.667 215.413 257.316C216.09 257.964 216.429 258.786 216.429 259.78C216.429 260.433 216.277 261.028 215.974 261.563C215.671 262.093 215.226 262.517 214.639 262.834C214.052 263.146 213.332 263.303 212.48 263.303H207.906V252.394H209.582V261.74H212.48C213.143 261.74 213.687 261.565 214.114 261.215C214.54 260.864 214.753 260.414 214.753 259.865C214.753 259.288 214.54 258.816 214.114 258.452C213.687 258.087 213.143 257.905 212.48 257.905H209.355V256.343ZM226.282 257.081V258.644H220.259V257.081H226.282ZM220.657 252.394V263.303H218.98V252.394H220.657ZM227.56 252.394V263.303H225.884V252.394H227.56ZM235.053 263.53C234.068 263.53 233.204 263.296 232.46 262.827C231.722 262.358 231.144 261.702 230.728 260.86C230.316 260.017 230.11 259.032 230.11 257.905C230.11 256.769 230.316 255.777 230.728 254.929C231.144 254.082 231.722 253.423 232.46 252.955C233.204 252.486 234.068 252.252 235.053 252.252C236.038 252.252 236.899 252.486 237.638 252.955C238.381 253.423 238.959 254.082 239.371 254.929C239.788 255.777 239.996 256.769 239.996 257.905C239.996 259.032 239.788 260.017 239.371 260.86C238.959 261.702 238.381 262.358 237.638 262.827C236.899 263.296 236.038 263.53 235.053 263.53ZM235.053 262.024C235.801 262.024 236.416 261.833 236.899 261.449C237.382 261.066 237.74 260.561 237.972 259.936C238.204 259.311 238.32 258.634 238.32 257.905C238.32 257.176 238.204 256.496 237.972 255.867C237.74 255.237 237.382 254.728 236.899 254.34C236.416 253.951 235.801 253.757 235.053 253.757C234.305 253.757 233.689 253.951 233.206 254.34C232.723 254.728 232.366 255.237 232.134 255.867C231.902 256.496 231.786 257.176 231.786 257.905C231.786 258.634 231.902 259.311 232.134 259.936C232.366 260.561 232.723 261.066 233.206 261.449C233.689 261.833 234.305 262.024 235.053 262.024ZM243.776 263.416C243.426 263.416 243.125 263.291 242.874 263.04C242.623 262.789 242.498 262.488 242.498 262.138C242.498 261.788 242.623 261.487 242.874 261.236C243.125 260.985 243.426 260.86 243.776 260.86C244.127 260.86 244.427 260.985 244.678 261.236C244.929 261.487 245.055 261.788 245.055 262.138C245.055 262.37 244.995 262.583 244.877 262.777C244.763 262.971 244.61 263.128 244.415 263.246C244.226 263.36 244.013 263.416 243.776 263.416ZM119.33 277.303H117.569C117.465 276.796 117.282 276.351 117.022 275.968C116.766 275.584 116.454 275.262 116.084 275.002C115.72 274.736 115.315 274.538 114.87 274.405C114.425 274.272 113.961 274.206 113.478 274.206C112.597 274.206 111.799 274.429 111.084 274.874C110.374 275.319 109.808 275.975 109.387 276.841C108.97 277.708 108.762 278.771 108.762 280.03C108.762 281.289 108.97 282.352 109.387 283.219C109.808 284.085 110.374 284.741 111.084 285.186C111.799 285.631 112.597 285.854 113.478 285.854C113.961 285.854 114.425 285.788 114.87 285.655C115.315 285.522 115.72 285.326 116.084 285.066C116.454 284.8 116.766 284.476 117.022 284.093C117.282 283.704 117.465 283.259 117.569 282.757H119.33C119.198 283.501 118.956 284.166 118.606 284.753C118.255 285.34 117.82 285.84 117.299 286.252C116.778 286.659 116.193 286.969 115.545 287.182C114.901 287.395 114.212 287.502 113.478 287.502C112.237 287.502 111.134 287.199 110.168 286.593C109.202 285.986 108.442 285.125 107.888 284.007C107.334 282.89 107.057 281.564 107.057 280.03C107.057 278.496 107.334 277.17 107.888 276.053C108.442 274.935 109.202 274.074 110.168 273.468C111.134 272.861 112.237 272.558 113.478 272.558C114.212 272.558 114.901 272.665 115.545 272.878C116.193 273.091 116.778 273.404 117.299 273.816C117.82 274.223 118.255 274.72 118.606 275.307C118.956 275.889 119.198 276.555 119.33 277.303ZM121.949 287.303V276.394H130.529V287.303H128.853V277.956H123.625V287.303H121.949ZM136.8 287.558C136.109 287.558 135.481 287.428 134.918 287.168C134.354 286.903 133.907 286.521 133.576 286.024C133.244 285.522 133.078 284.916 133.078 284.206C133.078 283.581 133.201 283.075 133.448 282.686C133.694 282.293 134.023 281.985 134.435 281.763C134.847 281.54 135.301 281.375 135.799 281.266C136.3 281.152 136.805 281.062 137.311 280.996C137.974 280.911 138.512 280.847 138.924 280.804C139.34 280.757 139.643 280.679 139.833 280.57C140.027 280.461 140.124 280.271 140.124 280.002V279.945C140.124 279.244 139.932 278.7 139.549 278.311C139.17 277.923 138.594 277.729 137.823 277.729C137.023 277.729 136.395 277.904 135.941 278.254C135.486 278.605 135.166 278.979 134.982 279.377L133.391 278.808C133.675 278.146 134.054 277.629 134.527 277.26C135.005 276.886 135.526 276.626 136.09 276.479C136.658 276.327 137.217 276.252 137.766 276.252C138.116 276.252 138.519 276.294 138.973 276.379C139.433 276.46 139.875 276.628 140.301 276.884C140.732 277.139 141.09 277.525 141.374 278.041C141.658 278.557 141.8 279.249 141.8 280.115V287.303H140.124V285.825H140.039C139.925 286.062 139.736 286.316 139.47 286.585C139.205 286.855 138.853 287.085 138.412 287.274C137.972 287.464 137.434 287.558 136.8 287.558ZM137.056 286.053C137.719 286.053 138.277 285.923 138.732 285.662C139.191 285.402 139.537 285.066 139.769 284.654C140.005 284.242 140.124 283.808 140.124 283.354V281.82C140.053 281.905 139.897 281.983 139.655 282.054C139.418 282.12 139.144 282.18 138.831 282.232C138.523 282.279 138.223 282.322 137.929 282.36C137.64 282.393 137.406 282.421 137.226 282.445C136.791 282.502 136.383 282.594 136.005 282.722C135.63 282.845 135.327 283.032 135.095 283.283C134.868 283.529 134.755 283.865 134.755 284.291C134.755 284.874 134.97 285.314 135.401 285.612C135.836 285.906 136.388 286.053 137.056 286.053ZM149.291 287.53C148.268 287.53 147.388 287.289 146.649 286.806C145.91 286.323 145.342 285.657 144.945 284.81C144.547 283.962 144.348 282.994 144.348 281.905C144.348 280.797 144.552 279.819 144.959 278.972C145.371 278.119 145.944 277.454 146.677 276.976C147.416 276.493 148.278 276.252 149.263 276.252C150.03 276.252 150.721 276.394 151.337 276.678C151.952 276.962 152.456 277.36 152.849 277.871C153.242 278.382 153.486 278.979 153.581 279.661H151.905C151.777 279.164 151.493 278.723 151.052 278.34C150.617 277.951 150.03 277.757 149.291 277.757C148.638 277.757 148.065 277.928 147.572 278.269C147.085 278.605 146.704 279.081 146.429 279.696C146.159 280.307 146.024 281.024 146.024 281.848C146.024 282.691 146.157 283.425 146.422 284.05C146.692 284.675 147.07 285.16 147.558 285.506C148.051 285.852 148.628 286.024 149.291 286.024C149.727 286.024 150.122 285.949 150.477 285.797C150.832 285.646 151.133 285.428 151.379 285.144C151.625 284.86 151.801 284.519 151.905 284.121H153.581C153.486 284.765 153.252 285.345 152.878 285.861C152.508 286.372 152.018 286.78 151.408 287.083C150.802 287.381 150.096 287.53 149.291 287.53ZM157.707 284.831L162.963 276.394H164.895V287.303H163.219V278.865L157.991 287.303H156.031V276.394H157.707V284.831ZM176.061 272.303L176.914 273.325C176.582 273.647 176.199 273.872 175.763 274C175.327 274.128 174.835 274.206 174.286 274.235C173.737 274.263 173.126 274.291 172.453 274.32C171.696 274.348 171.068 274.533 170.571 274.874C170.074 275.215 169.691 275.707 169.421 276.351C169.151 276.995 168.978 277.786 168.902 278.723H169.044C169.414 278.041 169.925 277.539 170.578 277.218C171.232 276.896 171.933 276.735 172.681 276.735C173.533 276.735 174.3 276.933 174.982 277.331C175.664 277.729 176.203 278.318 176.601 279.1C176.999 279.881 177.198 280.844 177.198 281.99C177.198 283.131 176.994 284.116 176.587 284.945C176.184 285.773 175.619 286.413 174.889 286.862C174.165 287.307 173.315 287.53 172.34 287.53C171.364 287.53 170.51 287.3 169.776 286.841C169.042 286.377 168.471 285.691 168.064 284.781C167.657 283.868 167.453 282.738 167.453 281.394V280.229C167.453 277.8 167.865 275.958 168.689 274.703C169.518 273.449 170.763 272.8 172.425 272.757C173.012 272.738 173.535 272.734 173.995 272.743C174.454 272.753 174.854 272.731 175.195 272.679C175.536 272.627 175.825 272.502 176.061 272.303ZM172.34 286.024C172.998 286.024 173.564 285.859 174.037 285.527C174.515 285.196 174.882 284.729 175.138 284.128C175.394 283.522 175.522 282.809 175.522 281.99C175.522 281.195 175.391 280.518 175.131 279.959C174.875 279.4 174.508 278.974 174.03 278.681C173.552 278.387 172.979 278.24 172.311 278.24C171.824 278.24 171.386 278.323 170.997 278.489C170.609 278.655 170.278 278.898 170.003 279.22C169.728 279.542 169.515 279.935 169.364 280.399C169.217 280.863 169.139 281.394 169.13 281.99C169.13 283.212 169.416 284.19 169.989 284.923C170.562 285.657 171.345 286.024 172.34 286.024ZM184.193 287.53C183.209 287.53 182.344 287.296 181.601 286.827C180.862 286.358 180.285 285.702 179.868 284.86C179.456 284.017 179.25 283.032 179.25 281.905C179.25 280.769 179.456 279.777 179.868 278.929C180.285 278.082 180.862 277.423 181.601 276.955C182.344 276.486 183.209 276.252 184.193 276.252C185.178 276.252 186.04 276.486 186.779 276.955C187.522 277.423 188.1 278.082 188.512 278.929C188.928 279.777 189.137 280.769 189.137 281.905C189.137 283.032 188.928 284.017 188.512 284.86C188.1 285.702 187.522 286.358 186.779 286.827C186.04 287.296 185.178 287.53 184.193 287.53ZM184.193 286.024C184.942 286.024 185.557 285.833 186.04 285.449C186.523 285.066 186.88 284.561 187.112 283.936C187.344 283.311 187.46 282.634 187.46 281.905C187.46 281.176 187.344 280.496 187.112 279.867C186.88 279.237 186.523 278.728 186.04 278.34C185.557 277.951 184.942 277.757 184.193 277.757C183.445 277.757 182.83 277.951 182.347 278.34C181.864 278.728 181.506 279.237 181.274 279.867C181.042 280.496 180.926 281.176 180.926 281.905C180.926 282.634 181.042 283.311 181.274 283.936C181.506 284.561 181.864 285.066 182.347 285.449C182.83 285.833 183.445 286.024 184.193 286.024ZM196.638 284.519H198.428C198.466 285.011 198.689 285.385 199.096 285.641C199.508 285.896 200.043 286.024 200.701 286.024C201.373 286.024 201.949 285.887 202.427 285.612C202.905 285.333 203.144 284.883 203.144 284.263C203.144 283.898 203.054 283.581 202.874 283.311C202.694 283.037 202.441 282.824 202.114 282.672C201.788 282.521 201.402 282.445 200.957 282.445H199.082V280.939H200.957C201.624 280.939 202.117 280.788 202.434 280.485C202.756 280.182 202.917 279.803 202.917 279.348C202.917 278.86 202.744 278.47 202.398 278.176C202.053 277.878 201.563 277.729 200.928 277.729C200.289 277.729 199.756 277.873 199.33 278.162C198.904 278.446 198.679 278.813 198.655 279.263H196.894C196.913 278.676 197.093 278.157 197.434 277.708C197.775 277.253 198.239 276.898 198.826 276.642C199.413 276.382 200.085 276.252 200.843 276.252C201.61 276.252 202.275 276.387 202.839 276.656C203.407 276.922 203.845 277.284 204.153 277.743C204.465 278.198 204.621 278.714 204.621 279.291C204.621 279.907 204.449 280.404 204.103 280.783C203.757 281.162 203.324 281.432 202.803 281.593V281.706C203.215 281.735 203.573 281.867 203.876 282.104C204.183 282.336 204.422 282.641 204.593 283.02C204.763 283.394 204.849 283.808 204.849 284.263C204.849 284.926 204.671 285.503 204.316 285.996C203.961 286.484 203.473 286.862 202.853 287.132C202.233 287.397 201.525 287.53 200.729 287.53C199.958 287.53 199.266 287.405 198.655 287.154C198.045 286.898 197.559 286.545 197.199 286.095C196.844 285.641 196.657 285.115 196.638 284.519ZM210.413 287.558C209.722 287.558 209.095 287.428 208.531 287.168C207.968 286.903 207.52 286.521 207.189 286.024C206.857 285.522 206.692 284.916 206.692 284.206C206.692 283.581 206.815 283.075 207.061 282.686C207.307 282.293 207.636 281.985 208.048 281.763C208.46 281.54 208.915 281.375 209.412 281.266C209.914 281.152 210.418 281.062 210.925 280.996C211.588 280.911 212.125 280.847 212.537 280.804C212.954 280.757 213.257 280.679 213.446 280.57C213.64 280.461 213.737 280.271 213.737 280.002V279.945C213.737 279.244 213.545 278.7 213.162 278.311C212.783 277.923 212.208 277.729 211.436 277.729C210.636 277.729 210.008 277.904 209.554 278.254C209.099 278.605 208.78 278.979 208.595 279.377L207.004 278.808C207.288 278.146 207.667 277.629 208.141 277.26C208.619 276.886 209.14 276.626 209.703 276.479C210.271 276.327 210.83 276.252 211.379 276.252C211.73 276.252 212.132 276.294 212.587 276.379C213.046 276.46 213.489 276.628 213.915 276.884C214.346 277.139 214.703 277.525 214.987 278.041C215.271 278.557 215.413 279.249 215.413 280.115V287.303H213.737V285.825H213.652C213.538 286.062 213.349 286.316 213.084 286.585C212.819 286.855 212.466 287.085 212.025 287.274C211.585 287.464 211.048 287.558 210.413 287.558ZM210.669 286.053C211.332 286.053 211.891 285.923 212.345 285.662C212.804 285.402 213.15 285.066 213.382 284.654C213.619 284.242 213.737 283.808 213.737 283.354V281.82C213.666 281.905 213.51 281.983 213.268 282.054C213.032 282.12 212.757 282.18 212.445 282.232C212.137 282.279 211.836 282.322 211.543 282.36C211.254 282.393 211.019 282.421 210.839 282.445C210.404 282.502 209.997 282.594 209.618 282.722C209.244 282.845 208.941 283.032 208.709 283.283C208.481 283.529 208.368 283.865 208.368 284.291C208.368 284.874 208.583 285.314 209.014 285.612C209.45 285.906 210.001 286.053 210.669 286.053ZM228.529 287.53C227.545 287.53 226.68 287.296 225.937 286.827C225.198 286.358 224.621 285.702 224.204 284.86C223.792 284.017 223.586 283.032 223.586 281.905C223.586 280.769 223.792 279.777 224.204 278.929C224.621 278.082 225.198 277.423 225.937 276.955C226.68 276.486 227.545 276.252 228.529 276.252C229.514 276.252 230.376 276.486 231.115 276.955C231.858 277.423 232.436 278.082 232.848 278.929C233.264 279.777 233.473 280.769 233.473 281.905C233.473 283.032 233.264 284.017 232.848 284.86C232.436 285.702 231.858 286.358 231.115 286.827C230.376 287.296 229.514 287.53 228.529 287.53ZM228.529 286.024C229.277 286.024 229.893 285.833 230.376 285.449C230.859 285.066 231.216 284.561 231.448 283.936C231.68 283.311 231.796 282.634 231.796 281.905C231.796 281.176 231.68 280.496 231.448 279.867C231.216 279.237 230.859 278.728 230.376 278.34C229.893 277.951 229.277 277.757 228.529 277.757C227.781 277.757 227.166 277.951 226.683 278.34C226.2 278.728 225.842 279.237 225.61 279.867C225.378 280.496 225.262 281.176 225.262 281.905C225.262 282.634 225.378 283.311 225.61 283.936C225.842 284.561 226.2 285.066 226.683 285.449C227.166 285.833 227.781 286.024 228.529 286.024ZM234.605 277.956V276.394H243.469V277.956H239.889V287.303H238.213V277.956H234.605ZM244.03 287.303V285.74H244.428C244.755 285.74 245.027 285.676 245.245 285.548C245.462 285.416 245.638 285.186 245.77 284.86C245.907 284.528 246.012 284.069 246.083 283.482C246.158 282.89 246.213 282.137 246.246 281.223L246.445 276.394H253.718V287.303H252.041V277.956H248.036L247.865 281.848C247.827 282.743 247.747 283.531 247.624 284.213C247.505 284.89 247.323 285.459 247.077 285.918C246.835 286.377 246.514 286.723 246.111 286.955C245.709 287.187 245.204 287.303 244.598 287.303H244.03ZM258.469 284.831L263.725 276.394H265.657V287.303H263.98V278.865L258.753 287.303H256.793V276.394H258.469V284.831ZM277.136 276.394V287.303H275.459V276.394H277.136ZM276.482 281.593V283.155C276.103 283.297 275.727 283.423 275.353 283.531C274.979 283.636 274.586 283.718 274.174 283.78C273.762 283.837 273.31 283.865 272.817 283.865C271.582 283.865 270.59 283.531 269.842 282.864C269.098 282.196 268.726 281.195 268.726 279.86V276.365H270.403V279.86C270.403 280.418 270.509 280.878 270.722 281.237C270.935 281.597 271.224 281.865 271.589 282.04C271.953 282.215 272.363 282.303 272.817 282.303C273.528 282.303 274.169 282.239 274.742 282.111C275.32 281.978 275.9 281.806 276.482 281.593ZM287.512 281.081V282.644H281.489V281.081H287.512ZM281.887 276.394V287.303H280.211V276.394H281.887ZM288.79 276.394V287.303H287.114V276.394H288.79ZM293.3 280.343H296.425C297.704 280.343 298.681 280.667 299.359 281.316C300.036 281.964 300.374 282.786 300.374 283.78C300.374 284.433 300.223 285.028 299.92 285.563C299.617 286.093 299.172 286.517 298.584 286.834C297.997 287.146 297.278 287.303 296.425 287.303H291.851V276.394H293.528V285.74H296.425C297.088 285.74 297.633 285.565 298.059 285.215C298.485 284.864 298.698 284.414 298.698 283.865C298.698 283.288 298.485 282.816 298.059 282.452C297.633 282.087 297.088 281.905 296.425 281.905H293.3V280.343ZM302.107 287.303V276.394H303.783V287.303H302.107ZM308.528 284.831L313.783 276.394H315.715V287.303H314.039V278.865L308.812 287.303H306.851V276.394H308.528V284.831ZM312.675 272.757H314.238C314.238 273.524 313.973 274.152 313.442 274.639C312.912 275.127 312.192 275.371 311.283 275.371C310.388 275.371 309.676 275.127 309.146 274.639C308.62 274.152 308.357 273.524 308.357 272.757H309.92C309.92 273.127 310.021 273.451 310.225 273.73C310.433 274.01 310.786 274.149 311.283 274.149C311.78 274.149 312.136 274.01 312.349 273.73C312.566 273.451 312.675 273.127 312.675 272.757ZM111.83 311.53C110.845 311.53 109.981 311.296 109.238 310.827C108.499 310.358 107.922 309.702 107.505 308.86C107.093 308.017 106.887 307.032 106.887 305.905C106.887 304.769 107.093 303.777 107.505 302.929C107.922 302.082 108.499 301.423 109.238 300.955C109.981 300.486 110.845 300.252 111.83 300.252C112.815 300.252 113.677 300.486 114.415 300.955C115.159 301.423 115.736 302.082 116.148 302.929C116.565 303.777 116.773 304.769 116.773 305.905C116.773 307.032 116.565 308.017 116.148 308.86C115.736 309.702 115.159 310.358 114.415 310.827C113.677 311.296 112.815 311.53 111.83 311.53ZM111.83 310.024C112.578 310.024 113.194 309.833 113.677 309.449C114.16 309.066 114.517 308.561 114.749 307.936C114.981 307.311 115.097 306.634 115.097 305.905C115.097 305.176 114.981 304.496 114.749 303.867C114.517 303.237 114.16 302.728 113.677 302.34C113.194 301.951 112.578 301.757 111.83 301.757C111.082 301.757 110.467 301.951 109.984 302.34C109.501 302.728 109.143 303.237 108.911 303.867C108.679 304.496 108.563 305.176 108.563 305.905C108.563 306.634 108.679 307.311 108.911 307.936C109.143 308.561 109.501 309.066 109.984 309.449C110.467 309.833 111.082 310.024 111.83 310.024ZM119.332 311.303V300.394H127.911V311.303H126.235V301.956H121.008V311.303H119.332ZM132.421 304.343H135.546C136.825 304.343 137.803 304.667 138.48 305.316C139.157 305.964 139.495 306.786 139.495 307.78C139.495 308.433 139.344 309.028 139.041 309.563C138.738 310.093 138.293 310.517 137.706 310.834C137.118 311.146 136.399 311.303 135.546 311.303H130.973V300.394H132.649V309.74H135.546C136.209 309.74 136.754 309.565 137.18 309.215C137.606 308.864 137.819 308.414 137.819 307.865C137.819 307.288 137.606 306.816 137.18 306.452C136.754 306.087 136.209 305.905 135.546 305.905H132.421V304.343ZM141.228 311.303V300.394H142.904V311.303H141.228ZM145.348 301.956V300.394H154.211V301.956H150.632V311.303H148.956V301.956H145.348ZM158.872 296.757L158.73 307.212H157.082L156.94 296.757H158.872ZM157.906 311.416C157.556 311.416 157.255 311.291 157.004 311.04C156.753 310.789 156.628 310.488 156.628 310.138C156.628 309.788 156.753 309.487 157.004 309.236C157.255 308.985 157.556 308.86 157.906 308.86C158.257 308.86 158.557 308.985 158.808 309.236C159.059 309.487 159.185 309.788 159.185 310.138C159.185 310.37 159.125 310.583 159.007 310.777C158.893 310.971 158.739 311.128 158.545 311.246C158.356 311.36 158.143 311.416 157.906 311.416Z" fill="white"/>
</svg>
