<svg width="472" height="1292" viewBox="0 0 472 1292" fill="none" xmlns="http://www.w3.org/2000/svg">
<path d="M139.812 929.211C144.451 944.984 144.927 962.49 146.633 978.705C147.654 988.397 148.621 998.093 149.692 1007.78C149.995 1010.53 150.649 1013.31 149.974 1016.01" stroke="#4CA4DA" stroke-width="3" stroke-linecap="round"/>
<path d="M179.614 967.32C180.231 985.434 175.979 1002.97 174.98 1020.95C174.964 1021.24 174.9 1022.08 174.862 1021.8C174.554 1019.51 174.724 1017.04 174.815 1014.77C175.171 1005.92 176.505 997.221 177.92 988.492" stroke="#4CA4DA" stroke-width="3" stroke-linecap="round"/>
<path d="M171.569 1025.75C178.663 1023.04 186.753 1022.07 194.175 1020.58C203.85 1018.62 213.59 1017.04 223.321 1015.4C239.655 1012.66 255.953 1009.89 272.345 1007.54" stroke="#4CA4DA" stroke-width="3" stroke-linecap="round"/>
<path d="M174.109 1025.33C177.418 1023.56 181.621 1022.57 185.119 1021.52C191.817 1019.5 198.315 1017.84 205.255 1017.03C219.586 1015.33 233.906 1013.69 248.209 1011.78" stroke="#4CA4DA" stroke-width="3" stroke-linecap="round"/>
<path d="M283.354 1007.97C266.042 1019.88 247.732 1030.46 230.049 1041.82C220.655 1047.85 211.299 1054.04 201.491 1059.39C197.369 1061.64 197.997 1060.62 199.938 1057.51" stroke="#4CA4DA" stroke-width="3" stroke-linecap="round"/>
<path d="M281.237 1008.39C263.844 1016.34 246.222 1025.17 230.355 1035.89C222.892 1040.93 215.403 1045.88 207.56 1050.31" stroke="#4CA4DA" stroke-width="3" stroke-linecap="round"/>
<path d="M186.001 1015.21C187.949 1015.75 190.903 1015.42 192.753 1015.37C196.583 1015.26 200.393 1015.02 204.209 1014.69C218.954 1013.39 233.69 1011.91 248.41 1010.36C257.261 1009.43 266.144 1008.01 275.063 1008.01C277.038 1008.01 276.912 1007.91 275.345 1008.43" stroke="#4CA4DA" stroke-width="3" stroke-linecap="round"/>
<path d="M297.75 1050.74C294.699 1050.61 289.469 1055.05 287.211 1056.43C280.686 1060.4 274.158 1064.34 267.451 1068C262.006 1070.97 256.509 1074.41 250.749 1076.75C247.676 1078 250.278 1075.27 250.749 1074.45" stroke="#4CA4DA" stroke-width="3" stroke-linecap="round"/>
<path d="M304.525 1043.54C284.05 1054.92 263.433 1066.07 242.281 1076.14" stroke="#4CA4DA" stroke-width="3" stroke-linecap="round"/>
<path d="M256.254 1074.02C255.885 1074.04 253.078 1074.17 253.619 1074.94C255.282 1077.32 261.235 1078.71 263.688 1079.62C273.29 1083.18 283.207 1085.43 293.092 1088" stroke="#4CA4DA" stroke-width="3" stroke-linecap="round"/>
<path d="M251.173 1078.68C273.768 1084.48 296.767 1088.11 319.768 1091.81" stroke="#4CA4DA" stroke-width="3" stroke-linecap="round"/>
<path d="M176.227 969.014C165.621 981 155.39 993.32 144.658 1005.19C144.077 1005.84 139.295 1010.97 141.929 1006.42C148.9 994.351 159.519 984.103 169.875 974.942" stroke="#4CA4DA" stroke-width="3" stroke-linecap="round"/>
<path d="M251.786 485.061C248.719 480.972 269.257 487.933 270.23 488.283C281.483 492.327 292.457 499.284 303.786 502.616C321.988 507.97 268.255 488.962 249.786 484.616C226.567 479.153 294.229 501.953 316.452 510.616C326.663 514.597 311.274 497.014 309.786 495.061C303.957 487.411 297.233 480.288 291.897 472.283C289.344 468.454 313.001 481.352 314.563 480.727C317.857 479.41 295.288 454.91 300.23 456.283C311.562 459.43 324.7 465.602 334.674 471.949C339.733 475.169 322.193 446.564 321.341 445.283C303.645 418.67 287.449 390.906 271.786 363.061" stroke="#FF3D3D" stroke-width="3" stroke-linecap="round"/>
<path d="M281.786 367.06C267.401 339.889 308.833 422.323 324.008 449.06C327.553 455.306 331.206 461.76 335.564 467.505C336.926 469.3 339.203 474.046 340.453 472.171C342.938 468.444 335.59 464.646 333.231 460.838C323.744 445.53 316.035 429.266 307.786 413.282C297.036 392.454 265.306 329.769 277.231 349.949C300.718 389.697 324.28 431.262 343.786 473.06" stroke="#FF3D3D" stroke-width="3" stroke-linecap="round"/>
<path d="M372.596 338.45C373.064 350.145 374.052 362.11 373.876 373.464C373.742 382.069 375.653 357.112 376.317 348.805C376.666 344.432 377.249 335.652 376.353 346.059C375.357 357.619 375.246 369.792 373.486 380.869" stroke="#FF3D3D" stroke-width="3" stroke-linecap="round"/>
<path d="M373.768 361.422C371.099 359.809 388.32 358.066 391.349 358.377" stroke="#FF3D3D" stroke-width="3" stroke-linecap="round"/>
<path d="M387.623 345.324C387.554 345.106 386.975 342.704 387.559 343.081C389.425 344.287 389.951 353.968 390.046 354.773C391.096 363.654 389.925 371.834 392.521 381.348" stroke="#FF3D3D" stroke-width="3" stroke-linecap="round"/>
<path d="M403.356 356.594C404.524 355.452 404.743 356.131 404.539 358.117C403.994 363.418 402.515 368.154 401.436 373.117C400.704 376.481 397.855 382.189 399.771 386.832" stroke="#FF3D3D" stroke-width="3" stroke-linecap="round"/>
<path d="M403.509 352.94C400.881 346.573 409.464 365.834 412.747 372.335C416.197 379.166 420.441 385.903 423.213 392.619" stroke="#FF3D3D" stroke-width="3" stroke-linecap="round"/>
<path d="M407.591 382.96C402.633 377.617 421.877 376.368 424.091 375.956" stroke="#FF3D3D" stroke-width="3" stroke-linecap="round"/>
<path d="M431.494 344.509C430.815 351.711 429.952 358.748 428.726 365.608C428.488 366.943 428.311 368.193 428.575 369.703" stroke="#FF3D3D" stroke-width="3" stroke-linecap="round"/>
<path d="M426.983 358.834C429.499 357.442 433.386 357.79 437.07 358.016" stroke="#FF3D3D" stroke-width="3" stroke-linecap="round"/>
<path d="M442.704 350.657C442.184 350.019 442.555 349.568 442.457 350.504C442.072 354.185 440.84 357.352 439.981 360.716C438.89 364.989 437.529 369.224 437.326 374.069" stroke="#FF3D3D" stroke-width="3" stroke-linecap="round"/>
<path d="M453.213 359.245C450.388 365.365 445.506 370.421 443.89 377.345" stroke="#FF3D3D" stroke-width="3" stroke-linecap="round"/>
<path d="M454.562 355.861C455.601 355.781 455.129 358.128 455.29 359.208C455.954 363.662 456.448 368.011 456.686 372.26C456.953 377.002 457.051 381.607 456.742 386.031" stroke="#FF3D3D" stroke-width="3" stroke-linecap="round"/>
<path d="M447.298 371.569C448.424 370.827 450.344 371.179 452.112 371.343C457.83 371.875 463.622 372.547 469.383 373.162" stroke="#FF3D3D" stroke-width="3" stroke-linecap="round"/>
<path d="M180.596 388.45C181.064 400.145 182.052 412.11 181.876 423.464C181.742 432.069 183.653 407.112 184.317 398.805C184.666 394.432 185.249 385.652 184.353 396.059C183.357 407.619 183.246 419.792 181.486 430.869" stroke="#FF3D3D" stroke-width="3" stroke-linecap="round"/>
<path d="M181.768 411.422C179.099 409.809 196.32 408.066 199.349 408.377" stroke="#FF3D3D" stroke-width="3" stroke-linecap="round"/>
<path d="M195.623 395.324C195.554 395.106 194.975 392.704 195.559 393.081C197.425 394.287 197.951 403.968 198.046 404.773C199.096 413.654 197.925 421.834 200.521 431.348" stroke="#FF3D3D" stroke-width="3" stroke-linecap="round"/>
<path d="M211.356 406.594C212.524 405.452 212.743 406.131 212.539 408.117C211.994 413.418 210.515 418.154 209.436 423.117C208.704 426.481 205.855 432.189 207.771 436.832" stroke="#FF3D3D" stroke-width="3" stroke-linecap="round"/>
<path d="M211.51 402.94C208.881 396.573 217.464 415.834 220.747 422.335C224.197 429.166 228.441 435.903 231.213 442.619" stroke="#FF3D3D" stroke-width="3" stroke-linecap="round"/>
<path d="M215.591 432.96C210.633 427.617 229.877 426.368 232.091 425.956" stroke="#FF3D3D" stroke-width="3" stroke-linecap="round"/>
<path d="M239.494 394.509C238.814 401.711 237.952 408.748 236.726 415.608C236.487 416.943 236.31 418.193 236.574 419.703" stroke="#FF3D3D" stroke-width="3" stroke-linecap="round"/>
<path d="M234.983 408.834C237.499 407.442 241.386 407.79 245.07 408.016" stroke="#FF3D3D" stroke-width="3" stroke-linecap="round"/>
<path d="M250.704 400.657C250.184 400.019 250.555 399.568 250.457 400.504C250.072 404.185 248.84 407.352 247.981 410.716C246.89 414.989 245.529 419.224 245.326 424.069" stroke="#FF3D3D" stroke-width="3" stroke-linecap="round"/>
<path d="M261.213 409.245C258.388 415.365 253.506 420.421 251.89 427.345" stroke="#FF3D3D" stroke-width="3" stroke-linecap="round"/>
<path d="M262.562 405.861C263.601 405.781 263.129 408.128 263.29 409.208C263.954 413.662 264.448 418.011 264.686 422.26C264.953 427.002 265.051 431.607 264.742 436.031" stroke="#FF3D3D" stroke-width="3" stroke-linecap="round"/>
<path d="M255.297 421.569C256.424 420.827 258.344 421.179 260.112 421.343C265.829 421.875 271.621 422.547 277.382 423.162" stroke="#FF3D3D" stroke-width="3" stroke-linecap="round"/>
<path d="M434.059 720.332C434.507 720.787 428.764 712.801 427.942 711.686C421.805 703.355 415.592 695.076 409.219 686.923C393.244 666.485 376.861 646.208 358.11 628.257" stroke="#4CA4DA" stroke-width="3" stroke-linecap="round"/>
<path d="M434.492 717.479C421.815 688.412 406.123 660.742 389.959 633.506C381.138 618.643 371.881 604.294 361.54 590.441C357.246 584.689 352.077 579.058 348.448 572.824C340.674 559.474 367.343 597.32 375.701 610.312C391.628 635.069 405.697 661.026 419.241 687.145" stroke="#4CA4DA" stroke-width="3" stroke-linecap="round"/>
<path d="M345.031 558.555C367.007 586.754 385.107 616.637 400.894 648.769C411.303 669.955 422.917 691.029 431.673 712.965" stroke="#4CA4DA" stroke-width="3" stroke-linecap="round"/>
<path d="M425.965 712.099C432.847 720.989 414.25 692.87 407.544 683.847C393.699 665.219 378.33 647.814 362.44 630.924C361.444 629.865 360.471 628.783 359.451 627.747C359.143 627.433 360.007 628.428 360.305 628.752C366.648 635.633 372.867 642.603 378.992 649.681C396.884 670.357 414.109 691.199 429.83 713.561" stroke="#4CA4DA" stroke-width="3" stroke-linecap="round"/>
<path d="M421.919 707.984C408.681 680.666 390.579 656.278 371.745 632.66" stroke="#FF3D3D" stroke-width="3" stroke-linecap="round"/>
<path d="M381.049 642.534C383.682 645.122 385.557 648.683 387.569 651.728C392.849 659.72 398.255 667.622 403.647 675.538C410.339 685.362 416.495 695.276 421.322 706.142" stroke="#FF3D3D" stroke-width="3" stroke-linecap="round"/>
<path d="M414.13 688.122C400.932 663.461 387.892 638.636 373.202 614.815C360.647 594.457 346.482 575.475 331.577 556.808" stroke="#FF3D3D" stroke-width="3" stroke-linecap="round"/>
<path d="M416.474 676.509C416.895 676.974 419.576 680.706 417.518 679.035C409.907 672.853 402.93 665.774 396.104 658.762C387.391 649.811 378.921 640.237 369.507 632.027" stroke="#4CA4DA" stroke-width="3" stroke-linecap="round"/>
<path d="M366.55 595.676C366.55 595.676 392.848 639.858 406.464 661.662C409.651 666.767 413.187 671.829 415.877 677.229C416.332 678.142 416.134 679.419 415.821 678.453C415.036 676.03 410.2 672.348 408.518 670.681C394.871 657.156 381.01 643.894 366.817 630.939C362.25 626.77 347.721 615.221 352.542 619.094C363.806 628.144 375.187 637.026 386.323 646.252" stroke="#4CA4DA" stroke-width="3" stroke-linecap="round"/>
<path d="M404.031 675.791C406.341 676.804 403.609 671.797 403.589 671.751C398.394 659.16 392.508 646.749 385.49 635.067C376.671 620.386 366.645 606.205 356.066 592.742C353.271 589.184 350.504 585.627 346.863 583.06" stroke="#FF3D3D" stroke-width="3" stroke-linecap="round"/>
<path d="M400.563 675.557C398.195 673.147 396.734 668.138 395.05 665.283C389.611 656.063 382.012 648.148 374.764 640.349C367.832 632.889 360.661 625.63 353.26 618.635C350.29 615.828 346.449 611.419 342.347 610.073C340.746 609.547 342.399 613.257 342.432 613.361C344.517 619.967 346.469 626.378 347.342 633.29C348.766 644.57 348.84 656.524 345.735 667.538" stroke="#FF3D3D" stroke-width="3" stroke-linecap="round"/>
<path d="M358.026 590.299C371.882 612.581 386.337 634.505 400.521 656.578" stroke="#4CA4DA" stroke-width="3" stroke-linecap="round"/>
<path d="M352.836 624.539C354.118 637.426 357.306 649.702 357.522 662.742C357.55 664.457 357.428 669.604 357.455 667.888C357.602 658.453 358.264 649.024 358.694 639.6C359.061 631.543 359.263 623.507 359.161 615.443C359.153 614.82 359.13 612.958 359.233 613.573C359.509 615.217 359.709 618.446 359.771 619.655C360.225 628.6 359.594 637.402 358.365 646.264C357.785 650.445 357.362 654.977 355.809 658.849" stroke="#4CA4DA" stroke-width="3" stroke-linecap="round"/>
<path d="M354.563 661.288C355.008 661.669 358.146 665.102 358.409 665.017C359.596 664.632 356.874 663.049 356.098 662.072C353.852 659.246 349.892 654.272 347.842 651.707C332.519 632.539 316.703 613.861 300.636 595.319" stroke="#4CA4DA" stroke-width="3" stroke-linecap="round"/>
<path d="M358.247 660.095C358.229 660.295 353.472 653.502 353.082 652.874C344.52 639.099 334.879 625.907 325.089 612.987C318.171 603.858 310.824 595.157 302.885 586.903C298.867 582.724 299.524 583.298 302.747 587.174" stroke="#4CA4DA" stroke-width="3" stroke-linecap="round"/>
<path d="M359.708 656.229C344.986 638.219 329.237 621.162 313.578 603.978C312.616 602.922 307.214 597.278 312.08 601.448C322.591 610.453 331.828 621.929 339.985 633.035C345.109 640.01 349.271 647.42 353.233 655.086C356.121 660.675 349.418 650.61 349.192 650.29C337.285 633.391 324.159 617.702 310.372 602.34" stroke="#4CA4DA" stroke-width="3" stroke-linecap="round"/>
<path d="M346.005 611.828C349.65 624.918 355.03 641.163 351.148 654.933" stroke="#FF3D3D" stroke-width="3" stroke-linecap="round"/>
<path d="M349.107 654.915C338.061 631.947 322.174 610.531 301.864 594.921" stroke="#FF3D3D" stroke-width="3" stroke-linecap="round"/>
<path d="M353.233 625.767C354.385 623.663 355.211 623.019 355.726 626.015C356.504 630.55 356.774 635.226 357.105 639.813C357.741 648.655 358.114 604.614 356.073 613.24C354.219 621.072 355.101 629.82 354.423 637.818C354.017 642.608 353.375 656.984 353.122 652.183C352.534 641.022 355.647 629.941 355.741 618.85" stroke="#4CA4DA" stroke-width="3" stroke-linecap="round"/>
<path d="M349.972 649.208C341.006 634.306 332.68 618.065 320.847 605.128C315.707 599.509 309.767 594.564 304.155 589.431" stroke="#FF3D3D" stroke-width="3" stroke-linecap="round"/>
<path d="M310.604 647.035C279.918 623.396 250.148 598.649 218.189 576.725C200.7 564.727 183.013 552.989 165.179 541.511" stroke="#4CA4DA" stroke-width="3" stroke-linecap="round"/>
<path d="M381.007 623.555C381.474 623.715 381.29 623.693 380.674 622.758C377.815 618.426 374.742 614.222 371.781 609.961C364.517 599.513 357.782 588.798 351.033 578.016C345.263 568.8 327.031 541.896 334.185 550.084C336.731 552.999 338.673 556.933 339.185 560.75C340.323 569.236 340.791 577.821 341.188 586.368C341.465 592.32 340.899 598.812 341.78 604.717C344.058 619.984 338.984 573.973 337.548 558.605C337.052 553.296 337.167 554.087 336.777 549.244C336.708 548.385 335.92 544.798 336.292 543.673C336.777 542.206 337.639 546.474 338.058 547.963C339.59 553.414 340.451 559.031 341.124 564.644C342.221 573.791 343.106 583.154 342.872 592.38C342.669 600.381 342.759 589.797 342.728 587.979C342.549 577.417 341.911 567.119 340.353 556.678" stroke="#4CA4DA" stroke-width="3" stroke-linecap="round"/>
<path d="M305.727 644.545C285.203 626.679 264.885 608.585 244.464 590.6C218.173 567.445 190.432 546.546 160.874 527.757C156.334 524.871 151.376 522.241 147.095 518.955C142.83 515.682 156.934 523.33 161.615 525.972C195.727 545.224 226.69 568.762 254.758 596.085C270.481 611.39 287.429 626.62 301.541 643.489C302.073 644.126 303.417 646.174 302.77 645.654C295.54 639.846 288.823 633.214 281.954 626.996C251.861 599.753 222.605 571.975 190.276 547.327C177.873 537.87 164.808 529.161 152.818 519.174C149.604 516.496 147.678 514.705 146.46 510.945" stroke="#4CA4DA" stroke-width="3" stroke-linecap="round"/>
<path d="M377.211 613.931C378.932 619.552 377.161 617.076 374.528 613.443C366.179 601.921 358.625 589.677 351.343 577.463C347.982 571.826 344.512 566.222 341.227 560.541C339.981 558.386 341.094 559.234 342.16 560.163" stroke="#4CA4DA" stroke-width="3" stroke-linecap="round"/>
<path d="M302.591 605.54C303.018 603.728 303.299 598.239 303.68 600.062C305.004 606.382 303.434 614.809 302.9 621.155C302.456 626.421 301.833 631.737 300.691 636.906C300.122 639.479 301.508 631.7 301.97 629.106C303.154 622.462 304.619 615.898 306.073 609.311C306.861 605.741 308.388 594.978 308.568 598.629C309.234 612.148 304.916 626.314 301.283 639.202" stroke="#4CA4DA" stroke-width="3" stroke-linecap="round"/>
<path d="M345.088 623.656L343.298 618.131" stroke="#FF3D3D" stroke-width="3" stroke-linecap="round"/>
<path d="M296.444 584.468C297.813 595.882 301.35 609.445 299.352 621.136C299.114 622.527 298.516 618.439 298.184 617.067C296.662 610.761 294.36 604.832 292.241 598.717" stroke="#FF3D3D" stroke-width="3" stroke-linecap="round"/>
<path d="M344.449 602.835C324.182 579.315 303.984 555.679 283.018 532.777C282.376 532.076 275.817 525.294 280.492 529.865C289.926 539.088 298.848 548.658 307.685 558.441" stroke="#4CA4DA" stroke-width="3" stroke-linecap="round"/>
<path d="M335.906 599.497C335.985 599.614 337.816 602.03 337.858 601.917C338.581 600.007 329.85 589.99 329.181 589.088C316.42 571.876 301.973 556.208 288.412 539.66C285.363 535.938 282.451 532.11 279.439 528.359C278.489 527.177 275.569 524.077 277.023 524.506C282.62 526.157 287.675 533.037 291.335 537.281" stroke="#4CA4DA" stroke-width="3" stroke-linecap="round"/>
<path d="M342.66 597.31C320.887 573.123 298.547 550.535 273.852 529.377" stroke="#4CA4DA" stroke-width="3" stroke-linecap="round"/>
<path d="M335.526 596.229L279.887 539.633" stroke="#FF3D3D" stroke-width="3" stroke-linecap="round"/>
<path d="M332.277 546.406L339.063 588.3" stroke="#4CA4DA" stroke-width="3" stroke-linecap="round"/>
<path d="M263.105 521.327C267.495 532.352 272.166 543.19 273.725 555.045C274.89 563.908 275.434 573.036 275.287 581.974C275.212 586.496 274.903 591.093 274.422 595.595C274.169 597.968 273.829 593.488 273.796 593.197C272.852 584.663 264.103 576.722 258.783 570.813C238.881 548.705 218.983 526.568 199.786 503.849" stroke="#4CA4DA" stroke-width="3" stroke-linecap="round"/>
<path d="M280.317 584.941C281.652 585.821 282.949 586.902 283.986 588.124C285.47 589.873 280.247 585.437 278.603 583.838C255.816 561.676 235.955 536.705 213.472 514.225C204.684 505.439 175.962 481.705 186.011 489.014C208.645 505.474 227.757 525.098 246.57 545.674" stroke="#4CA4DA" stroke-width="3" stroke-linecap="round"/>
<path d="M270.887 518.128C269.478 513.775 273.294 526.964 274.221 531.444C277.201 545.854 280.063 560.428 281.059 575.13C281.256 578.033 282.517 585.347 281.116 588.339C279.649 591.475 280.001 581.496 279.742 578.044C278.396 560.128 276.208 542.362 274.529 524.486C274.424 523.36 274.335 522.233 274.263 521.105C274.208 520.23 273.402 518.217 274.24 518.474C274.561 518.573 274.515 519.088 274.618 519.407C275.387 521.781 276.575 526.235 277.083 528.181C280.855 542.646 282.944 557.017 283.422 571.953C283.495 574.257 284.527 580.787 283.249 578.868C281.755 576.624 281.461 570.307 281.096 568.146C278.966 555.54 276.348 543.366 272.409 531.202" stroke="#4CA4DA" stroke-width="3" stroke-linecap="round"/>
<path d="M278.061 586.352C276.167 586.572 275.621 583.42 274.471 581.899C267.274 572.387 259.686 563.18 252.239 553.864C231.959 528.495 211.613 503.251 190.592 478.487C185.261 472.208 179.986 465.89 174.973 459.352C174.963 459.339 167.634 449.203 169.452 449.986C176.402 452.978 182.888 459.763 188.328 464.75C194.407 470.321 200.02 476.29 205.684 482.267" stroke="#4CA4DA" stroke-width="3" stroke-linecap="round"/>
<path d="M271.143 583.843C256.34 564.251 241.995 544.447 225.787 525.951C207.672 505.28 187.748 486.825 166.817 469.078" stroke="#FF3D3D" stroke-width="3" stroke-linecap="round"/>
<path d="M263.716 569.29C264.579 573.373 259.872 568.81 259.101 568.072C247.414 556.883 237.64 542.976 227.905 530.165C207.728 503.612 186.919 476.352 172.317 446.268" stroke="#4CA4DA" stroke-width="3" stroke-linecap="round"/>
<path d="M168.032 541.944C185.092 552.788 201.973 563.81 218.77 575.029" stroke="#4CA4DA" stroke-width="3" stroke-linecap="round"/>
<path d="M170.155 460.535C172.531 463.182 171.394 468.38 171.128 471.45C169.909 485.502 167.353 499.445 164.423 513.229C163.052 519.674 162.265 523.08 160.601 529.352C160.586 529.409 158.536 539.416 157.345 540.13C156.209 540.811 157.654 537.495 157.878 536.189C159.052 529.345 160.446 522.543 161.805 515.735C167.114 489.134 171.093 462.222 171.325 435.058C171.432 422.462 172.068 460.277 171.241 472.845C169.827 494.327 166.491 516.362 159.505 536.792C158.473 539.813 155.924 546.08 154.252 549.196C153.631 550.355 152.191 553.078 151.462 551.984C150.757 550.925 151.201 544.955 151.205 544.907C151.95 535.217 153.597 525.523 155.125 515.939C158.185 496.755 161.785 477.596 166.565 458.758C166.717 458.157 168.684 450.532 169.574 448.965C170.949 446.544 171.951 454.126 172.182 456.901C173.324 470.63 171.936 484.395 169.406 497.897C167.568 507.705 165.717 515.393 162.883 524.996C160.349 533.579 157.515 545.335 151.571 552.552C145.141 560.358 145.056 527.64 145.054 526.964C144.989 503.061 146.717 479.286 148.158 455.449" stroke="#4CA4DA" stroke-width="3" stroke-linecap="round"/>
<path d="M175.938 476.298C173.627 488.677 173.621 501.427 170.8 513.726C170.394 515.497 169.971 518.661 168.761 520.228C167.385 522.01 167.166 515.933 167.093 513.683C166.741 502.825 168.654 491.475 170.741 480.846C171.024 479.402 171.818 475.582 171.744 480.22C171.641 486.58 171.185 492.98 170.617 499.314C170.265 503.238 169.022 514.963 169.021 511.024C169.018 502.903 169.105 494.739 168.287 486.653C168.036 484.168 167.212 474.158 166.656 482.546C165.842 494.821 164.674 506.841 161.902 518.831" stroke="#FF3D3D" stroke-width="3" stroke-linecap="round"/>
<path d="M271.143 1131.22C257.81 1135.2 244.968 1139.24 232.772 1144.83C220.003 1150.67 207.745 1157.41 197.204 1165.27C191.81 1169.3 203.548 1162.55 203.928 1162.34C210.733 1158.42 217.628 1154.62 224.628 1150.9" stroke="#4CA4DA" stroke-width="3" stroke-linecap="round"/>
<path d="M270.335 1132.7C270.659 1132.49 265.031 1135.01 264.244 1135.38C258.367 1138.08 252.524 1140.82 246.762 1143.65C232.318 1150.73 217.971 1158.03 205.139 1166.6" stroke="#4CA4DA" stroke-width="3" stroke-linecap="round"/>
<path d="M268.399 1132.36C248.165 1137.44 228.791 1144.08 209.699 1150.98C199.281 1154.74 189.2 1158.74 179.424 1163.3C175.365 1165.19 171.362 1167.53 166.994 1169.07C157.64 1172.38 184.299 1160.7 193.426 1157.09C210.818 1150.21 228.972 1144.31 247.221 1138.67" stroke="#4CA4DA" stroke-width="3" stroke-linecap="round"/>
<path d="M157.147 1170.17C177.075 1160.43 198.033 1152.68 220.456 1146.18C235.24 1141.9 249.986 1137.01 265.231 1133.57" stroke="#4CA4DA" stroke-width="3" stroke-linecap="round"/>
<path d="M264.465 1136.38C270.746 1133.33 250.977 1141.39 244.611 1144.35C231.467 1150.45 219.112 1157.36 207.093 1164.56C206.339 1165.01 205.571 1165.45 204.831 1165.91C204.608 1166.05 205.314 1165.66 205.544 1165.53C210.437 1162.66 215.387 1159.86 220.407 1157.11C235.073 1149.08 249.832 1141.39 265.582 1134.52" stroke="#4CA4DA" stroke-width="3" stroke-linecap="round"/>
<path d="M261.532 1138.22C242.474 1143.65 225.267 1151.63 208.563 1160" stroke="#FF3D3D" stroke-width="3" stroke-linecap="round"/>
<path d="M215.591 1155.79C217.438 1154.59 219.927 1153.81 222.068 1152.93C227.687 1150.64 233.247 1148.29 238.818 1145.94C245.731 1143.02 252.689 1140.38 260.255 1138.44" stroke="#FF3D3D" stroke-width="3" stroke-linecap="round"/>
<path d="M247.731 1141.25C230.489 1146.78 213.139 1152.22 196.424 1158.53C182.139 1163.91 168.745 1170.16 155.542 1176.79" stroke="#FF3D3D" stroke-width="3" stroke-linecap="round"/>
<path d="M239.874 1139.6C240.204 1139.41 242.835 1138.23 241.631 1139.19C237.176 1142.71 232.129 1145.88 227.132 1148.98C220.753 1152.94 213.957 1156.75 208.063 1161.09" stroke="#4CA4DA" stroke-width="3" stroke-linecap="round"/>
<path d="M183.152 1161.03C183.152 1161.03 214.125 1149.81 229.43 1143.95C233.013 1142.58 236.578 1141.04 240.347 1139.93C240.985 1139.74 241.851 1139.89 241.181 1140.01C239.503 1140.29 236.841 1142.55 235.651 1143.31C225.997 1149.53 216.518 1155.87 207.237 1162.38C204.251 1164.48 195.92 1171.22 198.712 1168.98C205.236 1163.76 211.65 1158.47 218.291 1153.32" stroke="#4CA4DA" stroke-width="3" stroke-linecap="round"/>
<path d="M239.002 1145.76C239.765 1144.65 236.263 1145.8 236.23 1145.81C227.474 1147.86 218.82 1150.27 210.628 1153.27C200.334 1157.03 190.344 1161.42 180.827 1166.12C178.313 1167.36 175.799 1168.59 173.935 1170.29" stroke="#FF3D3D" stroke-width="3" stroke-linecap="round"/>
<path d="M238.736 1147.47C237.018 1148.55 233.553 1149.07 231.552 1149.78C225.09 1152.1 219.453 1155.55 213.905 1158.82C208.6 1161.96 203.423 1165.22 198.42 1168.61C196.413 1169.96 193.285 1171.69 192.24 1173.67C191.832 1174.45 194.415 1173.78 194.488 1173.77C199.062 1173.01 203.499 1172.31 208.245 1172.17C215.991 1171.93 224.155 1172.4 231.58 1174.41" stroke="#FF3D3D" stroke-width="3" stroke-linecap="round"/>
<path d="M179.22 1165.04C194.859 1159.09 210.271 1152.82 225.777 1146.7" stroke="#4CA4DA" stroke-width="3" stroke-linecap="round"/>
<path d="M202.438 1169.06C211.277 1168.97 219.756 1167.9 228.666 1168.34C229.838 1168.4 233.349 1168.68 232.178 1168.59C225.74 1168.12 219.323 1167.4 212.901 1166.78C207.412 1166.26 201.931 1165.82 196.422 1165.54C195.996 1165.51 194.724 1165.45 195.148 1165.42C196.278 1165.35 198.489 1165.39 199.316 1165.41C205.438 1165.56 211.428 1166.24 217.441 1167.23C220.278 1167.69 223.359 1168.09 225.956 1169.03" stroke="#4CA4DA" stroke-width="3" stroke-linecap="round"/>
<path d="M227.583 1169.75C227.857 1169.55 230.297 1168.13 230.247 1168C230.021 1167.39 228.856 1168.68 228.166 1169.02C226.167 1170.02 222.65 1171.78 220.835 1172.69C207.278 1179.51 194.04 1186.59 180.887 1193.8" stroke="#4CA4DA" stroke-width="3" stroke-linecap="round"/>
<path d="M226.881 1167.87C227.018 1167.89 222.234 1169.97 221.793 1170.14C212.125 1173.81 202.822 1178.05 193.701 1182.38C187.255 1185.44 181.089 1188.72 175.21 1192.33C172.234 1194.15 172.645 1193.85 175.391 1192.41" stroke="#4CA4DA" stroke-width="3" stroke-linecap="round"/>
<path d="M224.287 1166.98C211.539 1173.55 199.41 1180.66 187.196 1187.73C186.446 1188.16 182.427 1190.61 185.423 1188.36C191.894 1183.52 200.012 1179.4 207.845 1175.81C212.765 1173.56 217.952 1171.8 223.308 1170.15C227.212 1168.95 220.135 1171.86 219.909 1171.96C208.006 1177.17 196.891 1183.04 185.98 1189.25" stroke="#4CA4DA" stroke-width="3" stroke-linecap="round"/>
<path d="M193.55 1171.93C202.6 1170.67 213.856 1168.67 223.139 1171.18" stroke="#FF3D3D" stroke-width="3" stroke-linecap="round"/>
<path d="M223.064 1172.2C207.044 1176.73 191.934 1183.73 180.653 1193.17" stroke="#FF3D3D" stroke-width="3" stroke-linecap="round"/>
<path d="M203.289 1168.92C201.888 1168.26 201.473 1167.82 203.535 1167.69C206.655 1167.49 209.856 1167.56 212.998 1167.58C219.054 1167.64 188.996 1165.6 194.823 1166.98C200.113 1168.23 206.113 1168.16 211.553 1168.83C214.812 1169.24 224.608 1170.16 221.322 1170.09C213.683 1169.91 206.213 1167.89 198.643 1167.38" stroke="#4CA4DA" stroke-width="3" stroke-linecap="round"/>
<path d="M219.194 1171.53C208.744 1175.36 197.4 1178.82 188.205 1184.16C184.211 1186.48 180.651 1189.23 176.975 1191.8" stroke="#FF3D3D" stroke-width="3" stroke-linecap="round"/>
<path d="M216.503 1191.02C199.422 1205.29 181.613 1219.05 165.663 1234.02C156.935 1242.22 148.378 1250.52 139.995 1258.91" stroke="#4CA4DA" stroke-width="3" stroke-linecap="round"/>
<path d="M202.63 1155.01C202.754 1154.79 202.733 1154.88 202.076 1155.14C199.03 1156.38 196.066 1157.73 193.066 1159.03C185.709 1162.2 178.187 1165.1 170.619 1168C164.149 1170.49 145.22 1178.42 151.03 1175.21C153.098 1174.06 155.845 1173.26 158.466 1173.17C164.295 1172.96 170.171 1173.09 176.019 1173.25C180.092 1173.36 184.506 1173.92 188.566 1173.73C199.059 1173.24 167.489 1173.83 156.951 1173.89C153.311 1173.92 153.855 1173.89 150.537 1173.88C149.948 1173.88 147.475 1174.12 146.718 1173.89C145.731 1173.59 148.672 1173.34 149.701 1173.19C153.47 1172.66 157.331 1172.47 161.185 1172.37C167.463 1172.21 173.884 1172.16 180.175 1172.67C185.632 1173.1 178.409 1172.61 177.166 1172.55C169.949 1172.2 162.899 1172.08 155.722 1172.42" stroke="#4CA4DA" stroke-width="3" stroke-linecap="round"/>
<path d="M214.654 1193.34C201.825 1202.8 188.848 1212.14 175.943 1221.54C159.326 1233.64 144.207 1246.56 130.471 1260.47C128.362 1262.61 126.414 1264.96 124.039 1266.95C121.674 1268.94 127.328 1262.24 129.275 1260.03C143.466 1243.87 160.487 1229.46 180.003 1216.65C190.936 1209.47 201.854 1201.69 213.805 1195.38C214.255 1195.14 215.695 1194.56 215.32 1194.86C211.133 1198.21 206.399 1201.27 201.943 1204.42C182.419 1218.25 162.556 1231.63 144.735 1246.67C137.898 1252.44 131.551 1258.57 124.364 1264.12C122.437 1265.6 121.155 1266.49 118.551 1266.93" stroke="#4CA4DA" stroke-width="3" stroke-linecap="round"/>
<path d="M195.943 1156.49C199.834 1155.87 198.089 1156.65 195.528 1157.81C187.405 1161.48 178.814 1164.72 170.251 1167.83C166.298 1169.26 162.366 1170.75 158.386 1172.15C156.877 1172.67 157.49 1172.16 158.157 1171.67" stroke="#4CA4DA" stroke-width="3" stroke-linecap="round"/>
<path d="M187.926 1193.26C186.701 1192.97 182.963 1192.6 184.219 1192.49C188.575 1192.09 194.281 1193.23 198.596 1193.76C202.179 1194.2 205.789 1194.74 209.284 1195.52C211.023 1195.91 205.754 1194.9 203.997 1194.56C199.497 1193.69 195.06 1192.68 190.607 1191.68C188.194 1191.14 180.892 1189.93 183.391 1189.99C192.641 1190.23 202.181 1192.98 210.869 1195.32" stroke="#4CA4DA" stroke-width="3" stroke-linecap="round"/>
<path d="M201.599 1172.88L197.771 1173.54" stroke="#FF3D3D" stroke-width="3" stroke-linecap="round"/>
<path d="M173.349 1195.43C181.185 1195.23 190.553 1194.04 198.475 1195.52C199.417 1195.7 196.607 1195.83 195.661 1195.93C191.309 1196.43 187.189 1197.32 182.95 1198.12" stroke="#FF3D3D" stroke-width="3" stroke-linecap="round"/>
<path d="M187.362 1172.32C170.682 1181.41 153.924 1190.47 137.645 1199.93C137.146 1200.22 132.314 1203.2 135.579 1201.06C142.166 1196.76 148.973 1192.72 155.923 1188.74" stroke="#4CA4DA" stroke-width="3" stroke-linecap="round"/>
<path d="M184.821 1176.43C184.903 1176.4 186.609 1175.59 186.533 1175.56C185.251 1175.12 178.144 1179.04 177.508 1179.34C165.365 1184.96 154.224 1191.49 142.509 1197.54C139.875 1198.9 137.171 1200.18 134.518 1201.52C133.682 1201.95 131.476 1203.27 131.813 1202.56C133.112 1199.85 137.965 1197.62 140.975 1195.98" stroke="#4CA4DA" stroke-width="3" stroke-linecap="round"/>
<path d="M183.535 1172.98C166.353 1182.79 150.246 1192.95 135.042 1204.35" stroke="#4CA4DA" stroke-width="3" stroke-linecap="round"/>
<path d="M182.578 1176.48L142.23 1201.77" stroke="#FF3D3D" stroke-width="3" stroke-linecap="round"/>
<path d="M148.461 1176L177.273 1174.39" stroke="#4CA4DA" stroke-width="3" stroke-linecap="round"/>
<path d="M129.216 1209.35C136.878 1207.63 144.422 1205.77 152.564 1205.49C158.651 1205.28 164.9 1205.4 170.998 1205.85C174.083 1206.07 177.213 1206.42 180.272 1206.85C181.884 1207.08 178.815 1207.06 178.615 1207.06C172.759 1207.17 167.069 1211.19 162.872 1213.58C147.167 1222.55 131.442 1231.52 115.341 1240.11" stroke="#4CA4DA" stroke-width="3" stroke-linecap="round"/>
<path d="M173.178 1203.47C173.82 1202.84 174.598 1202.24 175.464 1201.78C176.704 1201.11 173.515 1203.52 172.373 1204.27C156.542 1214.68 138.883 1223.5 122.845 1233.74C116.577 1237.74 99.4914 1251.03 104.79 1246.34C116.723 1235.77 130.708 1227.09 145.333 1218.6" stroke="#4CA4DA" stroke-width="3" stroke-linecap="round"/>
<path d="M127.271 1205.35C124.255 1205.86 133.377 1204.52 136.465 1204.25C146.395 1203.37 156.433 1202.56 166.502 1202.69C168.49 1202.71 173.523 1202.39 175.523 1203.21C177.619 1204.08 170.817 1203.48 168.451 1203.46C156.177 1203.38 143.98 1203.72 131.723 1203.8C130.951 1203.81 130.179 1203.8 129.407 1203.79C128.807 1203.78 127.409 1204.1 127.61 1203.69C127.687 1203.54 128.037 1203.58 128.258 1203.54C129.903 1203.26 132.98 1202.86 134.324 1202.69C144.316 1201.42 154.193 1200.99 164.405 1201.38C165.981 1201.44 170.471 1201.2 169.121 1201.75C167.543 1202.4 163.222 1202.28 161.735 1202.37C153.063 1202.9 144.67 1203.69 136.244 1205.14" stroke="#4CA4DA" stroke-width="3" stroke-linecap="round"/>
<path d="M174.072 1204.65C174.165 1205.6 171.996 1205.74 170.922 1206.25C164.206 1209.43 157.688 1212.81 151.099 1216.13C133.155 1225.14 115.295 1234.2 97.7428 1243.62C93.2917 1246 88.8166 1248.36 84.1988 1250.58C84.1895 1250.58 77.0442 1253.8 77.6342 1252.93C79.8901 1249.6 84.722 1246.66 88.2935 1244.16C92.2842 1241.37 96.5316 1238.83 100.786 1236.27" stroke="#4CA4DA" stroke-width="3" stroke-linecap="round"/>
<path d="M172.147 1207.98C158.316 1214.52 144.355 1220.82 131.229 1228.11C116.56 1236.25 103.348 1245.38 90.5888 1255.04" stroke="#FF3D3D" stroke-width="3" stroke-linecap="round"/>
<path d="M161.983 1211.07C164.797 1210.81 161.537 1212.96 161.009 1213.31C153.012 1218.65 143.216 1222.93 134.171 1227.23C115.422 1236.15 96.172 1245.35 75.1834 1251.35" stroke="#4CA4DA" stroke-width="3" stroke-linecap="round"/>
<path d="M140.378 1257.51C148.305 1249.48 156.348 1241.55 164.523 1233.66" stroke="#4CA4DA" stroke-width="3" stroke-linecap="round"/>
<path d="M84.858 1253.03C86.7385 1251.95 90.2529 1252.74 92.3405 1253C101.897 1254.2 111.339 1256.06 120.661 1258.09C125.019 1259.05 127.32 1259.58 131.552 1260.67C131.59 1260.68 138.36 1262.13 138.811 1262.75C139.241 1263.34 137.021 1262.48 136.136 1262.32C131.5 1261.44 126.898 1260.46 122.291 1259.5C104.292 1255.74 86.039 1252.63 67.4987 1251.37C58.9021 1250.79 84.7405 1252.06 93.2968 1253C107.92 1254.61 122.863 1257.2 136.598 1261.53C138.629 1262.17 142.83 1263.7 144.906 1264.67C145.678 1265.03 147.494 1265.86 146.724 1266.17C145.979 1266.48 141.917 1266.01 141.884 1266C135.291 1265.22 128.723 1264 122.226 1262.83C109.221 1260.5 96.2504 1257.91 83.5349 1254.74C83.1294 1254.64 77.9831 1253.34 76.9409 1252.83C75.33 1252.04 80.5376 1251.86 82.4393 1251.86C91.8481 1251.87 101.204 1253.14 110.345 1254.97C116.985 1256.3 122.178 1257.54 128.647 1259.36C134.43 1260.98 142.37 1262.88 147.115 1266.14C152.248 1269.67 129.907 1268.33 129.444 1268.31C113.122 1267.33 96.9423 1265.47 80.7113 1263.75" stroke="#4CA4DA" stroke-width="3" stroke-linecap="round"/>
<path d="M95.7986 1250.81C104.18 1252.48 112.884 1253.02 121.196 1254.94C122.393 1255.22 124.54 1255.56 125.572 1256.23C126.747 1256.99 122.591 1256.84 121.053 1256.78C113.628 1256.5 105.937 1255.07 98.7441 1253.59C97.7667 1253.39 95.1833 1252.83 98.3472 1253.06C102.687 1253.38 107.043 1253.88 111.35 1254.43C114.018 1254.77 121.986 1255.88 119.296 1255.71C113.752 1255.37 108.18 1254.99 102.634 1255.05C100.929 1255.07 94.0697 1255.06 99.7795 1255.69C108.136 1256.61 116.307 1257.7 124.409 1259.58" stroke="#FF3D3D" stroke-width="3" stroke-linecap="round"/>
<path d="M461.001 435C449.386 454.393 436.94 473.548 427.001 493.889C417.958 512.396 409.633 531.298 401.001 550" stroke="#FF3D3D" stroke-width="4" stroke-linecap="round"/>
<path d="M439.866 433.405C426.793 460.851 414.226 488.237 398.866 514.405" stroke="#FF3D3D" stroke-width="4" stroke-linecap="round"/>
<path d="M427.866 435.405C415.988 454.156 404.527 473.308 391.977 491.627C390.468 493.831 390.457 494.178 389.866 492.405" stroke="#FF3D3D" stroke-width="4" stroke-linecap="round"/>
<path d="M408.866 434.405C401.253 445.776 393.549 457.083 385.866 468.405" stroke="#FF3D3D" stroke-width="4" stroke-linecap="round"/>
<path d="M106.484 902.49C111.305 888.708 116.294 874.98 121.244 861.244" stroke="#FF3D3D" stroke-width="3" stroke-linecap="round"/>
<path d="M124.598 849C123.165 852.958 123.082 856.93 122.921 861.102C122.249 878.518 123.078 895.891 124.3 913.267C126.142 939.478 127.038 966.097 131.307 992.071" stroke="#FF3D3D" stroke-width="3" stroke-linecap="round"/>
<path d="M116.547 865.112C123.898 889.119 124.652 915.764 127.356 940.443C128.973 955.195 130.505 969.953 132.201 984.696C132.682 988.876 133.719 993.116 132.649 997.228" stroke="#FF3D3D" stroke-width="3" stroke-linecap="round"/>
<path d="M123.927 982.406C134.194 971.505 142.099 958.71 152.552 947.856C164.139 935.822 176.586 924.675 189.003 913.448" stroke="#FF3D3D" stroke-width="3" stroke-linecap="round"/>
<path d="M174.244 925.692C157.44 943.935 141.231 962.687 124.226 980.758C123.306 981.736 115.73 989.558 119.902 982.62C130.947 964.257 147.773 948.658 164.181 934.715" stroke="#FF3D3D" stroke-width="3" stroke-linecap="round"/>
<path d="M179.611 923.115C180.589 950.684 173.851 977.38 172.268 1004.75C172.243 1005.18 172.142 1006.47 172.082 1006.04C171.594 1002.56 171.862 998.796 172.008 995.331C172.572 981.859 174.685 968.624 176.927 955.338" stroke="#FF3D3D" stroke-width="3" stroke-linecap="round"/>
<path d="M185.649 928.27C185.706 928.098 187.266 923.103 185.873 926.48C182.195 935.391 179.908 944.912 177.524 954.192C172.498 973.752 168.334 993.65 161.497 1012.69" stroke="#FF3D3D" stroke-width="3" stroke-linecap="round"/>
<path d="M166.864 1012.05C178.104 1007.91 190.923 1006.45 202.682 1004.17C218.011 1001.2 233.443 998.784 248.862 996.296C274.742 992.12 300.564 987.902 326.536 984.338" stroke="#FF3D3D" stroke-width="3" stroke-linecap="round"/>
<path d="M170.89 1011.41C176.131 1008.72 182.791 1007.21 188.333 1005.6C198.945 1002.54 209.242 1000.01 220.237 998.766C242.943 996.194 265.632 993.685 288.295 990.782" stroke="#FF3D3D" stroke-width="3" stroke-linecap="round"/>
<path d="M343.979 984.982C316.55 1003.12 287.539 1019.21 259.521 1036.5C244.637 1045.69 229.814 1055.1 214.274 1063.25C207.744 1066.67 208.738 1065.11 211.814 1060.38" stroke="#FF3D3D" stroke-width="3" stroke-linecap="round"/>
<path d="M340.624 985.628C313.067 997.729 285.146 1011.16 260.006 1027.48C248.182 1035.16 236.315 1042.68 223.89 1049.43" stroke="#FF3D3D" stroke-width="3" stroke-linecap="round"/>
<path d="M225.902 1054.58C228.989 1055.41 233.668 1054.91 236.599 1054.84C242.667 1054.67 248.705 1054.31 254.751 1053.8C278.113 1051.82 301.462 1049.57 324.784 1047.21C338.807 1045.79 352.882 1043.63 367.013 1043.63C370.143 1043.63 369.942 1043.48 367.46 1044.27" stroke="#FF3D3D" stroke-width="3" stroke-linecap="round"/>
<path d="M239.991 1050.07C271.025 1051.88 302.159 1053.36 333.245 1052.65" stroke="#FF3D3D" stroke-width="3" stroke-linecap="round"/>
<path d="M366.789 1050.07C361.955 1049.88 353.669 1056.65 350.091 1058.74C339.752 1064.79 329.41 1070.78 318.783 1076.35C310.155 1080.88 301.446 1086.1 292.32 1089.67C287.45 1091.58 291.573 1087.42 292.32 1086.16" stroke="#FF3D3D" stroke-width="3" stroke-linecap="round"/>
<path d="M377.523 1039.12C345.083 1056.45 312.416 1073.41 278.903 1088.74" stroke="#FF3D3D" stroke-width="3" stroke-linecap="round"/>
<path d="M301.042 1085.52C300.456 1085.55 296.009 1085.74 296.867 1086.92C299.502 1090.53 308.934 1092.66 312.82 1094.04C328.034 1099.46 343.746 1102.89 359.409 1106.79" stroke="#FF3D3D" stroke-width="3" stroke-linecap="round"/>
<path d="M279.574 1093.25C278.908 1091.33 288.371 1092.82 288.817 1092.89C304.623 1095.44 320.093 1099.89 335.555 1103.85C353.704 1108.49 372.288 1111.24 390.941 1113.23" stroke="#FF3D3D" stroke-width="3" stroke-linecap="round"/>
<path d="M292.991 1092.61C328.791 1101.44 365.232 1106.95 401.675 1112.59" stroke="#FF3D3D" stroke-width="3" stroke-linecap="round"/>
<path d="M113.864 872.202C104.85 910.665 92.4359 947.769 80.3198 985.413C77.7267 993.47 71.9642 1018.11 73.1636 1009.76C74.2669 1002.08 75.8873 994.477 77.6362 986.917" stroke="#FF3D3D" stroke-width="3" stroke-linecap="round"/>
<path d="M138.118 933.869C132.429 959.14 124.594 983.518 116.947 1008.25C115.31 1013.54 111.673 1029.74 112.43 1024.25C113.126 1019.2 114.149 1014.21 115.253 1009.24" stroke="#4CA4DA" stroke-width="3" stroke-linecap="round"/>
<path d="M94.7533 46.0086C103.583 40.8537 120.877 43.8178 130.577 44.5759C136.214 45.0166 153.001 47.3838 147.414 46.5568C134.919 44.7076 121.929 44.15 109.299 43.7233C102.845 43.5053 83.4974 45.1469 89.9118 44.2394C105.069 42.0947 123.045 42.0448 138.106 44.6014C146.024 45.9454 136.079 40.3569 134.019 36.0442C133.17 34.2662 131.524 31.9455 134.174 33.977C139.178 37.814 144.183 41.6509 149.187 45.4878C156.92 51.417 136.069 44.8334 133.291 43.4192C126.731 40.0786 146.839 49.5161 152.678 53.993C156.382 56.8328 143.21 50.491 138.748 52.0553" stroke="#4CA4DA" stroke-width="4" stroke-linecap="round"/>
<path d="M85.0963 51.0174C85.0038 50.2831 84.9113 49.5489 84.8188 48.8146C84.2243 44.0952 84.8856 58.3413 84.8737 63.1052C84.8326 79.5966 83.8355 96.2194 86.4482 112.55C87.0426 116.265 88.1132 121.413 87.5329 113.7C86.4812 99.7251 85.9955 85.7103 85.1091 71.7234C84.6778 64.9185 84.7591 58.2861 85.5148 51.4974C86.017 46.9867 84.7167 48.6803 84.3942 52.5487C82.3626 76.9144 87.923 102.502 94.1293 125.922C94.7516 128.27 95.1823 134.909 97.4683 136.442C98.0234 136.815 102.228 127.101 102.802 126.203C110.003 114.938 125.259 103.463 126.042 89.018C126.128 87.4387 125.384 85.0955 123.389 86.4263C115.793 91.4935 110.727 102.449 106.6 110.17C106.216 110.888 97.4647 125.773 98.3587 126.458C99.8208 127.579 109.949 112.577 110.846 111.197C115.976 103.313 122.545 96.0898 125.435 87.0401C125.952 85.421 128.107 80.0385 127.449 78.8732C124.556 73.7476 104.174 77.3737 109.976 76.222C114.517 75.3205 121.505 75.2228 125.973 76.3879C130.496 77.5671 116.758 78.3793 112.079 78.7104C106.563 79.1007 128.681 77.5864 124.962 77.6031C121.985 77.6166 118.116 78.5352 115.245 77.5559C113.013 76.7943 119.786 76.0771 122.134 75.7528C123.988 75.4967 131.174 74.7417 130.307 77.4027C124.891 94.0338 113.49 107.898 107.154 123.809" stroke="#4CA4DA" stroke-width="4" stroke-linecap="round"/>
<path d="M158.15 75.6656C163.091 75.0878 156.969 81.0097 155.941 82.3862C146.075 95.6009 136.939 109.247 128.543 123.454C126.617 126.712 124.702 129.989 122.815 133.271C122.261 134.234 120.453 136.25 121.581 136.373C123.864 136.623 124.514 132.956 125.785 131.103C131.287 123.085 136.11 114.63 141.344 106.438C146.281 98.7099 151.632 90.9812 158.119 84.4525C160.475 82.0807 165.388 79.2656 166.65 75.9913C168.875 70.2179 156.603 83.3825 152.573 88.0591C142.888 99.2976 134.34 111.33 130.143 125.633" stroke="#4CA4DA" stroke-width="4" stroke-linecap="round"/>
<path d="M170.721 71.9361C169.978 92.9738 164.912 112.244 160.897 132.789C160.466 134.993 160.167 139.131 160.579 133.824C161.435 122.83 162.98 111.895 163.909 100.906C164.615 92.5598 164.801 84.2906 165.109 75.9421C165.385 68.4681 165.615 71.9317 165.592 77.5903C165.521 95.1886 166.961 115.027 160.582 131.749" stroke="#4CA4DA" stroke-width="4" stroke-linecap="round"/>
<path d="M140.361 121.065C143.162 116.031 153.667 112.119 159.147 110.225C164.848 108.255 168.218 107.83 160.028 110.581C154.213 112.535 136.411 117.357 142.328 115.703C148.865 113.875 155.464 112.19 161.968 110.311" stroke="#4CA4DA" stroke-width="4" stroke-linecap="round"/>
<path d="M195.822 79.4503C197.308 78.0871 195.189 83.441 194.443 85.3111C190.198 95.9592 186.197 106.623 182.422 117.442C177.576 131.333 170.888 145.713 172.213 160.615C172.898 168.306 175.093 154.769 175.383 153.231C178.142 138.607 181.536 123.75 185.559 109.39C188.452 99.0638 189.3 85.8199 197.231 77.7148C201.962 72.8793 202.013 87.3556 202.043 88.8048C202.216 97.1075 202.837 106.013 202.087 114.339C201.242 123.72 198.62 95.847 198.866 86.4493C199.177 74.5614 203.669 93.9125 203.862 97.1977C204.122 101.645 205.537 107.21 203.539 111.43C201.626 115.471 202.061 116.811 204.618 112.257C207.546 107.043 211.825 102.319 216.139 98.2454C217.946 96.5399 221.472 89.8692 219.959 91.8423C214.697 98.7052 202.396 121.278 205.071 113.088C208.674 102.057 219.712 96.7074 226.646 88.6038C229.179 85.6438 225.748 103.287 225.473 104.758C222.897 118.533 220.534 133.701 215.317 146.846C215.1 147.394 210.231 158.161 209.662 157.472C208.13 155.62 210.316 150.404 210.792 148.686C212.851 141.254 214.774 133.82 216.567 126.326C219.104 115.731 222.14 105.305 224.81 94.7571C225.471 92.1429 226.787 84.719 228.137 91.8385C231.178 107.869 226.088 124.747 221.383 140.154C219.239 147.174 216.915 162.067 211.49 167.883C210.207 169.259 211.248 164.148 211.561 162.307C212.728 155.441 214.441 148.626 216.173 141.871C218.994 130.868 222.48 120.098 226.228 109.359C226.642 108.174 231.395 95.3534 230.806 100.24C228.408 120.141 217.912 138.254 207.795 155.236" stroke="#4CA4DA" stroke-width="4" stroke-linecap="round"/>
<path d="M248.296 98.1441C250.319 96.185 246.091 111.074 245.874 111.981C243.438 122.173 241.58 132.561 241.411 142.987C241.352 146.599 240.75 151.691 242.167 155.097C242.423 155.713 243.547 145.869 243.658 144.791C245.157 130.207 245.114 115.426 250.266 101.417C253.877 91.5988 244.464 121.656 243.802 132.01C243.594 135.271 240.583 146.681 246 145.866C256.009 144.361 285.072 135.124 275.696 139.169C268.739 142.171 254.13 141.508 249.016 148.178C247.239 150.496 254.504 146.386 257.228 145.427C260.619 144.233 263.945 143.423 266.774 141.136" stroke="#4CA4DA" stroke-width="4" stroke-linecap="round"/>
<path d="M114.937 170.226C111.716 182.615 108.062 195.055 105.786 207.643C105.096 211.461 104.689 215.816 105.748 219.57C107.519 225.85 113.164 221.172 115.959 218.028C123.414 209.642 129.422 198.148 130.763 187.046C131.433 181.496 132.136 171.996 128.287 167.536C116.604 153.999 106.23 209.31 108.415 217.818C110.487 225.891 115.813 224.972 121.129 219.406C130.601 209.49 138.027 193.974 139.278 180.406C140.922 162.582 125.442 154.79 117.707 174.127C111.7 189.143 107.885 207.352 111.002 223.275C113.057 233.771 121.016 227.251 125.441 221.904C135.311 209.977 141.854 195.864 142.145 180.423C142.246 175.058 141.607 160.358 134.829 158.495C124.513 155.659 117.408 180.083 115.545 185.88C111.722 197.768 109.787 209.573 115.769 220.306" stroke="#4CA4DA" stroke-width="4" stroke-linecap="round"/>
<path d="M151.511 178.536C150.879 171.586 154.417 193.003 154.499 194.02C155.416 205.382 154.662 216.716 155.031 228.089C155.339 237.623 156.895 219.456 156.925 218.747C157.501 205.332 158.638 191.374 157.095 178.021C156.142 169.768 154.594 173.428 154.945 180.21C155.597 192.828 156.874 205.323 157.807 217.904C158.091 221.727 159.575 226.07 159.417 229.853C159.392 230.45 161.301 226.218 161.995 224.953C167.978 214.05 173.84 202.966 180.531 192.471C181.384 191.132 190.1 176.891 184.809 183.918C173.116 199.444 145.435 250.902 156.014 234.599C161.973 225.416 166.049 214.568 171.595 205.049C175.487 198.369 181.016 191.326 183.751 184.066C189.354 169.196 169.091 212.343 160.573 225.782" stroke="#4CA4DA" stroke-width="4" stroke-linecap="round"/>
<path d="M189.423 214.522C198.945 210.976 207.316 206.181 216.119 201.225C219.128 199.532 223.587 198.027 225.898 195.296C226.806 194.222 225.603 193.829 224.658 193.869C218 194.146 211.451 198.686 205.868 201.787C200.937 204.526 196.542 207.566 192.109 211.019C189.66 212.926 187.877 214.001 191.851 211.775C201.953 206.115 213.226 201.56 222.91 195.309C226.266 193.142 227.219 193.584 228.388 189.738C229.255 186.886 231.417 179.653 227.497 178.091C224.304 176.818 220.22 182.285 218.622 183.998C209.358 193.925 201.646 205.246 195.819 217.519C193.797 221.778 191.718 226.44 190.395 230.997C188.593 237.206 197.593 220.27 200.816 214.676C206.389 205.003 212.296 195.163 216.559 184.799C218.971 178.933 205.086 193.31 204.233 194.575C196.55 205.976 187.631 221.529 185.582 235.49C184.687 241.588 205.141 232.373 207.202 231.649C212.085 229.932 217.073 228.143 221.773 225.978C227.523 223.329 217.298 226.835 216.542 227.131C210.397 229.538 204.213 231.724 198.012 233.977C195.758 234.795 189.157 236.084 191.438 236.881C193.887 237.737 201.093 232.808 202.891 231.918C207.466 229.653 211.887 226.843 216.653 224.992C227.008 220.97 195.891 233.201 184.985 235.429" stroke="#4CA4DA" stroke-width="4" stroke-linecap="round"/>
<path d="M247.826 188.44C251.611 171.664 236.8 221.084 230.565 237.147C229.842 239.01 226.174 248.182 228.779 240.5C234.332 224.126 241.452 208.321 247.327 192.058C248.917 187.657 252.932 174.459 252.78 179.113C252.665 182.667 250.701 187.02 249.609 190.207C246.021 200.687 242.265 211.111 238.468 221.519C235.965 228.381 229.929 249.388 231.365 242.243C233.855 229.859 238.651 217.926 241.685 205.659C245.724 189.329 252.127 181.5 268.616 189.974C287.663 199.762 254.922 215.702 245.808 218.903C243.578 219.687 257.507 213.673 259.929 212.764C263.543 211.408 273.759 209.46 276.318 206.123C279.949 201.387 251.099 194.092 250.846 190.435C250.611 187.014 267.371 188.797 268.265 193.706C268.414 194.523 266.613 193.54 265.784 193.565C263.72 193.628 264.508 195.311 265.343 196.187C267.652 198.612 273.655 202.578 269.323 205.321C258.579 212.123 228.541 235.593 237.821 226.865C239.213 225.556 247.98 221.115 247.985 219.133C247.987 218.65 255.249 225.041 256.054 225.799C262.28 231.667 268.088 238.021 273.816 244.379C281.604 253.024 258.891 226.487 250.777 218.152C247.359 214.641 257.428 225.383 261.14 228.578C267.867 234.369 275.091 239.594 282.132 244.993" stroke="#4CA4DA" stroke-width="4" stroke-linecap="round"/>
<path d="M319.276 182.425C327.117 173.217 315.977 187.956 314.011 190.234C310.196 194.654 305.089 199.416 302.477 204.754C299.992 209.834 310.354 206.591 311.928 206.241C318.904 204.69 329.792 199.46 336.982 200.772C338.786 201.101 336.377 203.614 334.996 203.362" stroke="#4CA4DA" stroke-width="4" stroke-linecap="round"/>
<path d="M332.414 202.942C333.194 202.203 333.953 201.442 334.754 200.725C336.087 199.531 336.514 199.202 335.245 201.022C331.459 206.452 327.214 211.638 323.172 216.873C314.149 228.56 304.931 240.158 295.104 251.187C292.236 254.407 285.05 264.181 285.545 259.902C285.8 257.703 289.141 254.01 290.143 252.758C297.222 243.912 305.1 235.662 312.853 227.412C320.592 219.178 328.58 211.696 335.466 202.715C339.922 196.903 337.584 196.885 330.126 198.941C321.332 201.366 313.503 205.672 305.052 208.917C300.436 210.69 304.995 205.175 306.083 203.611C310.037 197.927 314.487 192.545 318.699 187.052C320.281 184.989 322.81 179.947 325.369 178.769C330.159 176.565 319.169 188.609 327.859 181.881C329.662 180.485 344.706 169.727 336.183 175.508" stroke="#4CA4DA" stroke-width="4" stroke-linecap="round"/>
<path d="M119.443 249.833C155.405 250.546 191.198 251.004 226.742 256.438C251.448 260.215 276.138 264.774 300.546 270.041C321.353 274.531 341.245 281.703 361.838 286.77C364.709 287.476 373.132 289.04 370.217 289.652C365.502 290.642 360.044 293.886 355.33 295.464C329.801 304.009 304.627 309.125 277.815 310.407C277.276 310.432 253.892 309.964 262.181 307.918C269.641 306.076 277.461 304.399 285.05 303.236C292.998 302.019 284.894 304.094 281.813 304.779C275.541 306.173 268.719 306.269 262.327 306.903C255.144 307.615 276.281 302.827 283.436 301.838C305.31 298.814 327.213 296.97 348.967 292.839C350.845 292.482 367.255 289.903 362.939 284.716C361.234 282.667 357.361 282.362 355.014 281.86C345.906 279.911 336.708 278.69 327.444 277.625C287.007 272.977 246.714 267.723 206.373 262.393C186.765 259.802 127.942 252.71 147.262 256.835C150.95 257.622 154.814 258.659 158.601 258.123" stroke="#4CA4DA" stroke-width="4" stroke-linecap="round"/>
</svg>
