<svg width="43" height="43" viewBox="0 0 43 43" fill="none" xmlns="http://www.w3.org/2000/svg">
<path d="M26.3109 10.0521C26.3771 9.9392 27.2413 8.28265 26.9218 8.3831C22.9791 9.62272 18.9266 16.1311 16.5232 19.1916C14.6727 21.5481 13.1193 24.0492 11.606 26.6277C10.888 27.851 8.26039 30.8676 9.5907 30.3755C11.236 29.7668 12.9636 27.0031 13.9224 25.8214C17.5599 21.3382 21.0282 16.7169 24.6003 12.1816C24.6576 12.1088 27.6415 7.66205 26.5388 8.2505C23.005 10.1364 19.9009 14.5481 17.4344 17.5606C14.9181 20.6336 7.72343 30.1256 10.3088 27.1105C15.7063 20.816 20.411 13.8838 25.6655 7.4615C27.3607 5.38964 24.8705 6.75301 24.0696 7.35427C18.883 11.2481 14.5164 16.8559 11.1625 22.3584C10.0105 24.2484 3.60785 36.8914 8.95736 29.7273" stroke="#4CA4DA" stroke-width="3" stroke-linecap="round"/>
<path d="M12.4676 9.48401C12.3995 9.32767 11.2163 7.44208 10.9432 8.31281C10.2234 10.6074 14.8023 15.8527 15.8387 17.6372C17.8391 21.0818 25.9984 29.8176 22.9791 27.2194C18.2197 23.1237 15.3953 17.2654 12.1921 11.9949C7.16178 3.71848 24.9188 26.5982 31.3518 33.8383" stroke="#4CA4DA" stroke-width="3" stroke-linecap="round"/>
</svg>
