<svg width="187" height="295" viewBox="0 0 187 295" fill="none" xmlns="http://www.w3.org/2000/svg">
<path d="M2 143.149C13.7973 190.162 23.246 237.821 33.1323 285.275" stroke="#FF3D3D" stroke-width="3" stroke-linecap="round"/>
<path d="M15.5367 170.221C15.3076 174.116 14.1831 173.737 14.1831 169.996C14.1831 161.206 15.5523 152.809 18.9206 144.654C20.5099 140.806 24.3665 130.536 29.3732 137.284C39.4749 150.9 39.9641 170.435 38.2467 186.464C37.2089 196.15 35.8809 208.547 31.0276 217.371C27.485 223.812 26.1134 213.8 25.6885 211.505C25.124 208.457 28.5349 186.85 32.4564 193.909C33.7393 196.218 31.999 204.437 31.7796 201.805C31.2056 194.916 37.712 167.873 48.6993 176.012C57.1955 182.305 59.5553 196.508 59.6031 206.166C59.6933 224.383 57.2029 245.029 48.6241 261.362C44.6031 269.017 41.578 269.571 37.1939 261.964C36.2023 260.243 32.8035 254.143 34.4868 254.143" stroke="#FF3D3D" stroke-width="3" stroke-linecap="round"/>
<path d="M64.2656 106.603C64.2656 82.2214 64.9463 155.628 69.6799 179.545C70.7941 185.175 74.1837 200.443 82.1629 201.202C93.909 202.321 95.4214 167.518 95.7738 161.723C96.9857 141.795 95.5728 120.757 89.1564 101.715C87.1175 95.6638 81.8527 81.0955 72.9134 82.8397C57.3857 85.8695 58.125 115.807 58.0241 126.305C57.8717 142.15 59.1757 158.158 62.4608 173.68C66.0675 190.721 73.3654 204.718 80.5085 220.303" stroke="#FF3D3D" stroke-width="3" stroke-linecap="round"/>
<path d="M103.519 93.0672C101.521 89.3207 102.15 93.8201 102.315 95.8495C103.027 104.571 104.56 113.701 107.579 121.943C108.91 125.576 111.475 130.306 115.626 131.343C120.932 132.67 123.052 118.927 123.672 116.003C125.875 105.615 125.923 83.6587 115.024 77.2003C108.402 73.2763 105.335 86.4112 104.722 90.2096C102.164 106.054 107.63 120.545 112.994 135.028" stroke="#FF3D3D" stroke-width="3" stroke-linecap="round"/>
<path d="M136.005 133.674C140.527 109.805 143.891 86.4112 145.179 62.0852C145.854 49.3292 146.581 35.2832 143.45 22.7563C140.254 9.97601 145.199 30.8392 146.082 33.6601C150.988 49.3413 155.009 65.4037 160.971 80.7345C163.523 87.2968 166.204 70.0675 166.611 68.2515C170.16 52.4158 172.456 35.9211 176.612 20.2748C177.38 17.3858 176.763 7.98053 176.763 12.2285C176.763 45.6263 181.237 80.1566 184.734 113.371" stroke="#FF3D3D" stroke-width="3" stroke-linecap="round"/>
<path d="M183.38 107.957C181.461 77.2488 179.668 46.4139 176.913 15.7629C176.645 12.785 176.373 9.70708 176.913 6.7391C176.98 6.37048 178.505 2.30881 177.891 2.00158C177.522 1.81724 173.968 17.8438 173.905 18.1693C171.287 31.7663 168.916 45.4242 166.611 59.0774C166.226 61.3535 163.658 82.823 160.068 73.5155C154.996 60.3649 153.424 46.2695 150.293 32.6074C149.615 29.65 148.805 26.7208 148.262 23.734C147.679 20.5279 148.187 30.2511 148.187 33.5098C148.187 69.2942 143.155 102.701 136.005 137.735" stroke="#FF3D3D" stroke-width="3" stroke-linecap="round"/>
<path d="M68.3262 167.514C67.9908 172.544 66.4169 164.2 66.2206 163.302C64.6832 156.275 63.8048 149.276 63.2127 142.096C61.8799 125.937 64.4173 108.702 68.3262 93.0669" stroke="#FF3D3D" stroke-width="3" stroke-linecap="round"/>
<path d="M66.9723 144.503C66.3495 141.078 64.1478 138.308 63.5884 134.728C62.3881 127.046 62.8255 119.017 62.9116 111.266C63.0156 101.906 65.8251 85.5196 75.0938 80.8853" stroke="#FF3D3D" stroke-width="3" stroke-linecap="round"/>
<path d="M65.6183 125.553C61.2022 113.961 66.1749 90.6257 79.1541 86.2993" stroke="#FF3D3D" stroke-width="3" stroke-linecap="round"/>
<path d="M81.8621 89.0063C68.9165 89.0063 64.9663 104.813 62.912 115.326C57.1677 144.723 69.2342 176.455 77.8013 204.06" stroke="#FF3D3D" stroke-width="3" stroke-linecap="round"/>
<path d="M114.347 82.2386C114.154 80.5026 113.091 77.7802 110.963 78.253C105.851 79.3892 105.404 95.8596 105.474 99.5343C105.637 108.078 109.262 127.716 117.13 133.223C123.009 137.339 130.382 116.183 131.944 112.017" stroke="#FF3D3D" stroke-width="3" stroke-linecap="round"/>
<path d="M7.41389 141.796C7.24193 138.013 5.71746 126.745 6.06031 130.516C7.19773 143.028 11.7496 155.622 14.4826 167.815C23.8881 209.778 30.9004 252.351 43.9605 293.397" stroke="#FF3D3D" stroke-width="3" stroke-linecap="round"/>
<path d="M26.3652 218.95C29.7587 200.71 34.0408 182.833 38.5474 164.807" stroke="#FF3D3D" stroke-width="3" stroke-linecap="round"/>
<path d="M14.8252 156.86C23.2953 177.431 25.3806 201.019 30.485 222.614C33.7614 236.476 36.7596 250.396 39.7424 264.316" stroke="#4CA4DA" stroke-width="3" stroke-linecap="round"/>
<path d="M17.9399 177.106C18.589 172.779 23.8749 139.478 32.7345 152.534C43.2906 168.091 35.609 197.433 31.9559 214.481" stroke="#4CA4DA" stroke-width="3" stroke-linecap="round"/>
<path d="M30.3984 216.039C31.6968 211.312 41.2504 166.474 52.8932 185.325C64.5266 204.16 51.7227 236.848 35.0704 248.742" stroke="#4CA4DA" stroke-width="3" stroke-linecap="round"/>
<path d="M72.4464 91.4526C62.0977 120.304 59.3175 152.626 69.4183 182.297C70.6304 185.857 74.6157 198.294 80.4061 194.755C88.1656 190.013 91.6299 180.578 94.1625 172.347C101.088 149.838 100.223 123.647 89.577 102.354C79.1314 81.4627 64.315 104.946 59.9878 117.927" stroke="#4CA4DA" stroke-width="3" stroke-linecap="round"/>
<path d="M108.265 88.3379C111.435 98.5527 111.06 110.232 115.359 120.004C119.872 130.261 125.449 113.051 126.001 109.189C127.241 100.51 124.498 90.0883 117.955 84.012C109.609 76.2628 109.625 99.6002 109.822 102.354" stroke="#4CA4DA" stroke-width="3" stroke-linecap="round"/>
<path d="M140.969 125.714C143.207 104.453 145.262 83.1551 147.198 61.8633" stroke="#4CA4DA" stroke-width="3" stroke-linecap="round"/>
<path d="M142.526 22.9302C136.294 23.7092 151.335 61.2535 152.389 64.4589C156.617 77.3133 159.494 90.8033 162.771 103.911" stroke="#4CA4DA" stroke-width="3" stroke-linecap="round"/>
<path d="M161.214 91.4526C166.04 74.7037 172.197 58.4487 176.787 41.6182" stroke="#4CA4DA" stroke-width="3" stroke-linecap="round"/>
<path d="M175.23 22.9302C175.23 53.166 181.459 83.0095 181.459 113.255" stroke="#4CA4DA" stroke-width="3" stroke-linecap="round"/>
<path d="M2 143.149C13.7973 190.162 23.246 237.821 33.1323 285.275" stroke="#FF3D3D" stroke-width="3" stroke-linecap="round"/>
<path d="M183.38 107.957C181.461 77.2488 179.668 46.4139 176.913 15.7629C176.645 12.785 176.373 9.70708 176.913 6.7391C176.98 6.37048 178.505 2.30881 177.891 2.00158C177.522 1.81724 173.968 17.8438 173.905 18.1693C171.287 31.7663 168.916 45.4242 166.611 59.0774C166.226 61.3535 163.658 82.823 160.068 73.5155C154.996 60.3649 153.424 46.2695 150.293 32.6074C149.615 29.65 148.805 26.7208 148.262 23.734C147.679 20.5279 148.187 30.2511 148.187 33.5098C148.187 69.2942 143.155 102.701 136.005 137.735" stroke="#FF3D3D" stroke-width="3" stroke-linecap="round"/>
<path d="M65.6183 125.553C61.2022 113.961 66.1749 90.6257 79.1541 86.2993" stroke="#FF3D3D" stroke-width="3" stroke-linecap="round"/>
<path d="M114.347 82.2386C114.154 80.5026 113.091 77.7802 110.963 78.253C105.851 79.3892 105.404 95.8596 105.474 99.5343C105.637 108.078 109.262 127.716 117.13 133.223C123.009 137.339 130.382 116.183 131.944 112.017" stroke="#FF3D3D" stroke-width="3" stroke-linecap="round"/>
<path d="M7.41389 141.796C7.24193 138.013 5.71746 126.745 6.06031 130.516C7.19773 143.028 11.7496 155.622 14.4826 167.815C23.8881 209.778 30.9004 252.351 43.9605 293.397" stroke="#FF3D3D" stroke-width="3" stroke-linecap="round"/>
<path d="M30.3984 216.039C31.6968 211.312 41.2504 166.474 52.8932 185.325C64.5266 204.16 51.7227 236.848 35.0704 248.742" stroke="#4CA4DA" stroke-width="3" stroke-linecap="round"/>
<path d="M72.4464 91.4526C62.0977 120.304 59.3175 152.626 69.4183 182.297C70.6304 185.857 74.6157 198.294 80.4061 194.755C88.1656 190.013 91.6299 180.578 94.1625 172.347C101.088 149.838 100.223 123.647 89.577 102.354C79.1314 81.4627 64.315 104.946 59.9878 117.927" stroke="#4CA4DA" stroke-width="3" stroke-linecap="round"/>
<path d="M108.265 88.3379C111.435 98.5527 111.06 110.232 115.359 120.004C119.872 130.261 125.449 113.051 126.001 109.189C127.241 100.51 124.498 90.0883 117.955 84.012C109.609 76.2628 109.625 99.6002 109.822 102.354" stroke="#4CA4DA" stroke-width="3" stroke-linecap="round"/>
<path d="M161.214 91.4526C166.04 74.7037 172.197 58.4487 176.787 41.6182" stroke="#4CA4DA" stroke-width="3" stroke-linecap="round"/>
<path d="M175.23 22.9302C175.23 53.166 181.459 83.0095 181.459 113.255" stroke="#4CA4DA" stroke-width="3" stroke-linecap="round"/>
<path d="M64.2656 106.603C64.2656 82.2214 64.9463 155.628 69.6799 179.545C70.7941 185.175 74.1837 200.443 82.1629 201.202C93.909 202.321 95.4214 167.518 95.7738 161.723C96.9857 141.795 95.5728 120.757 89.1564 101.715C87.1175 95.6638 81.8527 81.0955 72.9134 82.8397C57.3857 85.8695 58.125 115.807 58.0241 126.305C57.8717 142.15 59.1757 158.158 62.4608 173.68C66.0675 190.721 73.3654 204.718 80.5085 220.303" stroke="#FF3D3D" stroke-width="3" stroke-linecap="round"/>
<path d="M66.9723 144.503C66.3495 141.078 64.1478 138.308 63.5884 134.728C62.3881 127.046 62.8255 119.017 62.9116 111.266C63.0156 101.906 65.8251 85.5196 75.0938 80.8853" stroke="#FF3D3D" stroke-width="3" stroke-linecap="round"/>
<path d="M142.526 22.9302C136.294 23.7092 151.335 61.2535 152.389 64.4589C156.617 77.3133 159.494 90.8033 162.771 103.911" stroke="#4CA4DA" stroke-width="3" stroke-linecap="round"/>
<path d="M2 143.149C13.7973 190.162 23.246 237.821 33.1323 285.275" stroke="#FF3D3D" stroke-width="3" stroke-linecap="round"/>
<path d="M183.38 107.957C181.461 77.2488 179.668 46.4139 176.913 15.7629C176.645 12.785 176.373 9.70708 176.913 6.7391C176.98 6.37048 178.505 2.30881 177.891 2.00158C177.522 1.81724 173.968 17.8438 173.905 18.1693C171.287 31.7663 168.916 45.4242 166.611 59.0774C166.226 61.3535 163.658 82.823 160.068 73.5155C154.996 60.3649 153.424 46.2695 150.293 32.6074C149.615 29.65 148.805 26.7208 148.262 23.734C147.679 20.5279 148.187 30.2511 148.187 33.5098C148.187 69.2942 143.155 102.701 136.005 137.735" stroke="#FF3D3D" stroke-width="3" stroke-linecap="round"/>
<path d="M65.6183 125.553C61.2022 113.961 66.1749 90.6257 79.1541 86.2993" stroke="#FF3D3D" stroke-width="3" stroke-linecap="round"/>
<path d="M114.347 82.2386C114.154 80.5026 113.091 77.7802 110.963 78.253C105.851 79.3892 105.404 95.8596 105.474 99.5343C105.637 108.078 109.262 127.716 117.13 133.223C123.009 137.339 130.382 116.183 131.944 112.017" stroke="#FF3D3D" stroke-width="3" stroke-linecap="round"/>
<path d="M7.41389 141.796C7.24193 138.013 5.71746 126.745 6.06031 130.516C7.19773 143.028 11.7496 155.622 14.4826 167.815C23.8881 209.778 30.9004 252.351 43.9605 293.397" stroke="#FF3D3D" stroke-width="3" stroke-linecap="round"/>
<path d="M30.3984 216.039C31.6968 211.312 41.2504 166.474 52.8932 185.325C64.5266 204.16 51.7227 236.848 35.0704 248.742" stroke="#4CA4DA" stroke-width="3" stroke-linecap="round"/>
<path d="M72.4464 91.4526C62.0977 120.304 59.3175 152.626 69.4183 182.297C70.6304 185.857 74.6157 198.294 80.4061 194.755C88.1656 190.013 91.6299 180.578 94.1625 172.347C101.088 149.838 100.223 123.647 89.577 102.354C79.1314 81.4627 64.315 104.946 59.9878 117.927" stroke="#4CA4DA" stroke-width="3" stroke-linecap="round"/>
<path d="M108.265 88.3379C111.435 98.5527 111.06 110.232 115.359 120.004C119.872 130.261 125.449 113.051 126.001 109.189C127.241 100.51 124.498 90.0883 117.955 84.012C109.609 76.2628 109.625 99.6002 109.822 102.354" stroke="#4CA4DA" stroke-width="3" stroke-linecap="round"/>
<path d="M161.214 91.4526C166.04 74.7037 172.197 58.4487 176.787 41.6182" stroke="#4CA4DA" stroke-width="3" stroke-linecap="round"/>
<path d="M175.23 22.9302C175.23 53.166 181.459 83.0095 181.459 113.255" stroke="#4CA4DA" stroke-width="3" stroke-linecap="round"/>
</svg>
