<svg width="77" height="69" viewBox="0 0 77 69" fill="none" xmlns="http://www.w3.org/2000/svg">
<g clip-path="url(#clip0_1114_351)">
<path d="M46.1175 0.00662481L18.0448 1.83224C16.0644 1.96103 14.5589 3.74356 14.6821 5.81365L18.2331 65.4763C18.3563 67.5464 20.0616 69.1201 22.042 68.9913L50.1147 67.1657C52.0951 67.0369 53.6007 65.2544 53.4775 63.1843L49.9264 3.52165C49.8032 1.45157 48.0979 -0.122163 46.1175 0.00662481Z" fill="#E94A4B"/>
<path d="M8.38895 4.06689V31.9704H6.10009V4.46657H2.28886V31.9704H0V4.06689H8.38895Z" fill="white"/>
<path d="M16.3443 23.2604H13.5215L12.6458 31.2336H12.1489L14.6668 8.35271L14.0924 3.33008H16.4218L19.6234 31.2336H17.2605L16.3443 23.2604ZM16.3073 22.8626L15.0087 11.2628H14.8571L13.5585 22.8626H16.3073Z" fill="white"/>
<path d="M40.1826 11.5612C41.2292 19.9802 34.338 22.4022 31.1998 22.8295L32.183 30.7364L29.9136 31.044L26.4741 3.37437L28.7436 3.06678C31.8817 2.64132 39.136 3.1423 40.1826 11.5631V11.5612ZM37.5343 11.9204C36.5176 3.7372 31.3637 3.11099 28.7929 3.46093L31.1523 22.4353C33.723 22.0854 38.5527 20.1036 37.536 11.9222L37.5343 11.9204Z" fill="white"/>
<path d="M48.8887 23.0763H46.066C45.8052 25.5204 45.5444 27.9626 45.2836 30.4067H48.1029V30.9593C46.9664 30.9887 45.8299 31.0201 44.6934 31.0495L47.2113 8.16863L46.6369 3.146H48.9662C50.0287 12.2317 51.093 21.3192 52.1555 30.4049H55.3271V30.9574C53.4858 30.9869 51.6463 31.0182 49.805 31.0477L48.8887 23.0745V23.0763ZM48.8517 22.6785L47.5531 11.0787H47.4016L46.103 22.6785H48.8517ZM53.9175 31.8802L66.7802 30.7751L53.9175 31.8802Z" fill="white"/>
<path d="M11.8374 64.7546V36.8511H18.7022V37.2507H14.1263V64.7546H11.8374Z" fill="white"/>
<path d="M23.0385 56.0521C21.8826 47.6479 28.7421 45.1283 31.875 44.6586C31.2354 40.0301 30.5958 35.4035 29.9544 30.775C30.6592 30.7142 31.364 30.6516 32.0688 30.5908C33.6634 41.743 35.2563 52.8934 36.8509 64.0456L34.585 64.3863C31.4539 64.856 24.1926 64.4563 23.0367 56.0521H23.0385ZM25.6815 55.6543C26.8039 63.8227 31.9649 64.3753 34.5321 63.9903L31.9296 45.0509C29.3641 45.4359 24.5609 47.4877 25.6833 55.6543H25.6815Z" fill="white"/>
<path d="M47.0037 63.6181H51.5796V64.0178H44.7148V36.1143H51.5796V36.5139H47.0037V46.0803H49.2926V46.48H47.0037V63.6181Z" fill="white"/>
<path d="M56.4072 55.1882H59.0767C59.0767 63.4395 64.1107 64.7546 66.7027 64.7546C69.2946 64.7546 74.3287 63.4377 74.3287 55.1882C74.3287 46.9387 69.2946 45.1429 66.7027 45.1429V44.467C69.2946 44.467 70.5157 42.9512 70.5157 40.4408C70.5157 37.9304 69.2946 36.8529 66.7027 36.8529C64.1107 36.8529 62.8897 37.9285 62.8897 40.4408H60.6008C60.6008 37.8493 63.5381 36.4551 66.7027 36.4551C69.8672 36.4551 72.8045 37.8493 72.8045 40.4408C72.8045 42.7523 70.4011 44.5057 68.0753 44.7856V44.8648C71.1641 45.1448 76.9999 47.4949 76.9999 55.19C76.9999 63.6808 69.8672 65.1561 66.7044 65.1561C63.5416 65.1561 56.409 63.6808 56.409 55.19L56.4072 55.1882Z" fill="white"/>
</g>
<defs>
<clipPath id="clip0_1114_351">
<rect width="77" height="69" fill="white"/>
</clipPath>
</defs>
</svg>
