<svg width="139" height="119" viewBox="0 0 139 119" fill="none" xmlns="http://www.w3.org/2000/svg">
<g clip-path="url(#clip0_815_646)">
<path d="M83.2508 0.0108308L32.574 3.15935C28.999 3.38147 26.2812 6.4557 26.5036 10.0258L32.9139 112.922C33.1363 116.492 36.2147 119.207 39.7897 118.984L90.4665 115.836C94.0414 115.614 96.7592 112.54 96.5368 108.969L90.1266 6.07298C89.9041 2.50284 86.8257 -0.211281 83.2508 0.0108308Z" fill="#B1B2A1"/>
<path d="M15.1437 7.01367V55.1372H11.0119V7.70297H4.13183V55.1372H0V7.01367H15.1437Z" fill="white"/>
<path d="M29.5049 40.1157H24.4093L22.8284 53.8666H21.9315L26.4768 14.4054L25.4399 5.74316H29.6448L35.4243 53.8666H31.1589L29.5049 40.1157ZM29.4381 39.4296L27.0939 19.4242H26.8203L24.4761 39.4296H29.4381Z" fill="white"/>
<path d="M72.5377 19.939C74.427 34.4586 61.987 38.6357 56.322 39.3726L58.0969 53.0092L54.0001 53.5397L47.7912 5.81959L51.888 5.28912C57.553 4.55536 70.6483 5.41936 72.5377 19.9422V19.939ZM67.7569 20.5584C65.9216 6.44536 56.6179 5.36536 51.9771 5.96889L56.2362 38.6929C60.8769 38.0893 69.5954 34.6715 67.7601 20.5616L67.7569 20.5584Z" fill="white"/>
<path d="M88.2539 39.7983H83.1582C82.6875 44.0135 82.2167 48.2255 81.746 52.4407H86.8352V53.3936C84.7836 53.4444 82.732 53.4984 80.6804 53.5493L85.2258 14.088L84.1888 5.42578H88.3938C90.3118 21.0953 92.233 36.768 94.151 52.4375H99.8764V53.3904C96.5525 53.4413 93.2318 53.4953 89.9079 53.5461L88.2539 39.7952V39.7983ZM88.1871 39.1122L85.8428 19.1068H85.5693L83.225 39.1122H88.1871ZM97.3318 54.9819L120.551 53.076L97.3318 54.9819Z" fill="white"/>
<path d="M21.3685 111.678V63.5547H33.7608V64.244H25.5003V111.678H21.3685Z" fill="white"/>
<path d="M41.5887 96.6693C39.5021 82.1751 51.8849 77.8297 57.5403 77.0197C56.3857 69.0372 55.2311 61.0579 54.0733 53.0755C55.3456 52.9706 56.6179 52.8626 57.8902 52.7578C60.7688 71.9913 63.6442 91.2217 66.5228 110.455L62.4323 111.043C56.7801 111.853 43.6721 111.164 41.5855 96.6693H41.5887ZM46.3599 95.9832C48.386 110.071 57.7025 111.024 62.3369 110.36L57.6389 77.6963C53.0077 78.3601 44.3369 81.8987 46.363 95.9832H46.3599Z" fill="white"/>
<path d="M84.8505 109.718H93.1109V110.408H80.7186V62.2842H93.1109V62.9735H84.8505V79.472H88.9823V80.1613H84.8505V109.718Z" fill="white"/>
<path d="M101.826 95.1799H106.645C106.645 109.41 115.733 111.678 120.412 111.678C125.09 111.678 134.178 109.407 134.178 95.1799C134.178 80.9525 125.09 77.8555 120.412 77.8555V76.6897C125.09 76.6897 127.295 74.0755 127.295 69.746C127.295 65.4164 125.09 63.5582 120.412 63.5582C115.733 63.5582 113.528 65.4132 113.528 69.746H109.396C109.396 65.2767 114.699 62.8721 120.412 62.8721C126.124 62.8721 131.427 65.2767 131.427 69.746C131.427 73.7324 127.088 76.7564 122.889 77.2392V77.3758C128.465 77.8586 139 81.9118 139 95.1831C139 109.827 126.124 112.371 120.415 112.371C114.705 112.371 101.829 109.827 101.829 95.1831L101.826 95.1799Z" fill="white"/>
</g>
<defs>
<clipPath id="clip0_815_646">
<rect width="139" height="119" fill="white"/>
</clipPath>
</defs>
</svg>
