<svg width="77" height="69" viewBox="0 0 77 69" fill="none" xmlns="http://www.w3.org/2000/svg">
<g clip-path="url(#clip0_815_917)">
<path d="M46.1173 0.00662481L18.0446 1.83224C16.0642 1.96103 14.5586 3.74356 14.6818 5.81365L18.2328 65.4763C18.356 67.5464 20.0613 69.1201 22.0417 68.9913L50.1145 67.1657C52.0949 67.0369 53.6004 65.2544 53.4772 63.1843L49.9262 3.52165C49.803 1.45157 48.0977 -0.122163 46.1173 0.00662481Z" fill="#E94A4B"/>
<path d="M8.38895 4.06689V31.9704H6.10009V4.46657H2.28886V31.9704H0V4.06689H8.38895Z" fill="white"/>
<path d="M16.3444 23.2604H13.5217L12.6459 31.2336H12.149L14.667 8.35271L14.0926 3.33008H16.4219L19.6235 31.2336H17.2607L16.3444 23.2604ZM16.3074 22.8626L15.0088 11.2628H14.8573L13.5587 22.8626H16.3074Z" fill="white"/>
<path d="M40.1827 11.5612C41.2293 19.9802 34.3381 22.4022 31.2 22.8295L32.1832 30.7364L29.9137 31.044L26.4742 3.37437L28.7437 3.06678C31.8819 2.64132 39.1361 3.1423 40.1827 11.5631V11.5612ZM37.5344 11.9204C36.5177 3.7372 31.3638 3.11099 28.7931 3.46093L31.1524 22.4353C33.7232 22.0854 38.5528 20.1036 37.5362 11.9222L37.5344 11.9204Z" fill="white"/>
<path d="M48.8888 23.0763H46.0661C45.8053 25.5204 45.5445 27.9626 45.2838 30.4067H48.103V30.9593C46.9665 30.9887 45.83 31.0201 44.6935 31.0495L47.2114 8.16863L46.637 3.146H48.9664C50.0289 12.2317 51.0931 21.3192 52.1556 30.4049H55.3272V30.9574C53.4859 30.9869 51.6464 31.0182 49.8051 31.0477L48.8888 23.0745V23.0763ZM48.8518 22.6785L47.5532 11.0787H47.4017L46.1031 22.6785H48.8518ZM53.9176 31.8802L66.7803 30.7751L53.9176 31.8802Z" fill="white"/>
<path d="M11.8372 64.7546V36.8511H18.702V37.2507H14.126V64.7546H11.8372Z" fill="white"/>
<path d="M23.0384 56.0521C21.8825 47.6479 28.742 45.1283 31.8749 44.6586C31.2353 40.0301 30.5957 35.4035 29.9543 30.775C30.6591 30.7142 31.3639 30.6516 32.0687 30.5908C33.6633 41.743 35.2562 52.8934 36.8508 64.0456L34.5849 64.3863C31.4538 64.856 24.1925 64.4563 23.0366 56.0521H23.0384ZM25.6814 55.6543C26.8038 63.8227 31.9647 64.3753 34.532 63.9903L31.9295 45.0509C29.364 45.4359 24.5608 47.4877 25.6832 55.6543H25.6814Z" fill="white"/>
<path d="M47.0035 63.6181H51.5794V64.0178H44.7146V36.1143H51.5794V36.5139H47.0035V46.0803H49.2923V46.48H47.0035V63.6181Z" fill="white"/>
<path d="M56.4073 55.1882H59.0768C59.0768 63.4395 64.1109 64.7546 66.7028 64.7546C69.2947 64.7546 74.3288 63.4377 74.3288 55.1882C74.3288 46.9387 69.2947 45.1429 66.7028 45.1429V44.467C69.2947 44.467 70.5158 42.9512 70.5158 40.4408C70.5158 37.9304 69.2947 36.8529 66.7028 36.8529C64.1109 36.8529 62.8898 37.9285 62.8898 40.4408H60.6009C60.6009 37.8493 63.5382 36.4551 66.7028 36.4551C69.8674 36.4551 72.8046 37.8493 72.8046 40.4408C72.8046 42.7523 70.4013 44.5057 68.0754 44.7856V44.8648C71.1642 45.1448 77 47.4949 77 55.19C77 63.6808 69.8674 65.1561 66.7046 65.1561C63.5417 65.1561 56.4091 63.6808 56.4091 55.19L56.4073 55.1882Z" fill="white"/>
</g>
<defs>
<clipPath id="clip0_815_917">
<rect width="77" height="69" fill="white"/>
</clipPath>
</defs>
</svg>
