<svg width="254" height="100" viewBox="0 0 254 100" fill="none" xmlns="http://www.w3.org/2000/svg">
<path fill-rule="evenodd" clip-rule="evenodd" d="M30.1371 0.055473C26.6699 0.415221 24.2247 2.23585 23.203 5.21844C22.7793 6.45496 22.637 7.4906 22.5827 9.7327C22.5034 13.0064 22.7951 15.5931 23.4607 17.5171C23.885 18.7435 24.9156 20.7114 25.7588 21.905C26.1772 22.4971 27.6044 24.3542 28.9307 26.0318C33.1813 31.4087 33.7003 32.2008 34.1451 33.9913C34.4718 35.3067 34.5747 38.6022 34.3376 40.1616C34.1272 41.5449 33.8127 42.1189 33.0786 42.4588C32.197 42.8669 30.9764 42.6883 30.3641 42.0616C29.614 41.2936 29.5055 40.3841 29.5055 34.859V30.7417H25.8512H22.1968L22.1996 36.2366C22.2011 39.2589 22.2417 42.0343 22.2899 42.4044C22.5004 44.0224 23.0444 45.5098 23.8358 46.6317C24.9575 48.2215 27.0907 49.3461 29.5957 49.6683C30.5169 49.7868 33.3377 49.7826 34.3329 49.6613C38.5955 49.142 41.285 46.4061 42.0842 41.7764C42.3516 40.2277 42.4446 37.975 42.3346 35.7135C42.1769 32.4717 41.7973 30.7768 40.7688 28.7232C40.05 27.2881 39.0179 25.8249 35.9701 21.92C31.8652 16.6608 31.2567 15.7859 30.7234 14.3773C30.3538 13.4008 30.2146 12.5866 30.1619 11.0907C30.1063 9.51317 30.2352 8.12083 30.49 7.54811C30.81 6.82888 31.6615 6.44455 32.6635 6.56692C33.5251 6.67215 34.0024 7.04607 34.2629 7.82011C34.393 8.2066 34.4185 8.83064 34.4468 12.3282L34.4798 16.3877H38.0381H41.5964L41.5959 11.6553C41.5954 6.62092 41.5497 5.91121 41.1412 4.59045C40.813 3.52897 40.3619 2.77189 39.6153 2.02969C38.6341 1.05407 37.5082 0.519198 35.7289 0.183493C34.8626 0.0200363 31.2713 -0.0622301 30.1371 0.055473ZM0 24.7758V49.1329H3.69947H7.39893V38.4122V27.6915H9.9254H12.4519V38.4122V49.1329H16.1062H19.7606V24.7758V0.41881H16.1062H12.4519V10.1526V19.8865H9.9254H7.39893V10.1526V0.41881H3.69947H0V24.7758ZM44.7545 24.7758V49.1329H53.3265H61.8984V45.4546V41.7764H57.0259H52.1535V34.6891V27.6018H55.8529H59.5524V23.9236V20.2453H55.8529H52.1535V13.8309V7.41641H56.8455H61.5375V3.91761V0.41881H53.146H44.7545V24.7758ZM74.8916 0.519288C74.8916 0.574641 74.0603 7.28623 73.0441 15.434C72.0279 23.5819 70.6886 34.3459 70.0677 39.3542C69.4468 44.3624 68.9145 48.6114 68.8846 48.7964L68.8303 49.1329H72.2219H75.6135L75.618 48.931C75.6205 48.82 75.8352 46.7712 76.095 44.3781L76.5673 40.027L79.323 40.0033L82.0787 39.9796L82.2861 41.9321C82.4 43.006 82.6204 45.0554 82.7756 46.4863L83.0579 49.088L86.6895 49.1114C88.6869 49.1243 90.3211 49.1036 90.3211 49.0653C90.3211 49.0271 89.4109 42.1535 88.2983 33.7907C87.1857 25.428 85.7342 14.4982 85.0726 9.50232L83.8696 0.418989L79.3806 0.418899C76.1265 0.41881 74.8916 0.446441 74.8916 0.519288ZM91.4039 24.7758V49.1329H95.1485H98.8931V38.2188V27.3046L100.359 27.3605C102.14 27.4283 102.624 27.5504 103.073 28.0445C103.249 28.2381 103.444 28.5508 103.507 28.7393C103.595 29.002 103.634 31.1966 103.678 38.143C103.739 47.8905 103.736 47.837 104.212 48.7645L104.401 49.1329H108.144C111.194 49.1329 111.886 49.1109 111.886 49.0137C111.886 48.9482 111.781 48.6376 111.653 48.3235C111.127 47.0376 111.142 47.3491 111.08 36.4833C111.017 25.3526 111.064 26.1461 110.396 24.9553C109.946 24.1516 108.949 23.2727 108.108 22.9375L107.804 22.8163L108.244 22.5946C108.882 22.2726 109.889 21.2223 110.282 20.4679C110.463 20.1215 110.705 19.4958 110.82 19.0774L111.029 18.3165V12.1263V5.93615L110.817 5.09778C110.343 3.23041 109.37 1.93711 107.916 1.24462C106.251 0.451196 105.861 0.41881 97.9706 0.41881H91.4039V24.7758ZM112.337 3.91761V7.41641H115.45H118.563V28.2746V49.1329H122.218H125.872V28.2746V7.41641H128.985H132.098V3.91761V0.41881H122.218H112.337V3.91761ZM141.771 9.3228C141.161 14.22 139.812 25.0696 138.773 33.4331C137.735 41.7966 136.865 48.7504 136.84 48.8861L136.795 49.1329H140.167H143.54L143.596 48.7067C143.626 48.4724 143.833 46.5648 144.056 44.4678C144.278 42.3708 144.484 40.5036 144.513 40.3186L144.566 39.9821H147.31C148.819 39.9821 150.054 40.0124 150.054 40.0494C150.054 40.0865 150.278 42.1353 150.55 44.6024C150.823 47.0695 151.046 49.098 151.047 49.1104C151.047 49.1228 152.692 49.1329 154.703 49.1329H158.359L158.312 48.931C158.272 48.7548 156.796 37.7132 152.899 8.43375C152.327 4.1331 151.859 0.570335 151.859 0.516597C151.859 0.447338 150.549 0.41881 147.37 0.41881H142.881L141.771 9.3228ZM159.618 24.7758V49.1329H162.957H166.295L166.318 35.1856L166.341 21.2383L169.86 35.1848L173.379 49.1314L176.379 49.1321L179.379 49.1329V24.7758V0.41881H176.04H172.702V13.487C172.702 20.6744 172.683 26.5362 172.66 26.5129C172.617 26.4705 170.149 16.3699 167.697 6.20528C166.971 3.19542 166.356 0.662111 166.33 0.575807C166.287 0.429934 166.047 0.41881 162.951 0.41881H159.618V24.7758ZM182.447 24.7759V49.1425L188.966 49.1087C194.746 49.0788 195.562 49.0573 196.162 48.9197C199.623 48.1261 201.421 45.997 202.045 41.9558C202.138 41.3495 202.162 37.7727 202.162 24.5067C202.162 8.73195 202.153 7.76862 201.997 6.87813C201.646 4.87736 201.013 3.52772 199.912 2.43179C199.056 1.58005 198.187 1.1096 196.748 0.719078L195.846 0.474163L189.147 0.441776L182.447 0.4093V24.7759ZM102.194 7.18558C102.791 7.36671 103.251 7.81482 103.464 8.42173C103.617 8.86006 103.63 9.25991 103.63 13.6066V18.3165L103.415 18.8548C103.149 19.5202 102.596 20.0763 102.001 20.2779C101.677 20.3879 101.232 20.4248 100.23 20.4248H98.8931V13.6829V6.94102L100.314 6.99359C101.196 7.02625 101.91 7.09909 102.194 7.18558ZM193.218 7.26524C193.793 7.52684 194.079 7.90113 194.328 8.71724C194.485 9.22887 194.493 10.014 194.493 24.5964V39.9373L194.276 40.4756C194.151 40.7877 193.904 41.1699 193.689 41.3852C193.16 41.9155 192.648 42.0455 191.093 42.0455H189.846V24.4933V6.94102L191.285 6.99072C192.568 7.03495 192.778 7.06473 193.218 7.26524ZM79.9861 21.0079C80.3583 24.4125 80.7977 28.4394 80.9626 29.9567L81.2621 32.7154H79.295C78.2131 32.7154 77.3279 32.6959 77.3279 32.6721C77.3279 32.6482 77.5095 30.9426 77.7314 28.8817C78.2509 24.0581 79.2207 14.9196 79.2299 14.7607C79.2512 14.3922 79.3695 15.3691 79.9861 21.0079ZM147.625 17.9717C148.522 26.089 149.242 32.6401 149.242 32.676C149.242 32.6977 148.348 32.7154 147.256 32.7154H145.27L145.319 32.379C145.367 32.0571 146.43 22.1112 146.954 17.0864C147.091 15.7683 147.218 14.7048 147.237 14.723C147.255 14.7412 147.43 16.2031 147.625 17.9717ZM49.1244 50.2978C46.7734 50.6267 44.8891 51.5525 43.7319 52.9473C42.8138 54.054 42.255 55.329 41.904 57.1173C41.7638 57.8319 41.7376 58.39 41.7418 60.5712C41.7471 63.3194 41.8494 64.6974 42.1505 66.0803C42.626 68.2637 43.6627 70.4509 45.2374 72.5927C45.4914 72.9381 46.796 74.6139 48.1367 76.3167C51.9284 81.1323 52.4256 81.8457 52.9717 83.2536C53.4352 84.4486 53.5133 84.9736 53.5683 87.2608C53.6394 90.2171 53.4549 91.4376 52.8168 92.2335C52.4778 92.6564 52.0531 92.8495 51.3604 92.896C49.9647 92.9896 49.0496 92.2323 48.8115 90.7868C48.7643 90.5004 48.7255 88.177 48.7252 85.6235L48.7247 80.9809H45.0252H41.3258L41.3265 86.3412C41.3271 91.8503 41.3655 92.6548 41.6906 93.9805C41.9231 94.9288 42.7133 96.5663 43.2373 97.1855C44.3469 98.4968 45.8032 99.3111 47.7936 99.733C48.9388 99.9759 51.981 100.078 53.2704 99.9162C56.6496 99.4934 58.8414 98.0152 60.2083 95.2372C61.3107 92.9967 61.6937 90.0033 61.4583 85.4665C61.2366 81.1971 60.4072 79.0806 57.3976 75.1047C57.024 74.6113 55.8211 73.057 54.7243 71.6508C51.2773 67.2313 50.8485 66.6355 50.2376 65.4157C49.5765 64.0958 49.3741 63.1684 49.2979 61.1095C49.2109 58.7591 49.4892 57.568 50.2408 57.0735C50.9469 56.6089 52.3144 56.6891 52.8684 57.2275C53.554 57.894 53.5972 58.226 53.5972 62.8306V66.6268H57.2148H60.8324L60.7892 61.7151C60.7433 56.4929 60.7118 56.0766 60.2627 54.7616C59.6233 52.8891 58.362 51.5269 56.6734 50.8854C55.3858 50.3963 54.574 50.2858 52.0181 50.2521C50.7278 50.2351 49.4257 50.2556 49.1244 50.2978ZM81.4909 50.3117C79.2494 50.5448 77.5121 51.3457 76.182 52.7593C75.3147 53.6808 74.7939 54.5686 74.3484 55.8847C73.6289 58.0099 73.6805 56.588 73.648 75.1496C73.6277 86.757 73.6486 91.9602 73.718 92.5673C74.119 96.0728 76.0125 98.7787 78.6814 99.6602C79.1626 99.8191 79.5385 99.8603 80.7753 99.8897C82.5257 99.931 82.8614 99.8638 84.1165 99.2207C85.5412 98.4908 87.1382 96.7606 87.8732 95.1509L88.1327 94.5826L88.2735 95.0709C88.3978 95.5014 89.1018 98.1221 89.3385 99.0356L89.4258 99.372H91.5428H93.6597V84.5694V69.7668H88.4263H83.1929V73.4899V77.213H84.8622H86.5314V83.6629C86.5314 89.8538 86.5242 90.136 86.3514 90.6921C85.9164 92.0925 84.4947 92.8375 83.0508 92.4218C82.327 92.2133 81.8476 91.7191 81.5566 90.881L81.3432 90.2662V74.7458V59.2255L81.5455 58.7321C81.9313 57.7907 82.6274 57.3023 83.5885 57.2987C84.8823 57.2938 85.6173 57.8894 85.8887 59.1627C85.953 59.464 85.9901 60.8193 85.9901 62.8633V66.0886H89.6444H93.2988L93.2978 62.6122C93.2963 57.3394 93.0553 55.7477 91.9521 53.7245C91.3239 52.5726 89.9986 51.4325 88.7003 50.9271C87.1249 50.3138 84.0196 50.0487 81.4909 50.3117ZM132.775 50.3057C128.504 50.8778 126.058 53.3628 125.513 57.6823C125.393 58.637 125.394 62.8899 125.516 64.0062C125.874 67.3108 126.767 69.6128 128.753 72.3521C129.135 72.8792 130.421 74.5418 131.61 76.0467C135.17 80.5522 135.791 81.4094 136.392 82.6521C137.072 84.0564 137.241 85.1131 137.238 87.9336C137.234 90.7275 137.03 91.7607 136.356 92.4025C135.507 93.2114 133.672 93.0312 133.01 92.0737C132.424 91.2277 132.423 91.213 132.39 85.8478L132.36 80.9809H128.665H124.97L124.971 86.2067C124.971 92.4492 125.033 93.1982 125.698 95.0133C126.695 97.7401 129.001 99.4312 132.306 99.8614C133.637 100.035 136.089 100.038 137.288 99.8689C141.628 99.2552 144.154 96.5541 144.967 91.6567C145.156 90.5221 145.241 85.8839 145.1 84.4475C144.755 80.9307 143.772 78.6401 141.095 75.1147C140.641 74.5171 139.288 72.7709 138.089 71.2342C134.835 67.0664 134.136 66.0577 133.638 64.8181C133.081 63.4326 133.046 63.1944 133.046 60.7955C133.045 58.2884 133.136 57.792 133.692 57.2554C134.398 56.5734 135.874 56.5897 136.61 57.2875C137.221 57.8672 137.241 58.0334 137.241 62.6061V66.6268H140.85H144.46L144.458 62.1636C144.457 59.7089 144.416 57.3169 144.366 56.8482C143.982 53.2096 142.253 51.1952 138.895 50.4741C138.153 50.3147 137.632 50.2785 135.707 50.2523C134.442 50.2351 133.122 50.2591 132.775 50.3057ZM154.25 50.341C150.535 50.9269 148.347 53.0514 147.41 56.982C147.218 57.7893 147.218 57.8067 147.188 74.4319C147.161 89.6058 147.172 91.1685 147.309 92.1501C147.57 94.0075 148.208 95.7651 149.022 96.8677C149.471 97.4754 150.5 98.4112 151.107 98.7622C152.615 99.6357 154.367 100 157.06 100C159.363 100 160.886 99.7269 162.215 99.0754C164.527 97.9423 165.936 95.7337 166.486 92.3828C166.642 91.4301 166.656 90.7904 166.656 84.7713V78.1998H163.051H159.445L159.419 84.5021C159.393 90.6773 159.389 90.8138 159.203 91.2648C158.762 92.33 158.14 92.7584 157.03 92.7614C156.196 92.7637 155.653 92.5062 155.243 91.9137C154.676 91.0964 154.701 91.8826 154.701 74.7907C154.701 59.9377 154.708 59.2011 154.867 58.6913C155.066 58.0497 155.533 57.5412 156.056 57.3967C156.254 57.3423 156.702 57.2975 157.053 57.2973C157.88 57.2965 158.55 57.6089 158.923 58.1687C159.399 58.8823 159.435 59.3187 159.436 64.4065L159.438 69.0491H163.047H166.656L166.655 63.6888C166.653 58.0354 166.613 57.3212 166.21 55.7716C165.731 53.9292 164.529 52.2787 163.014 51.3847C162.258 50.9383 160.893 50.5079 159.728 50.3486C158.487 50.179 155.305 50.1745 154.25 50.341ZM199.861 50.2718C195.628 50.7226 193.062 53.0018 192.105 57.1612C191.687 58.9782 191.696 58.6163 191.696 75.015C191.696 89.6677 191.705 90.593 191.862 91.567C192.382 94.7927 193.455 96.8873 195.286 98.2562C197.059 99.5814 199.085 100.064 202.492 99.9745C205.606 99.8923 207.219 99.4028 208.851 98.0435C210.425 96.7331 211.394 94.7496 211.884 91.8361L212.088 90.625V75.015C212.088 60.5302 212.076 59.3346 211.929 58.4295C211.302 54.5867 209.995 52.4674 207.486 51.2211C206.547 50.7548 205.476 50.4631 204.105 50.3002C203.391 50.2154 200.568 50.1965 199.861 50.2718ZM221.968 50.3364C219.518 50.7116 217.931 51.5245 216.604 53.0827C215.669 54.1814 215.044 55.5827 214.594 57.5942L214.349 58.6873L214.318 74.3421C214.297 85.3776 214.317 90.2882 214.388 90.9839C214.57 92.7724 214.925 94.0789 215.608 95.4695C216.125 96.5221 216.657 97.214 217.521 97.9598C219.183 99.3943 221.279 100.002 224.551 99.9984C228.157 99.9944 230.292 99.2834 231.994 97.5194C233.497 95.9616 234.31 93.7756 234.606 90.4959C234.667 89.8127 234.689 84.2695 234.67 74.2524L234.64 59.0461L234.442 57.9696C233.981 55.4721 233.231 53.8187 231.987 52.5621C230.945 51.5101 229.442 50.7717 227.646 50.4295C226.611 50.2322 223.031 50.1735 221.968 50.3364ZM0 75.015V99.372L5.7071 99.3706C8.84606 99.3698 11.9015 99.329 12.497 99.2801C16.4826 98.9521 18.6827 96.9501 19.5077 92.9004L19.7155 91.881V74.8804C19.7155 58.6372 19.7079 57.8398 19.5463 56.9827C18.8445 53.2611 17.0095 51.3823 13.5003 50.7926C12.8402 50.6817 11.5793 50.658 6.34946 50.658H0V75.015ZM22.5577 75.015V99.372H31.1748H39.7918V95.6489V91.9258H34.8742H29.9567V84.8834V77.8409H33.6561H37.3556V74.1627V70.4845H33.6561H29.9567V64.07V57.6556H34.6938H39.4309V54.1568V50.658H30.9943H22.5577V75.015ZM63.5226 75.015V99.372H67.2671H71.0117V75.015V50.658H67.2671H63.5226V75.015ZM96.1861 75.015V99.372H99.5244H102.863L102.886 85.4597L102.908 71.5475L106.42 85.4597L109.931 99.372H112.939H115.947V75.015V50.658H112.558H109.17L109.222 63.7336C109.257 72.5689 109.244 76.751 109.182 76.6298C109.097 76.4625 107.465 69.7959 104.223 56.3781C103.475 53.2824 102.863 50.7289 102.863 50.7038C102.863 50.6786 101.361 50.658 99.5247 50.658H96.1861V75.015ZM169.093 75.015V99.372H172.792H176.492V88.6513V77.9307H178.973H181.454V88.6513V99.372H185.154H188.853V75.015V50.658H185.154H181.454V60.3918V70.1256H178.973H176.492V60.3918V50.658H172.792H169.093V75.015ZM237.488 75.015V99.372H245.744H254V95.6041V91.8361H249.443H244.887V71.2471V50.658H241.187H237.488V75.015ZM10.6021 57.3898C11.1107 57.5379 11.6841 58.1557 11.8658 58.7516C11.9454 59.0123 12.0479 59.6898 12.0936 60.2572C12.2072 61.6649 12.2047 88.0102 12.0909 89.2882C11.9476 90.8983 11.6144 91.5693 10.7484 91.9921C10.2712 92.2252 10.1574 92.2416 8.82007 92.2702L7.39893 92.3005V74.741V57.1815L8.82007 57.2332C9.60165 57.2615 10.4036 57.3321 10.6021 57.3898ZM202.762 57.4009C203.204 57.5327 203.789 58.0264 204.004 58.4501C204.481 59.392 204.463 58.7395 204.463 74.9818C204.463 85.3417 204.433 90.1714 204.366 90.5321C204.141 91.7409 203.606 92.4315 202.688 92.6968C201.521 93.0342 200.269 92.5364 199.751 91.5282C199.257 90.5683 199.285 91.4501 199.252 75.8224C199.233 66.9005 199.256 60.983 199.31 60.3438C199.426 58.9899 199.638 58.4194 200.22 57.8986C200.462 57.6827 200.795 57.4631 200.96 57.4106C201.371 57.2798 202.338 57.2746 202.762 57.4009ZM225.667 57.5461C226.127 57.7744 226.591 58.3354 226.795 58.9092C227.103 59.7793 227.121 60.7662 227.093 75.6878L227.066 90.4456L226.856 91.0241C226.63 91.647 226.308 92.1499 225.974 92.4002C225.859 92.4865 225.502 92.6254 225.181 92.7092C223.785 93.0733 222.517 92.3524 222.078 90.9447C221.934 90.4804 221.923 89.3638 221.923 74.9253V59.405L222.138 58.8667C222.4 58.2101 223.046 57.5441 223.557 57.4033C224.141 57.2425 225.201 57.3143 225.667 57.5461Z" fill="white"/>
</svg>
